Lato-Black.ufo
<glyph name="exclam" format="2">
  <advance width="584"/>
  <unicode hex="0021"/>
  <outline>
    <contour>
      <point x="148" y="1460" type="line"/>
      <point x="148" y="888" type="line" smooth="yes"/>
      <point x="148" y="766"/>
      <point x="164" y="642"/>
      <point x="188" y="520" type="curve"/>
      <point x="398" y="520" type="line"/>
      <point x="422" y="642"/>
      <point x="438" y="766"/>
      <point x="438" y="888" type="curve" smooth="yes"/>
      <point x="438" y="1460" type="line"/>
    </contour>
    <contour>
      <point x="114" y="162" type="curve" smooth="yes" name="hr01"/>
      <point x="114" y="62"/>
      <point x="190" y="-14"/>
      <point x="290" y="-14" type="curve" smooth="yes"/>
      <point x="388" y="-14"/>
      <point x="466" y="62"/>
      <point x="466" y="162" type="curve" smooth="yes"/>
      <point x="466" y="260"/>
      <point x="388" y="338"/>
      <point x="290" y="338" type="curve" smooth="yes"/>
      <point x="190" y="338"/>
      <point x="114" y="260"/>
    </contour>
  </outline>
  <guideline angle="90" x="386" y="0"/>
</glyph>
<glyph name="numbersign" format="2">
  <advance width="1160"/>
  <unicode hex="0023"/>
  <outline>
    <contour>
      <point x="199" y="526" type="line"/>
      <point x="199" y="472" type="line"/>
      <point x="115" y="0" type="line"/>
      <point x="253" y="0" type="line" smooth="yes"/>
      <point x="317" y="0"/>
      <point x="377" y="32"/>
      <point x="391" y="112" type="curve" smooth="yes"/>
      <point x="453" y="472" type="line"/>
      <point x="453" y="526" type="line"/>
      <point x="527" y="944" type="line"/>
      <point x="527" y="1000" type="line"/>
      <point x="609" y="1460" type="line"/>
      <point x="467" y="1460" type="line" smooth="yes"/>
      <point x="403" y="1460"/>
      <point x="349" y="1420"/>
      <point x="337" y="1356" type="curve" smooth="yes"/>
      <point x="273" y="1000" type="line"/>
      <point x="273" y="944" type="line"/>
    </contour>
    <contour>
      <point x="619" y="526" type="line"/>
      <point x="619" y="472" type="line"/>
      <point x="557" y="128" type="line"/>
      <point x="543" y="60"/>
      <point x="589" y="0"/>
      <point x="645" y="0" type="curve" smooth="yes"/>
      <point x="789" y="0" type="line"/>
      <point x="873" y="472" type="line"/>
      <point x="873" y="526" type="line"/>
      <point x="947" y="944" type="line"/>
      <point x="947" y="1000" type="line"/>
      <point x="1011" y="1354" type="line"/>
      <point x="1021" y="1414"/>
      <point x="977" y="1460"/>
      <point x="913" y="1460" type="curve"/>
      <point x="775" y="1460" type="line"/>
      <point x="693" y="1000" type="line"/>
      <point x="693" y="944" type="line"/>
    </contour>
    <contour>
      <point x="1057" y="392" type="line"/>
      <point x="1073" y="492" type="line" smooth="yes"/>
      <point x="1087" y="584"/>
      <point x="1059" y="618"/>
      <point x="997" y="618" type="curve" smooth="yes"/>
      <point x="37" y="618" type="line"/>
      <point x="21" y="518" type="line" smooth="yes"/>
      <point x="7" y="426"/>
      <point x="35" y="392"/>
      <point x="97" y="392" type="curve" smooth="yes"/>
    </contour>
    <contour>
      <point x="57" y="844" type="line"/>
      <point x="993" y="844" type="line" smooth="yes"/>
      <point x="1081" y="844"/>
      <point x="1117" y="874"/>
      <point x="1129" y="938" type="curve" smooth="yes"/>
      <point x="1153" y="1070" type="line"/>
      <point x="217" y="1070" type="line"/>
      <point x="129" y="1070"/>
      <point x="93" y="1040"/>
      <point x="81" y="976" type="curve" smooth="yes"/>
    </contour>
  </outline>
</glyph>
<glyph name="dollar" format="2">
  <advance width="1160"/>
  <unicode hex="0024"/>
  <outline>
    <contour>
      <point x="1085" y="1298" type="line"/>
      <point x="991" y="1388"/>
      <point x="845" y="1474"/>
      <point x="619" y="1474" type="curve" smooth="yes"/>
      <point x="285" y="1474"/>
      <point x="97" y="1258"/>
      <point x="97" y="1036" type="curve" smooth="yes"/>
      <point x="97" y="502"/>
      <point x="813" y="694"/>
      <point x="813" y="422" type="curve" smooth="yes"/>
      <point x="813" y="300"/>
      <point x="729" y="244"/>
      <point x="563" y="244" type="curve" smooth="yes"/>
      <point x="371" y="244"/>
      <point x="293" y="364"/>
      <point x="211" y="364" type="curve" smooth="yes"/>
      <point x="181" y="364"/>
      <point x="151" y="346"/>
      <point x="135" y="322" type="curve" smooth="yes"/>
      <point x="39" y="176" type="line"/>
      <point x="161" y="62"/>
      <point x="371" y="-16"/>
      <point x="563" y="-16" type="curve" smooth="yes"/>
      <point x="909" y="-16"/>
      <point x="1107" y="200"/>
      <point x="1107" y="470" type="curve" smooth="yes"/>
      <point x="1107" y="946"/>
      <point x="389" y="792"/>
      <point x="389" y="1068" type="curve" smooth="yes"/>
      <point x="389" y="1150"/>
      <point x="455" y="1212"/>
      <point x="649" y="1212" type="curve" smooth="yes"/>
      <point x="775" y="1212"/>
      <point x="877" y="1132"/>
      <point x="933" y="1132" type="curve" smooth="yes"/>
      <point x="965" y="1132"/>
      <point x="987" y="1148"/>
      <point x="1009" y="1182" type="curve"/>
    </contour>
    <contour>
      <point x="415" y="-208" type="line"/>
      <point x="529" y="-208" type="line" smooth="yes"/>
      <point x="575" y="-208"/>
      <point x="609" y="-170"/>
      <point x="611" y="-132" type="curve"/>
      <point x="787" y="1656" type="line"/>
      <point x="673" y="1656" type="line" smooth="yes"/>
      <point x="627" y="1656"/>
      <point x="593" y="1618"/>
      <point x="591" y="1580" type="curve"/>
    </contour>
  </outline>
</glyph>
<glyph name="percent" format="2">
  <advance width="1672"/>
  <unicode hex="0025"/>
  <outline>
    <contour>
      <point x="766" y="1106" type="curve" smooth="yes"/>
      <point x="766" y="1326"/>
      <point x="620" y="1474"/>
      <point x="416" y="1474" type="curve" smooth="yes"/>
      <point x="214" y="1474"/>
      <point x="68" y="1326"/>
      <point x="68" y="1106" type="curve" smooth="yes"/>
      <point x="68" y="894"/>
      <point x="214" y="746"/>
      <point x="416" y="746" type="curve" smooth="yes"/>
      <point x="600" y="746"/>
      <point x="766" y="894"/>
    </contour>
    <contour>
      <point x="528" y="1106" type="curve" smooth="yes"/>
      <point x="528" y="982"/>
      <point x="480" y="948"/>
      <point x="416" y="948" type="curve" smooth="yes"/>
      <point x="352" y="948"/>
      <point x="308" y="982"/>
      <point x="308" y="1106" type="curve" smooth="yes"/>
      <point x="308" y="1236"/>
      <point x="352" y="1272"/>
      <point x="416" y="1272" type="curve" smooth="yes"/>
      <point x="480" y="1272"/>
      <point x="528" y="1236"/>
    </contour>
    <contour>
      <point x="126" y="0" type="line" name="hr01"/>
      <point x="358" y="0" type="line" smooth="yes"/>
      <point x="400" y="0"/>
      <point x="430" y="20"/>
      <point x="450" y="46" type="curve" smooth="yes"/>
      <point x="1548" y="1460" type="line"/>
      <point x="1322" y="1460" type="line" smooth="yes"/>
      <point x="1270" y="1460"/>
      <point x="1244" y="1436"/>
      <point x="1224" y="1412" type="curve"/>
    </contour>
    <contour>
      <point x="1604" y="342" type="curve" smooth="yes"/>
      <point x="1604" y="562"/>
      <point x="1458" y="710"/>
      <point x="1254" y="710" type="curve" smooth="yes"/>
      <point x="1052" y="710"/>
      <point x="906" y="562"/>
      <point x="906" y="342" type="curve" smooth="yes"/>
      <point x="906" y="130"/>
      <point x="1052" y="-18"/>
      <point x="1254" y="-18" type="curve" smooth="yes"/>
      <point x="1438" y="-18"/>
      <point x="1604" y="130"/>
    </contour>
    <contour>
      <point x="1366" y="342" type="curve" smooth="yes"/>
      <point x="1366" y="218"/>
      <point x="1318" y="184"/>
      <point x="1254" y="184" type="curve" smooth="yes" name="hr02"/>
      <point x="1190" y="184"/>
      <point x="1146" y="218"/>
      <point x="1146" y="342" type="curve" smooth="yes"/>
      <point x="1146" y="472"/>
      <point x="1190" y="508"/>
      <point x="1254" y="508" type="curve" smooth="yes"/>
      <point x="1318" y="508"/>
      <point x="1366" y="472"/>
    </contour>
  </outline>
</glyph>
<glyph name="ampersand" format="2">
  <advance width="1467"/>
  <unicode hex="0026"/>
  <outline>
    <contour>
      <point x="467" y="864" type="line"/>
      <point x="239" y="798"/>
      <point x="59" y="634"/>
      <point x="59" y="414" type="curve" smooth="yes"/>
      <point x="59" y="152"/>
      <point x="291" y="-16"/>
      <point x="523" y="-16" type="curve" smooth="yes"/>
      <point x="973" y="-16"/>
      <point x="1317" y="342"/>
      <point x="1317" y="836" type="curve"/>
      <point x="1121" y="836" type="line" smooth="yes"/>
      <point x="1085" y="836"/>
      <point x="1063" y="812"/>
      <point x="1059" y="774" type="curve"/>
      <point x="1037" y="484"/>
      <point x="865" y="234"/>
      <point x="579" y="234" type="curve" smooth="yes" name="hr01"/>
      <point x="457" y="234"/>
      <point x="375" y="318"/>
      <point x="375" y="440" type="curve" smooth="yes"/>
      <point x="375" y="562"/>
      <point x="447" y="668"/>
      <point x="665" y="742" type="curve"/>
    </contour>
    <contour>
      <point x="677" y="1476" type="curve"/>
      <point x="403" y="1476"/>
      <point x="249" y="1296"/>
      <point x="249" y="1088" type="curve" smooth="yes" name="hr02"/>
      <point x="249" y="970"/>
      <point x="299" y="836"/>
      <point x="421" y="702" type="curve"/>
      <point x="1033" y="58" type="line"/>
      <point x="1075" y="12"/>
      <point x="1105" y="0"/>
      <point x="1167" y="0" type="curve" smooth="yes"/>
      <point x="1473" y="0" type="line"/>
      <point x="633" y="892" type="line"/>
      <point x="559" y="972"/>
      <point x="537" y="1024"/>
      <point x="537" y="1090" type="curve" smooth="yes"/>
      <point x="537" y="1166"/>
      <point x="585" y="1238"/>
      <point x="677" y="1238" type="curve" smooth="yes"/>
      <point x="743" y="1238"/>
      <point x="781" y="1206"/>
      <point x="811" y="1138" type="curve" smooth="yes"/>
      <point x="827" y="1102"/>
      <point x="855" y="1086"/>
      <point x="889" y="1094" type="curve"/>
      <point x="1089" y="1136" type="line" name="hr03"/>
      <point x="1071" y="1310"/>
      <point x="935" y="1476"/>
    </contour>
  </outline>
</glyph>
<glyph name="quotesingle" format="2">
  <advance width="436"/>
  <unicode hex="0027"/>
  <outline>
    <contour>
      <point x="83" y="1460" type="line"/>
      <point x="83" y="1174" type="line"/>
      <point x="111" y="1016" type="line"/>
      <point x="125" y="942"/>
      <point x="157" y="900"/>
      <point x="217" y="900" type="curve" smooth="yes"/>
      <point x="287" y="900"/>
      <point x="313" y="942"/>
      <point x="325" y="1016" type="curve"/>
      <point x="353" y="1174" type="line"/>
      <point x="353" y="1460" type="line"/>
    </contour>
  </outline>
  <guideline angle="90" x="256" y="0"/>
</glyph>
<glyph name="parenleft" format="2">
  <advance width="562"/>
  <unicode hex="0028"/>
  <outline>
    <contour>
      <point x="326" y="626" type="curve"/>
      <point x="326" y="888"/>
      <point x="390" y="1162"/>
      <point x="498" y="1384" type="curve" smooth="yes"/>
      <point x="532" y="1452"/>
      <point x="504" y="1484"/>
      <point x="470" y="1506" type="curve"/>
      <point x="332" y="1590" type="line"/>
      <point x="138" y="1290"/>
      <point x="58" y="970"/>
      <point x="58" y="626" type="curve"/>
      <point x="58" y="282"/>
      <point x="138" y="-38"/>
      <point x="332" y="-338" type="curve"/>
      <point x="470" y="-254" type="line"/>
      <point x="504" y="-232"/>
      <point x="532" y="-200"/>
      <point x="498" y="-132" type="curve" smooth="yes"/>
      <point x="390" y="90"/>
      <point x="326" y="364"/>
    </contour>
  </outline>
</glyph>
<glyph name="parenright" format="2">
  <advance width="562"/>
  <unicode hex="0029"/>
  <outline>
    <contour>
      <point x="236" y="626" type="curve"/>
      <point x="236" y="364"/>
      <point x="172" y="90"/>
      <point x="64" y="-132" type="curve" smooth="yes"/>
      <point x="30" y="-200"/>
      <point x="58" y="-232"/>
      <point x="92" y="-254" type="curve"/>
      <point x="230" y="-338" type="line"/>
      <point x="424" y="-38"/>
      <point x="504" y="282"/>
      <point x="504" y="626" type="curve" smooth="yes"/>
      <point x="504" y="970"/>
      <point x="424" y="1290"/>
      <point x="230" y="1590" type="curve"/>
      <point x="92" y="1506" type="line"/>
      <point x="58" y="1484"/>
      <point x="30" y="1452"/>
      <point x="64" y="1384" type="curve" smooth="yes"/>
      <point x="172" y="1162"/>
      <point x="236" y="888"/>
    </contour>
  </outline>
</glyph>
<glyph name="asterisk" format="2">
  <advance width="850"/>
  <unicode hex="002A"/>
  <outline>
    <contour>
      <point x="154" y="928" type="line"/>
      <point x="300" y="1012" type="line" smooth="yes"/>
      <point x="344" y="1038"/>
      <point x="380" y="1070"/>
      <point x="394" y="1112" type="curve"/>
      <point x="362" y="1168" type="line"/>
      <point x="318" y="1178"/>
      <point x="272" y="1162"/>
      <point x="228" y="1136" type="curve" smooth="yes"/>
      <point x="82" y="1052" type="line"/>
    </contour>
    <contour>
      <point x="498" y="810" type="line"/>
      <point x="498" y="982" type="line" smooth="yes"/>
      <point x="498" y="1032"/>
      <point x="486" y="1080"/>
      <point x="456" y="1112" type="curve"/>
      <point x="394" y="1112" type="line"/>
      <point x="362" y="1082"/>
      <point x="352" y="1032"/>
      <point x="352" y="980" type="curve" smooth="yes"/>
      <point x="352" y="810" type="line"/>
    </contour>
    <contour>
      <point x="768" y="1050" type="line"/>
      <point x="622" y="1136" type="line"/>
      <point x="578" y="1164"/>
      <point x="530" y="1178"/>
      <point x="488" y="1168" type="curve"/>
      <point x="456" y="1112" type="line"/>
      <point x="468" y="1070"/>
      <point x="506" y="1038"/>
      <point x="550" y="1012" type="curve" smooth="yes"/>
      <point x="696" y="926" type="line"/>
    </contour>
    <contour>
      <point x="352" y="1526" type="line"/>
      <point x="352" y="1354" type="line" smooth="yes"/>
      <point x="352" y="1304"/>
      <point x="364" y="1256"/>
      <point x="394" y="1224" type="curve"/>
      <point x="456" y="1224" type="line"/>
      <point x="488" y="1254"/>
      <point x="498" y="1304"/>
      <point x="498" y="1356" type="curve" smooth="yes"/>
      <point x="498" y="1526" type="line"/>
    </contour>
    <contour>
      <point x="82" y="1286" type="line"/>
      <point x="228" y="1200" type="line"/>
      <point x="272" y="1172"/>
      <point x="320" y="1158"/>
      <point x="362" y="1168" type="curve"/>
      <point x="394" y="1224" type="line"/>
      <point x="382" y="1266"/>
      <point x="344" y="1298"/>
      <point x="300" y="1324" type="curve" smooth="yes"/>
      <point x="154" y="1410" type="line"/>
    </contour>
    <contour>
      <point x="696" y="1408" type="line"/>
      <point x="550" y="1324" type="line" smooth="yes"/>
      <point x="506" y="1298"/>
      <point x="470" y="1266"/>
      <point x="456" y="1224" type="curve"/>
      <point x="488" y="1168" type="line"/>
      <point x="532" y="1158"/>
      <point x="578" y="1174"/>
      <point x="622" y="1200" type="curve" smooth="yes"/>
      <point x="768" y="1284" type="line"/>
    </contour>
    <contour>
      <point x="354" y="1204" type="line"/>
      <point x="344" y="1118" type="line"/>
      <point x="416" y="1066" type="line"/>
      <point x="504" y="1116" type="line"/>
      <point x="504" y="1214" type="line"/>
      <point x="434" y="1250" type="line"/>
    </contour>
  </outline>
</glyph>
<glyph name="plus" format="2">
  <advance width="1160"/>
  <unicode hex="002B"/>
  <outline>
    <contour>
      <point x="85" y="556" type="line"/>
      <point x="1075" y="556" type="line"/>
      <point x="1075" y="788" type="line"/>
      <point x="85" y="788" type="line"/>
    </contour>
    <contour>
      <point x="453" y="1180" type="line"/>
      <point x="453" y="162" type="line"/>
      <point x="705" y="162" type="line"/>
      <point x="705" y="1180" type="line"/>
    </contour>
  </outline>
</glyph>
<glyph name="comma" format="2">
  <advance width="480"/>
  <unicode hex="002C"/>
  <outline>
    <contour>
      <point x="67" y="182" type="curve" smooth="yes"/>
      <point x="67" y="82"/>
      <point x="135" y="6"/>
      <point x="235" y="6" type="curve" smooth="yes"/>
      <point x="269" y="6"/>
      <point x="295" y="14"/>
      <point x="313" y="24" type="curve"/>
      <point x="225" y="54" type="line" name="hr01"/>
      <point x="225" y="-41"/>
      <point x="147" y="-118"/>
      <point x="109" y="-158" type="curve" smooth="yes"/>
      <point x="96" y="-171"/>
      <point x="85" y="-188"/>
      <point x="85" y="-202" type="curve" smooth="yes"/>
      <point x="85" y="-222"/>
      <point x="91" y="-234"/>
      <point x="107" y="-248" type="curve"/>
      <point x="161" y="-298" type="line"/>
      <point x="325" y="-174"/>
      <point x="411" y="8"/>
      <point x="411" y="142" type="curve" smooth="yes"/>
      <point x="411" y="246"/>
      <point x="355" y="338"/>
      <point x="235" y="338" type="curve" smooth="yes"/>
      <point x="135" y="338"/>
      <point x="67" y="270"/>
    </contour>
  </outline>
</glyph>
<glyph name="hyphen" format="2">
  <advance width="748"/>
  <unicode hex="002D"/>
  <unicode hex="00AD"/>
  <unicode hex="2010"/>
  <outline>
    <contour>
      <point x="104" y="478" type="line"/>
      <point x="644" y="478" type="line"/>
      <point x="644" y="740" type="line"/>
      <point x="104" y="740" type="line"/>
    </contour>
  </outline>
</glyph>
<glyph name="period" format="2">
  <advance width="478"/>
  <unicode hex="002E"/>
  <outline>
    <contour>
      <point x="63" y="162" type="curve" smooth="yes"/>
      <point x="63" y="62"/>
      <point x="139" y="-14"/>
      <point x="239" y="-14" type="curve" smooth="yes"/>
      <point x="337" y="-14"/>
      <point x="415" y="62"/>
      <point x="415" y="162" type="curve" smooth="yes"/>
      <point x="415" y="260"/>
      <point x="337" y="338"/>
      <point x="239" y="338" type="curve" smooth="yes"/>
      <point x="139" y="338"/>
      <point x="63" y="260"/>
    </contour>
  </outline>
</glyph>
<glyph name="slash" format="2">
  <advance width="958"/>
  <unicode hex="002F"/>
  <outline>
    <contour>
      <point x="907" y="1500" type="line"/>
      <point x="775" y="1500" type="line" smooth="yes"/>
      <point x="703" y="1500"/>
      <point x="645" y="1460"/>
      <point x="619" y="1390" type="curve" smooth="yes"/>
      <point x="51" y="-100" type="line"/>
      <point x="183" y="-100" type="line" smooth="yes"/>
      <point x="247" y="-100"/>
      <point x="317" y="-60"/>
      <point x="345" y="16" type="curve"/>
    </contour>
  </outline>
</glyph>
<glyph name="zero" format="2">
  <advance width="1160"/>
  <unicode hex="0030"/>
  <outline>
    <contour>
      <point x="1120" y="730" type="curve" smooth="yes"/>
      <point x="1120" y="1240"/>
      <point x="888" y="1476"/>
      <point x="578" y="1476" type="curve" smooth="yes"/>
      <point x="268" y="1476"/>
      <point x="40" y="1240"/>
      <point x="40" y="730" type="curve" smooth="yes"/>
      <point x="40" y="220"/>
      <point x="268" y="-16"/>
      <point x="578" y="-16" type="curve" smooth="yes"/>
      <point x="888" y="-16"/>
      <point x="1120" y="220"/>
    </contour>
    <contour>
      <point x="800" y="730" type="curve" smooth="yes"/>
      <point x="800" y="330"/>
      <point x="688" y="244"/>
      <point x="578" y="244" type="curve" smooth="yes"/>
      <point x="468" y="244"/>
      <point x="360" y="330"/>
      <point x="360" y="730" type="curve" smooth="yes"/>
      <point x="360" y="1130"/>
      <point x="468" y="1216"/>
      <point x="578" y="1216" type="curve" smooth="yes"/>
      <point x="688" y="1216"/>
      <point x="800" y="1130"/>
    </contour>
  </outline>
</glyph>
<glyph name="one" format="2">
  <advance width="1160"/>
  <unicode hex="0031"/>
  <outline>
    <contour>
      <point x="555" y="1460" type="line"/>
      <point x="525" y="1294"/>
      <point x="501" y="1104"/>
      <point x="501" y="942" type="curve" smooth="yes"/>
      <point x="501" y="0" type="line"/>
      <point x="811" y="0" type="line"/>
      <point x="811" y="1460" type="line"/>
    </contour>
    <contour>
      <point x="221" y="0" type="line"/>
      <point x="1051" y="0" type="line"/>
      <point x="1051" y="234" type="line"/>
      <point x="221" y="234" type="line"/>
    </contour>
    <contour>
      <point x="101" y="1078" type="line"/>
      <point x="199" y="942" type="line" smooth="yes"/>
      <point x="219" y="914"/>
      <point x="281" y="884"/>
      <point x="339" y="930" type="curve" smooth="yes"/>
      <point x="553" y="1100" type="line"/>
      <point x="555" y="1460" type="line"/>
    </contour>
  </outline>
</glyph>
<glyph name="two" format="2">
  <advance width="1160"/>
  <unicode hex="0032"/>
  <outline>
    <contour>
      <point x="596" y="1476" type="curve" smooth="yes"/>
      <point x="330" y="1476"/>
      <point x="124" y="1334"/>
      <point x="80" y="1040" type="curve"/>
      <point x="244" y="1010" type="line"/>
      <point x="328" y="996"/>
      <point x="368" y="1018"/>
      <point x="396" y="1094" type="curve" smooth="yes"/>
      <point x="420" y="1160"/>
      <point x="486" y="1212"/>
      <point x="578" y="1212" type="curve" smooth="yes"/>
      <point x="690" y="1212"/>
      <point x="746" y="1148"/>
      <point x="746" y="1040" type="curve" smooth="yes"/>
      <point x="746" y="902"/>
      <point x="678" y="794"/>
      <point x="534" y="650" type="curve" smooth="yes"/>
      <point x="114" y="232" type="line"/>
      <point x="74" y="194"/>
      <point x="60" y="144"/>
      <point x="60" y="104" type="curve"/>
      <point x="60" y="0" type="line"/>
      <point x="1084" y="0" type="line"/>
      <point x="1084" y="188" type="line" smooth="yes"/>
      <point x="1084" y="250"/>
      <point x="1042" y="292"/>
      <point x="976" y="292" type="curve" smooth="yes"/>
      <point x="704" y="292" type="line" smooth="yes"/>
      <point x="586" y="292"/>
      <point x="418" y="240"/>
      <point x="310" y="180" type="curve"/>
      <point x="308" y="56" type="line"/>
      <point x="780" y="538" type="line" smooth="yes"/>
      <point x="934" y="694"/>
      <point x="1064" y="838"/>
      <point x="1064" y="1050" type="curve" smooth="yes"/>
      <point x="1064" y="1296"/>
      <point x="884" y="1476"/>
    </contour>
  </outline>
</glyph>
<glyph name="three" format="2">
  <advance width="1160"/>
  <unicode hex="0033"/>
  <outline>
    <contour>
      <point x="604" y="1476" type="curve" smooth="yes"/>
      <point x="338" y="1476"/>
      <point x="132" y="1334"/>
      <point x="88" y="1040" type="curve"/>
      <point x="252" y="1010" type="line"/>
      <point x="336" y="996"/>
      <point x="376" y="1018"/>
      <point x="404" y="1094" type="curve" smooth="yes"/>
      <point x="428" y="1160"/>
      <point x="494" y="1212"/>
      <point x="586" y="1212" type="curve" smooth="yes"/>
      <point x="698" y="1212"/>
      <point x="754" y="1148"/>
      <point x="754" y="1040" type="curve" smooth="yes"/>
      <point x="754" y="932"/>
      <point x="714" y="858"/>
      <point x="470" y="858" type="curve"/>
      <point x="470" y="634" type="line"/>
      <point x="758" y="634"/>
      <point x="772" y="558"/>
      <point x="772" y="436" type="curve" smooth="yes" name="hr01"/>
      <point x="772" y="344"/>
      <point x="704" y="248"/>
      <point x="566" y="248" type="curve" smooth="yes"/>
      <point x="476" y="248"/>
      <point x="412" y="284"/>
      <point x="352" y="398" type="curve" smooth="yes"/>
      <point x="326" y="448"/>
      <point x="258" y="464"/>
      <point x="186" y="434" type="curve" smooth="yes"/>
      <point x="48" y="376" type="line"/>
      <point x="142" y="96"/>
      <point x="294" y="-16"/>
      <point x="570" y="-16" type="curve" smooth="yes"/>
      <point x="840" y="-16"/>
      <point x="1082" y="134"/>
      <point x="1082" y="446" type="curve" smooth="yes"/>
      <point x="1082" y="684"/>
      <point x="916" y="806"/>
      <point x="578" y="822" type="curve"/>
      <point x="578" y="728" type="line"/>
      <point x="884" y="752"/>
      <point x="1056" y="816"/>
      <point x="1056" y="1096" type="curve" smooth="yes" name="hr02"/>
      <point x="1056" y="1296"/>
      <point x="892" y="1476"/>
    </contour>
  </outline>
</glyph>
<glyph name="four" format="2">
  <advance width="1160"/>
  <unicode hex="0034"/>
  <outline>
    <contour>
      <point x="965" y="1460" type="line"/>
      <point x="669" y="1460" type="line"/>
      <point x="-5" y="556" type="line"/>
      <point x="27" y="396" type="line" smooth="yes"/>
      <point x="35" y="358"/>
      <point x="71" y="330"/>
      <point x="109" y="330" type="curve" smooth="yes"/>
      <point x="1055" y="330" type="line" smooth="yes"/>
      <point x="1093" y="330"/>
      <point x="1115" y="358"/>
      <point x="1115" y="390" type="curve" smooth="yes"/>
      <point x="1115" y="572" type="line"/>
      <point x="67" y="572" type="line"/>
      <point x="221" y="426" type="line"/>
      <point x="877" y="1346" type="line"/>
      <point x="763" y="1366" type="line"/>
      <point x="713" y="1214"/>
      <point x="695" y="1048"/>
      <point x="695" y="928" type="curve" smooth="yes"/>
      <point x="695" y="0" type="line"/>
      <point x="965" y="0" type="line"/>
    </contour>
  </outline>
</glyph>
<glyph name="five" format="2">
  <advance width="1160"/>
  <unicode hex="0035"/>
  <outline>
    <contour>
      <point x="1015" y="1460" type="line"/>
      <point x="269" y="1460" type="line"/>
      <point x="145" y="724" type="line"/>
      <point x="337" y="670" type="line"/>
      <point x="398" y="694"/>
      <point x="464" y="707"/>
      <point x="529" y="707" type="curve" smooth="yes"/>
      <point x="675" y="707"/>
      <point x="759" y="635"/>
      <point x="759" y="498" type="curve" smooth="yes"/>
      <point x="759" y="362"/>
      <point x="695" y="246"/>
      <point x="529" y="246" type="curve" smooth="yes"/>
      <point x="365" y="246"/>
      <point x="317" y="350"/>
      <point x="237" y="350" type="curve" smooth="yes"/>
      <point x="207" y="350"/>
      <point x="179" y="336"/>
      <point x="159" y="308" type="curve" smooth="yes"/>
      <point x="63" y="174" type="line"/>
      <point x="167" y="72"/>
      <point x="321" y="-16"/>
      <point x="511" y="-16" type="curve" smooth="yes"/>
      <point x="837" y="-16"/>
      <point x="1069" y="202"/>
      <point x="1069" y="514" type="curve" smooth="yes"/>
      <point x="1069" y="762"/>
      <point x="904" y="963"/>
      <point x="597" y="963" type="curve" smooth="yes"/>
      <point x="513" y="963"/>
      <point x="418" y="949"/>
      <point x="313" y="916" type="curve"/>
      <point x="407" y="724" type="line"/>
      <point x="527" y="1432" type="line"/>
      <point x="301" y="1176" type="line"/>
      <point x="833" y="1176" type="line" smooth="yes"/>
      <point x="965" y="1176"/>
      <point x="1015" y="1238"/>
      <point x="1015" y="1326" type="curve" smooth="yes"/>
    </contour>
  </outline>
</glyph>
<glyph name="six" format="2">
  <advance width="1160"/>
  <unicode hex="0036"/>
  <outline>
    <contour>
      <point x="360" y="466" type="curve"/>
      <point x="360" y="608"/>
      <point x="450" y="694"/>
      <point x="574" y="694" type="curve" smooth="yes"/>
      <point x="712" y="694"/>
      <point x="804" y="610"/>
      <point x="804" y="466" type="curve" smooth="yes"/>
      <point x="804" y="338"/>
      <point x="706" y="240"/>
      <point x="578" y="240" type="curve" smooth="yes"/>
      <point x="430" y="240"/>
      <point x="360" y="328"/>
    </contour>
    <contour>
      <point x="350" y="520" type="line"/>
      <point x="350" y="690"/>
      <point x="446" y="806"/>
      <point x="566" y="946" type="curve"/>
      <point x="998" y="1460" type="line"/>
      <point x="722" y="1460" type="line" smooth="yes"/>
      <point x="648" y="1460"/>
      <point x="586" y="1426"/>
      <point x="556" y="1386" type="curve" smooth="yes"/>
      <point x="228" y="948" type="line" smooth="yes"/>
      <point x="118" y="802"/>
      <point x="62" y="656"/>
      <point x="62" y="510" type="curve" smooth="yes"/>
      <point x="62" y="202"/>
      <point x="258" y="-16"/>
      <point x="584" y="-16" type="curve" smooth="yes"/>
      <point x="902" y="-16"/>
      <point x="1114" y="216"/>
      <point x="1114" y="490" type="curve" smooth="yes"/>
      <point x="1114" y="792"/>
      <point x="894" y="928"/>
      <point x="684" y="928" type="curve" smooth="yes"/>
      <point x="418" y="928"/>
      <point x="284" y="728"/>
      <point x="284" y="520" type="curve"/>
    </contour>
  </outline>
</glyph>
<glyph name="seven" format="2">
  <advance width="1160"/>
  <unicode hex="0037"/>
  <outline>
    <contour>
      <point x="79" y="1460" type="line"/>
      <point x="79" y="1246" type="line" smooth="yes"/>
      <point x="79" y="1210"/>
      <point x="113" y="1176"/>
      <point x="149" y="1176" type="curve" smooth="yes"/>
      <point x="1051" y="1176" type="line"/>
      <point x="819" y="1206" type="line"/>
      <point x="767" y="1156"/>
      <point x="729" y="1100"/>
      <point x="691" y="1028" type="curve"/>
      <point x="171" y="0" type="line"/>
      <point x="397" y="0" type="line" smooth="yes"/>
      <point x="483" y="0"/>
      <point x="531" y="48"/>
      <point x="559" y="106" type="curve" smooth="yes"/>
      <point x="1065" y="1164" type="line" smooth="yes"/>
      <point x="1081" y="1198"/>
      <point x="1103" y="1244"/>
      <point x="1103" y="1324" type="curve"/>
      <point x="1103" y="1460" type="line"/>
    </contour>
  </outline>
</glyph>
<glyph name="eight" format="2">
  <advance width="1160"/>
  <unicode hex="0038"/>
  <outline>
    <contour>
      <point x="580" y="-16" type="curve"/>
      <point x="890" y="-16"/>
      <point x="1100" y="156"/>
      <point x="1100" y="420" type="curve" smooth="yes"/>
      <point x="1100" y="638"/>
      <point x="962" y="794"/>
      <point x="596" y="804" type="curve"/>
      <point x="596" y="706" type="line"/>
      <point x="900" y="716"/>
      <point x="1052" y="850"/>
      <point x="1052" y="1076" type="curve" smooth="yes" name="hr01"/>
      <point x="1052" y="1304"/>
      <point x="854" y="1476"/>
      <point x="580" y="1476" type="curve"/>
      <point x="306" y="1476"/>
      <point x="108" y="1304"/>
      <point x="108" y="1076" type="curve" smooth="yes"/>
      <point x="108" y="850"/>
      <point x="260" y="716"/>
      <point x="564" y="706" type="curve"/>
      <point x="564" y="804" type="line"/>
      <point x="198" y="794"/>
      <point x="60" y="638"/>
      <point x="60" y="420" type="curve" smooth="yes" name="hr02"/>
      <point x="60" y="156"/>
      <point x="270" y="-16"/>
    </contour>
    <contour>
      <point x="580" y="876" type="curve"/>
      <point x="442" y="876"/>
      <point x="410" y="972"/>
      <point x="410" y="1070" type="curve" smooth="yes"/>
      <point x="410" y="1156"/>
      <point x="456" y="1240"/>
      <point x="580" y="1240" type="curve" name="hr03"/>
      <point x="704" y="1240"/>
      <point x="750" y="1156"/>
      <point x="750" y="1070" type="curve" smooth="yes"/>
      <point x="750" y="972"/>
      <point x="718" y="876"/>
    </contour>
    <contour>
      <point x="580" y="228" type="curve"/>
      <point x="440" y="228"/>
      <point x="380" y="316"/>
      <point x="380" y="426" type="curve" smooth="yes"/>
      <point x="380" y="544"/>
      <point x="428" y="630"/>
      <point x="580" y="630" type="curve"/>
      <point x="732" y="630"/>
      <point x="780" y="544"/>
      <point x="780" y="426" type="curve" smooth="yes" name="hr04"/>
      <point x="780" y="316"/>
      <point x="720" y="228"/>
    </contour>
  </outline>
</glyph>
<glyph name="nine" format="2">
  <advance width="1160"/>
  <unicode hex="0039"/>
  <outline>
    <contour>
      <point x="781" y="1012" type="curve"/>
      <point x="781" y="882"/>
      <point x="707" y="802"/>
      <point x="575" y="802" type="curve" smooth="yes"/>
      <point x="441" y="802"/>
      <point x="373" y="872"/>
      <point x="373" y="1012" type="curve" smooth="yes"/>
      <point x="373" y="1130"/>
      <point x="447" y="1220"/>
      <point x="571" y="1220" type="curve" smooth="yes"/>
      <point x="695" y="1220"/>
      <point x="781" y="1150"/>
    </contour>
    <contour>
      <point x="799" y="960" type="line"/>
      <point x="799" y="796"/>
      <point x="735" y="686"/>
      <point x="621" y="550" type="curve" smooth="yes"/>
      <point x="159" y="0" type="line"/>
      <point x="445" y="0" type="line" smooth="yes"/>
      <point x="517" y="0"/>
      <point x="577" y="32"/>
      <point x="605" y="72" type="curve" smooth="yes"/>
      <point x="919" y="512" type="line"/>
      <point x="1015" y="644"/>
      <point x="1077" y="790"/>
      <point x="1077" y="984" type="curve" smooth="yes"/>
      <point x="1077" y="1272"/>
      <point x="889" y="1476"/>
      <point x="575" y="1476" type="curve" smooth="yes"/>
      <point x="267" y="1476"/>
      <point x="63" y="1252"/>
      <point x="63" y="988" type="curve" smooth="yes"/>
      <point x="63" y="698"/>
      <point x="275" y="566"/>
      <point x="463" y="566" type="curve" smooth="yes"/>
      <point x="689" y="566"/>
      <point x="863" y="706"/>
      <point x="863" y="960" type="curve"/>
    </contour>
  </outline>
</glyph>
<glyph name="less" format="2">
  <advance width="1160"/>
  <unicode hex="003C"/>
  <outline>
    <contour>
      <point x="142" y="738" type="line"/>
      <point x="142" y="644" type="line"/>
      <point x="344" y="644"/>
      <point x="504" y="658"/>
      <point x="618" y="716" type="curve" smooth="yes"/>
      <point x="902" y="861" type="line" smooth="yes"/>
      <point x="938" y="879"/>
      <point x="952" y="907"/>
      <point x="952" y="939" type="curve" smooth="yes"/>
      <point x="952" y="1164" type="line"/>
    </contour>
    <contour>
      <point x="142" y="612" type="line"/>
      <point x="952" y="186" type="line"/>
      <point x="952" y="411" type="line"/>
      <point x="952" y="443"/>
      <point x="938" y="471"/>
      <point x="902" y="489" type="curve"/>
      <point x="618" y="634" type="line" smooth="yes"/>
      <point x="504" y="692"/>
      <point x="344" y="706"/>
      <point x="142" y="706" type="curve"/>
    </contour>
  </outline>
</glyph>
<glyph name="equal" format="2">
  <advance width="1160"/>
  <unicode hex="003D"/>
  <outline>
    <contour>
      <point x="125" y="370" type="line"/>
      <point x="1035" y="370" type="line"/>
      <point x="1035" y="602" type="line"/>
      <point x="125" y="602" type="line"/>
    </contour>
    <contour>
      <point x="125" y="740" type="line"/>
      <point x="1035" y="740" type="line"/>
      <point x="1035" y="972" type="line"/>
      <point x="125" y="972" type="line"/>
    </contour>
  </outline>
</glyph>
<glyph name="question" format="2">
  <advance width="943"/>
  <unicode hex="003F"/>
  <outline>
    <component base="period" xOffset="182"/>
    <contour>
      <point x="143" y="1194" type="line"/>
      <point x="157" y="1168"/>
      <point x="179" y="1156"/>
      <point x="207" y="1156" type="curve" smooth="yes"/>
      <point x="257" y="1156"/>
      <point x="299" y="1224"/>
      <point x="439" y="1224" type="curve" smooth="yes"/>
      <point x="531" y="1224"/>
      <point x="587" y="1174"/>
      <point x="587" y="1100" type="curve" smooth="yes"/>
      <point x="587" y="896"/>
      <point x="271" y="880"/>
      <point x="303" y="680" type="curve"/>
      <point x="325" y="520" type="line"/>
      <point x="537" y="520" type="line"/>
      <point x="565" y="658" type="line"/>
      <point x="593" y="782"/>
      <point x="875" y="812"/>
      <point x="875" y="1118" type="curve" smooth="yes"/>
      <point x="875" y="1334"/>
      <point x="717" y="1476"/>
      <point x="467" y="1476" type="curve" smooth="yes"/>
      <point x="289" y="1476"/>
      <point x="161" y="1410"/>
      <point x="61" y="1326" type="curve"/>
    </contour>
  </outline>
</glyph>
<glyph name="at" format="2">
  <advance width="1699"/>
  <unicode hex="0040"/>
  <outline>
    <contour>
      <point x="1195" y="182" type="curve" smooth="yes"/>
      <point x="1449" y="182"/>
      <point x="1633" y="418"/>
      <point x="1633" y="702" type="curve" smooth="yes"/>
      <point x="1633" y="1128"/>
      <point x="1279" y="1404"/>
      <point x="891" y="1404" type="curve" smooth="yes"/>
      <point x="429" y="1404"/>
      <point x="79" y="1018"/>
      <point x="79" y="598" type="curve" smooth="yes"/>
      <point x="79" y="84"/>
      <point x="443" y="-242"/>
      <point x="943" y="-242" type="curve" smooth="yes"/>
      <point x="1189" y="-242"/>
      <point x="1375" y="-176"/>
      <point x="1509" y="-88" type="curve"/>
      <point x="1467" y="24" type="line" smooth="yes"/>
      <point x="1453" y="63"/>
      <point x="1419" y="74"/>
      <point x="1377" y="50" type="curve"/>
      <point x="1297" y="8"/>
      <point x="1153" y="-42"/>
      <point x="943" y="-42" type="curve" smooth="yes"/>
      <point x="577" y="-42"/>
      <point x="303" y="174"/>
      <point x="303" y="598" type="curve" smooth="yes"/>
      <point x="303" y="932"/>
      <point x="547" y="1204"/>
      <point x="891" y="1204" type="curve" smooth="yes"/>
      <point x="1207" y="1204"/>
      <point x="1413" y="1028"/>
      <point x="1413" y="702" type="curve" smooth="yes"/>
      <point x="1413" y="516"/>
      <point x="1337" y="374"/>
      <point x="1241" y="374" type="curve" smooth="yes"/>
      <point x="1173" y="374"/>
      <point x="1139" y="412"/>
      <point x="1173" y="548" type="curve"/>
      <point x="1271" y="930" type="line"/>
      <point x="1195" y="962"/>
      <point x="1127" y="980"/>
      <point x="1009" y="980" type="curve" smooth="yes"/>
      <point x="637" y="980"/>
      <point x="467" y="714"/>
      <point x="467" y="486" type="curve" smooth="yes"/>
      <point x="467" y="310"/>
      <point x="555" y="182"/>
      <point x="729" y="182" type="curve" smooth="yes"/>
      <point x="879" y="182"/>
      <point x="999" y="260"/>
      <point x="1109" y="482" type="curve"/>
      <point x="975" y="416" type="line"/>
      <point x="975" y="240"/>
      <point x="1083" y="182"/>
    </contour>
    <contour>
      <point x="1025" y="862" type="line"/>
      <point x="935" y="514" type="line" smooth="yes"/>
      <point x="909" y="414"/>
      <point x="849" y="382"/>
      <point x="791" y="382" type="curve" smooth="yes"/>
      <point x="737" y="382"/>
      <point x="705" y="418"/>
      <point x="705" y="494" type="curve" smooth="yes" name="hr01"/>
      <point x="705" y="654"/>
      <point x="823" y="786"/>
      <point x="957" y="786" type="curve" smooth="yes"/>
      <point x="1011" y="786"/>
      <point x="1065" y="774"/>
      <point x="1109" y="750" type="curve"/>
    </contour>
  </outline>
  <guideline angle="0" x="0" y="730"/>
  <guideline angle="90" x="828" y="0"/>
</glyph>
<glyph name="B" format="2">
  <advance width="1339"/>
  <unicode hex="0042"/>
  <anchor x="669" y="-70" name="bottom"/>
  <anchor x="604" y="1525" name="Top"/>
  <anchor x="318" y="437" name="Bar"/>
  <anchor x="604" y="1525" name="top"/>
  <outline>
    <contour>
      <point x="723" y="0" type="line" smooth="yes"/>
      <point x="1073" y="0"/>
      <point x="1269" y="194"/>
      <point x="1269" y="442" type="curve" smooth="yes"/>
      <point x="1269" y="674"/>
      <point x="1089" y="786"/>
      <point x="699" y="786" type="curve"/>
      <point x="613" y="700" type="line"/>
      <point x="1067" y="700"/>
      <point x="1235" y="862"/>
      <point x="1235" y="1064" type="curve" smooth="yes" name="hr01"/>
      <point x="1235" y="1304"/>
      <point x="1079" y="1460"/>
      <point x="677" y="1460" type="curve" smooth="yes"/>
      <point x="141" y="1460" type="line"/>
      <point x="141" y="0" type="line"/>
      <point x="479" y="0" type="line"/>
      <point x="479" y="1196" type="line"/>
      <point x="677" y="1196" type="line" smooth="yes"/>
      <point x="829" y="1196"/>
      <point x="897" y="1156"/>
      <point x="897" y="1022" type="curve" smooth="yes"/>
      <point x="897" y="880"/>
      <point x="805" y="850"/>
      <point x="655" y="850" type="curve"/>
      <point x="449" y="850" type="line"/>
      <point x="449" y="614" type="line"/>
      <point x="715" y="614" type="line" smooth="yes"/>
      <point x="885" y="614"/>
      <point x="935" y="552"/>
      <point x="935" y="450" type="curve" smooth="yes" name="hr02"/>
      <point x="935" y="364"/>
      <point x="897" y="266"/>
      <point x="717" y="266" type="curve" smooth="yes"/>
      <point x="437" y="266" type="line"/>
      <point x="275" y="0" type="line"/>
    </contour>
  </outline>
</glyph>
<glyph name="D" format="2">
  <advance width="1522"/>
  <unicode hex="0044"/>
  <anchor x="675" y="1525" name="Top"/>
  <anchor x="683" y="-103" name="bottom"/>
  <anchor x="675" y="1525" name="top"/>
  <outline>
    <contour>
      <point x="1463" y="730" type="curve" smooth="yes"/>
      <point x="1463" y="1148"/>
      <point x="1161" y="1460"/>
      <point x="707" y="1460" type="curve"/>
      <point x="141" y="1460" type="line"/>
      <point x="141" y="0" type="line"/>
      <point x="707" y="0" type="line"/>
      <point x="1161" y="0"/>
      <point x="1463" y="310"/>
    </contour>
    <contour>
      <point x="1117" y="730" type="curve" smooth="yes"/>
      <point x="1117" y="446"/>
      <point x="965" y="272"/>
      <point x="707" y="272" type="curve"/>
      <point x="481" y="272" type="line"/>
      <point x="481" y="1188" type="line"/>
      <point x="707" y="1188" type="line"/>
      <point x="965" y="1188"/>
      <point x="1117" y="1012"/>
    </contour>
  </outline>
</glyph>
<glyph name="F" format="2">
  <advance width="1133"/>
  <unicode hex="0046"/>
  <anchor x="625" y="1525" name="Top"/>
  <anchor x="625" y="1525" name="top"/>
  <anchor x="481" y="-70" name="bottom"/>
  <outline>
    <contour>
      <point x="481" y="1460" type="line"/>
      <point x="141" y="1460" type="line"/>
      <point x="141" y="0" type="line"/>
      <point x="481" y="0" type="line"/>
    </contour>
    <contour>
      <point x="449" y="834" type="line"/>
      <point x="449" y="562" type="line"/>
      <point x="979" y="562" type="line"/>
      <point x="979" y="834" type="line"/>
    </contour>
    <contour>
      <point x="449" y="1460" type="line"/>
      <point x="449" y="1188" type="line"/>
      <point x="1079" y="1188" type="line"/>
      <point x="1079" y="1460" type="line"/>
    </contour>
  </outline>
</glyph>
<glyph name="G" format="2">
  <advance width="1445"/>
  <unicode hex="0047"/>
  <anchor x="821" y="1525" name="Top"/>
  <anchor x="821" y="1525" name="top"/>
  <anchor x="841" y="-70" name="bottom"/>
  <outline>
    <contour>
      <point x="1359" y="140" type="curve"/>
      <point x="1359" y="762" type="line"/>
      <point x="841" y="762" type="line"/>
      <point x="841" y="568" type="line" smooth="yes"/>
      <point x="841" y="532"/>
      <point x="867" y="506"/>
      <point x="909" y="506" type="curve" smooth="yes"/>
      <point x="1053" y="506" type="line"/>
      <point x="1053" y="108" type="line"/>
      <point x="1151" y="346" type="line"/>
      <point x="1053" y="294"/>
      <point x="969" y="256"/>
      <point x="846" y="256" type="curve" smooth="yes"/>
      <point x="583" y="256"/>
      <point x="403" y="428"/>
      <point x="403" y="730" type="curve" smooth="yes"/>
      <point x="403" y="1002"/>
      <point x="563" y="1184"/>
      <point x="815" y="1184" type="curve" smooth="yes"/>
      <point x="951" y="1184"/>
      <point x="1027" y="1164"/>
      <point x="1133" y="1096" type="curve" smooth="yes"/>
      <point x="1189" y="1060"/>
      <point x="1241" y="1074"/>
      <point x="1271" y="1122" type="curve" smooth="yes"/>
      <point x="1369" y="1278" type="line"/>
      <point x="1251" y="1390"/>
      <point x="1071" y="1476"/>
      <point x="827" y="1476" type="curve" smooth="yes"/>
      <point x="357" y="1476"/>
      <point x="57" y="1164"/>
      <point x="57" y="730" type="curve" smooth="yes"/>
      <point x="57" y="304"/>
      <point x="375" y="-16"/>
      <point x="856" y="-16" type="curve" smooth="yes"/>
      <point x="1039" y="-16"/>
      <point x="1211" y="30"/>
    </contour>
  </outline>
</glyph>
<glyph name="I" format="2">
  <advance width="622"/>
  <unicode hex="0049"/>
  <anchor x="315" y="1525" name="Top"/>
  <anchor x="-139" y="1120" name="onRight"/>
  <anchor x="315" y="1525" name="top"/>
  <anchor x="311" y="-70" name="bottom"/>
  <outline>
    <contour>
      <point x="481" y="1460" type="line"/>
      <point x="141" y="1460" type="line"/>
      <point x="141" y="0" type="line"/>
      <point x="481" y="0" type="line"/>
    </contour>
  </outline>
</glyph>
<glyph name="K" format="2">
  <advance width="1413"/>
  <unicode hex="004B"/>
  <anchor x="731" y="1525" name="Top"/>
  <anchor x="702" y="-70" name="bottom"/>
  <anchor x="731" y="1525" name="top"/>
  <outline>
    <contour>
      <point x="479" y="1460" type="line"/>
      <point x="141" y="1460" type="line"/>
      <point x="141" y="0" type="line"/>
      <point x="479" y="0" type="line"/>
    </contour>
    <contour>
      <point x="403" y="616" type="line"/>
      <point x="561" y="616" type="line" smooth="yes"/>
      <point x="623" y="616"/>
      <point x="657" y="602"/>
      <point x="681" y="564" type="curve"/>
      <point x="1011" y="64" type="line" smooth="yes"/>
      <point x="1037" y="24"/>
      <point x="1067" y="0"/>
      <point x="1143" y="0" type="curve" smooth="yes"/>
      <point x="1445" y="0" type="line"/>
      <point x="1005" y="676" type="line" smooth="yes"/>
      <point x="933" y="786"/>
      <point x="843" y="808"/>
      <point x="691" y="808" type="curve"/>
      <point x="717" y="750" type="line"/>
      <point x="831" y="750"/>
      <point x="905" y="776"/>
      <point x="977" y="874" type="curve"/>
      <point x="1409" y="1460" type="line"/>
      <point x="1115" y="1460" type="line" smooth="yes"/>
      <point x="1049" y="1460"/>
      <point x="1007" y="1442"/>
      <point x="969" y="1390" type="curve"/>
      <point x="641" y="922" type="line" smooth="yes"/>
      <point x="619" y="890"/>
      <point x="583" y="874"/>
      <point x="533" y="874" type="curve" smooth="yes"/>
      <point x="407" y="874" type="line"/>
    </contour>
  </outline>
</glyph>
<glyph name="L" format="2">
  <advance width="1050"/>
  <unicode hex="004C"/>
  <anchor x="334" y="1525" name="Top"/>
  <anchor x="555" y="-70" name="bottom"/>
  <anchor x="313" y="728" name="Bar"/>
  <anchor x="334" y="1525" name="top"/>
  <outline>
    <contour>
      <point x="479" y="1460" type="line"/>
      <point x="141" y="1460" type="line"/>
      <point x="141" y="0" type="line"/>
      <point x="479" y="0" type="line"/>
    </contour>
    <contour>
      <point x="449" y="282" type="line"/>
      <point x="449" y="0" type="line"/>
      <point x="1019" y="0" type="line"/>
      <point x="1019" y="282" type="line"/>
    </contour>
  </outline>
</glyph>
<glyph name="Q" format="2">
  <advance width="1630"/>
  <unicode hex="0051"/>
  <anchor x="818" y="1525" name="Top"/>
  <anchor x="818" y="1525" name="top"/>
  <anchor x="817" y="-70" name="bottom"/>
  <anchor x="-62" y="1120" name="onRight"/>
  <anchor x="819" y="728" name="Slash"/>
  <outline>
    <component base="O" xOffset="1"/>
    <contour>
      <point x="1228" y="198" type="line"/>
      <point x="856" y="168" type="line"/>
      <point x="1180" y="-194" type="line"/>
      <point x="1234" y="-252"/>
      <point x="1296" y="-270"/>
      <point x="1376" y="-270" type="curve" smooth="yes"/>
      <point x="1654" y="-270" type="line"/>
    </contour>
  </outline>
</glyph>
<glyph name="R" format="2">
  <advance width="1315"/>
  <unicode hex="0052"/>
  <anchor x="635" y="1525" name="Top"/>
  <anchor x="635" y="1525" name="top"/>
  <anchor x="696" y="-70" name="bottom"/>
  <outline>
    <contour>
      <point x="565" y="532" type="line" smooth="yes"/>
      <point x="617" y="532"/>
      <point x="641" y="516"/>
      <point x="663" y="480" type="curve"/>
      <point x="905" y="66" type="line" smooth="yes"/>
      <point x="929" y="24"/>
      <point x="971" y="0"/>
      <point x="1027" y="0" type="curve" smooth="yes"/>
      <point x="1333" y="0" type="line"/>
      <point x="1023" y="500" type="line" smooth="yes"/>
      <point x="949" y="618"/>
      <point x="823" y="652"/>
      <point x="699" y="652" type="curve"/>
      <point x="579" y="560" type="line"/>
      <point x="645" y="560" type="line" smooth="yes"/>
      <point x="999" y="560"/>
      <point x="1201" y="760"/>
      <point x="1201" y="1024" type="curve" smooth="yes"/>
      <point x="1201" y="1272"/>
      <point x="1037" y="1460"/>
      <point x="615" y="1460" type="curve" smooth="yes"/>
      <point x="141" y="1460" type="line"/>
      <point x="141" y="0" type="line"/>
      <point x="479" y="0" type="line"/>
      <point x="479" y="1196" type="line"/>
      <point x="615" y="1196" type="line" smooth="yes"/>
      <point x="789" y="1196"/>
      <point x="871" y="1120"/>
      <point x="871" y="998" type="curve" smooth="yes"/>
      <point x="871" y="874"/>
      <point x="799" y="776"/>
      <point x="615" y="776" type="curve" smooth="yes"/>
      <point x="365" y="776" type="line"/>
      <point x="321" y="532" type="line"/>
    </contour>
  </outline>
</glyph>
<glyph name="T" format="2">
  <advance width="1218"/>
  <unicode hex="0054"/>
  <anchor x="613" y="1525" name="Top"/>
  <anchor x="613" y="-70" name="bottom"/>
  <anchor x="652" y="728" name="Slash"/>
  <anchor x="613" y="1525" name="top"/>
  <outline>
    <contour>
      <point x="778" y="1380" type="line"/>
      <point x="440" y="1380" type="line"/>
      <point x="440" y="0" type="line"/>
      <point x="778" y="0" type="line"/>
    </contour>
    <contour>
      <point x="30" y="1460" type="line"/>
      <point x="30" y="1180" type="line"/>
      <point x="1188" y="1180" type="line"/>
      <point x="1188" y="1460" type="line"/>
    </contour>
  </outline>
</glyph>
<glyph name="U" format="2">
  <advance width="1498"/>
  <unicode hex="0055"/>
  <anchor x="749" y="1525" name="Top"/>
  <anchor x="749" y="1525" name="top"/>
  <anchor x="749" y="-70" name="bottom"/>
  <outline>
    <contour>
      <point x="749" y="280" type="curve" smooth="yes"/>
      <point x="567" y="280"/>
      <point x="461" y="398"/>
      <point x="461" y="598" type="curve" smooth="yes"/>
      <point x="461" y="1460" type="line"/>
      <point x="123" y="1460" type="line"/>
      <point x="123" y="598" type="line" smooth="yes"/>
      <point x="123" y="238"/>
      <point x="361" y="-16"/>
      <point x="749" y="-16" type="curve" smooth="yes"/>
      <point x="1137" y="-16"/>
      <point x="1375" y="238"/>
      <point x="1375" y="598" type="curve" smooth="yes"/>
      <point x="1375" y="1460" type="line"/>
      <point x="1037" y="1460" type="line"/>
      <point x="1037" y="598" type="line" smooth="yes"/>
      <point x="1037" y="398"/>
      <point x="931" y="280"/>
    </contour>
  </outline>
</glyph>
<glyph name="V" format="2">
  <advance width="1422"/>
  <unicode hex="0056"/>
  <anchor x="714" y="1525" name="Top"/>
  <anchor x="714" y="1525" name="top"/>
  <anchor x="711" y="-70" name="bottom"/>
  <outline>
    <contour>
      <point x="1448" y="1460" type="line"/>
      <point x="1174" y="1460" type="line" smooth="yes"/>
      <point x="1118" y="1460"/>
      <point x="1078" y="1422"/>
      <point x="1064" y="1384" type="curve" smooth="yes"/>
      <point x="784" y="630" type="line"/>
      <point x="720" y="462"/>
      <point x="674" y="194"/>
      <point x="668" y="0" type="curve"/>
      <point x="864" y="0" type="line"/>
    </contour>
    <contour>
      <point x="558" y="0" type="line"/>
      <point x="762" y="0" type="line"/>
      <point x="770" y="194"/>
      <point x="704" y="462"/>
      <point x="640" y="630" type="curve"/>
      <point x="358" y="1384" type="line"/>
      <point x="340" y="1428"/>
      <point x="304" y="1460"/>
      <point x="246" y="1460" type="curve" smooth="yes"/>
      <point x="-26" y="1460" type="line"/>
    </contour>
  </outline>
</glyph>
<glyph name="W" format="2">
  <advance width="2130"/>
  <unicode hex="0057"/>
  <guideline y="83"/>
  <anchor x="1064" y="1525" name="Top"/>
  <anchor x="1064" y="1525" name="top"/>
  <anchor x="1065" y="-70" name="bottom"/>
  <outline>
    <contour>
      <point x="1026" y="1460" type="line" smooth="yes"/>
      <point x="970" y="1460"/>
      <point x="928" y="1422"/>
      <point x="916" y="1384" type="curve" smooth="yes"/>
      <point x="680" y="650" type="line"/>
      <point x="622" y="480"/>
      <point x="590" y="194"/>
      <point x="584" y="0" type="curve"/>
      <point x="760" y="0" type="line"/>
      <point x="1038" y="882" type="line"/>
      <point x="1080" y="1006"/>
      <point x="1118" y="1238"/>
      <point x="1120" y="1364" type="curve"/>
      <point x="1014" y="1364" type="line"/>
      <point x="1016" y="1238"/>
      <point x="1054" y="1006"/>
      <point x="1096" y="882" type="curve"/>
      <point x="1370" y="0" type="line"/>
      <point x="1574" y="0" type="line"/>
      <point x="1566" y="194"/>
      <point x="1532" y="480"/>
      <point x="1472" y="650" type="curve"/>
      <point x="1238" y="1384" type="line"/>
      <point x="1220" y="1428"/>
      <point x="1184" y="1460"/>
      <point x="1126" y="1460" type="curve" smooth="yes"/>
    </contour>
    <contour>
      <point x="454" y="0" type="line"/>
      <point x="692" y="0" type="line"/>
      <point x="684" y="194"/>
      <point x="642" y="476"/>
      <point x="600" y="650" type="curve"/>
      <point x="400" y="1384" type="line" smooth="yes"/>
      <point x="388" y="1430"/>
      <point x="346" y="1460"/>
      <point x="288" y="1460" type="curve" smooth="yes"/>
      <point x="4" y="1460" type="line"/>
    </contour>
    <contour>
      <point x="2126" y="1460" type="line"/>
      <point x="1860" y="1460" type="line" smooth="yes"/>
      <point x="1804" y="1460"/>
      <point x="1760" y="1424"/>
      <point x="1750" y="1384" type="curve"/>
      <point x="1550" y="650" type="line"/>
      <point x="1508" y="478"/>
      <point x="1470" y="194"/>
      <point x="1464" y="0" type="curve"/>
      <point x="1676" y="0" type="line"/>
    </contour>
  </outline>
</glyph>
<glyph name="bracketleft" format="2">
  <advance width="641"/>
  <unicode hex="005B"/>
  <outline>
    <contour>
      <point x="598" y="1560" type="line"/>
      <point x="150" y="1560" type="line"/>
      <point x="150" y="1358" type="line"/>
      <point x="518" y="1358" type="line" smooth="yes"/>
      <point x="564" y="1358"/>
      <point x="598" y="1394"/>
      <point x="598" y="1436" type="curve" smooth="yes"/>
    </contour>
    <contour>
      <point x="598" y="-328" type="line"/>
      <point x="598" y="-204" type="line" smooth="yes"/>
      <point x="598" y="-162"/>
      <point x="564" y="-126"/>
      <point x="518" y="-126" type="curve" smooth="yes"/>
      <point x="150" y="-126" type="line"/>
      <point x="150" y="-328" type="line"/>
    </contour>
    <contour>
      <point x="408" y="1560" type="line"/>
      <point x="150" y="1560" type="line"/>
      <point x="150" y="-328" type="line"/>
      <point x="408" y="-328" type="line"/>
    </contour>
  </outline>
</glyph>
<glyph name="backslash" format="2">
  <advance width="958"/>
  <unicode hex="005C"/>
  <outline>
    <contour>
      <point x="613" y="16" type="line"/>
      <point x="641" y="-60"/>
      <point x="711" y="-100"/>
      <point x="775" y="-100" type="curve" smooth="yes"/>
      <point x="907" y="-100" type="line"/>
      <point x="339" y="1390" type="line" smooth="yes"/>
      <point x="313" y="1460"/>
      <point x="255" y="1500"/>
      <point x="183" y="1500" type="curve" smooth="yes"/>
      <point x="51" y="1500" type="line"/>
    </contour>
  </outline>
</glyph>
<glyph name="bracketright" format="2">
  <advance width="641"/>
  <unicode hex="005D"/>
  <outline>
    <contour>
      <point x="43" y="1436" type="line"/>
      <point x="43" y="1394"/>
      <point x="77" y="1358"/>
      <point x="123" y="1358" type="curve" smooth="yes"/>
      <point x="491" y="1358" type="line"/>
      <point x="491" y="1560" type="line"/>
      <point x="43" y="1560" type="line"/>
    </contour>
    <contour>
      <point x="491" y="-328" type="line"/>
      <point x="491" y="-126" type="line"/>
      <point x="123" y="-126" type="line" smooth="yes"/>
      <point x="77" y="-126"/>
      <point x="43" y="-162"/>
      <point x="43" y="-204" type="curve" smooth="yes"/>
      <point x="43" y="-328" type="line"/>
    </contour>
    <contour>
      <point x="233" y="-328" type="line"/>
      <point x="491" y="-328" type="line"/>
      <point x="491" y="1560" type="line"/>
      <point x="233" y="1560" type="line"/>
    </contour>
  </outline>
</glyph>
<glyph name="asciicircum" format="2">
  <advance width="1160"/>
  <unicode hex="005E"/>
  <outline>
    <contour>
      <point x="68" y="666" type="line"/>
      <point x="308" y="666" type="line" smooth="yes"/>
      <point x="348" y="666"/>
      <point x="374" y="687"/>
      <point x="386" y="716" type="curve" smooth="yes"/>
      <point x="526" y="1040" type="line" smooth="yes"/>
      <point x="589" y="1186"/>
      <point x="614" y="1288"/>
      <point x="616" y="1460" type="curve"/>
      <point x="474" y="1460" type="line"/>
    </contour>
    <contour>
      <point x="676" y="1460" type="line"/>
      <point x="542" y="1460" type="line"/>
      <point x="542" y="1288"/>
      <point x="566" y="1187"/>
      <point x="636" y="1040" type="curve" smooth="yes"/>
      <point x="790" y="716" type="line" smooth="yes"/>
      <point x="804" y="687"/>
      <point x="828" y="666"/>
      <point x="864" y="666" type="curve" smooth="yes"/>
      <point x="1092" y="666" type="line"/>
    </contour>
  </outline>
</glyph>
<glyph name="underscore" format="2">
  <advance width="946"/>
  <unicode hex="005F"/>
  <outline>
    <contour>
      <point x="79" y="-102" type="line"/>
      <point x="79" y="-304" type="line"/>
      <point x="867" y="-304" type="line"/>
      <point x="867" y="-102" type="line"/>
    </contour>
  </outline>
</glyph>
<glyph name="grave" format="2">
  <advance width="800"/>
  <unicode hex="0060"/>
  <anchor x="400" y="1120" name="_top"/>
  <outline>
    <contour>
      <point x="32" y="1476" type="line"/>
      <point x="292" y="1212" type="line"/>
      <point x="322" y="1180"/>
      <point x="346" y="1168"/>
      <point x="392" y="1168" type="curve" smooth="yes"/>
      <point x="568" y="1168" type="line"/>
      <point x="432" y="1414" type="line" smooth="yes"/>
      <point x="410" y="1454"/>
      <point x="384" y="1476"/>
      <point x="322" y="1476" type="curve" smooth="yes"/>
    </contour>
  </outline>
</glyph>
<glyph name="b" format="2">
  <advance width="1149"/>
  <unicode hex="0062"/>
  <anchor x="591" y="-70" name="bottom"/>
  <anchor x="692" y="1120" name="top"/>
  <anchor x="709" y="222" name="hook"/>
  <anchor x="259" y="1238" name="bar"/>
  <anchor x="338" y="1525" name="Top"/>
  <outline>
    <contour>
      <point x="311" y="0" type="line" smooth="yes"/>
      <point x="351" y="0"/>
      <point x="375" y="14"/>
      <point x="385" y="58" type="curve" smooth="yes"/>
      <point x="405" y="150" type="line"/>
      <point x="415" y="168" type="line"/>
      <point x="415" y="1500" type="line"/>
      <point x="105" y="1500" type="line"/>
      <point x="105" y="0" type="line"/>
    </contour>
    <contour>
      <point x="377" y="128" type="line"/>
      <point x="447" y="46"/>
      <point x="517" y="-16"/>
      <point x="654" y="-16" type="curve" smooth="yes" name="hr01"/>
      <point x="915" y="-16"/>
      <point x="1095" y="209"/>
      <point x="1095" y="545" type="curve" smooth="yes"/>
      <point x="1095" y="855"/>
      <point x="942" y="1056"/>
      <point x="706" y="1056" type="curve" smooth="yes"/>
      <point x="552" y="1056"/>
      <point x="437" y="970"/>
      <point x="345" y="852" type="curve"/>
      <point x="381" y="676" type="line"/>
      <point x="449" y="764"/>
      <point x="505" y="812"/>
      <point x="597" y="812" type="curve" smooth="yes"/>
      <point x="713" y="812"/>
      <point x="775" y="737"/>
      <point x="775" y="534" type="curve" smooth="yes"/>
      <point x="775" y="297"/>
      <point x="691" y="222"/>
      <point x="574" y="222" type="curve" smooth="yes"/>
      <point x="513" y="222"/>
      <point x="453" y="242"/>
      <point x="403" y="300" type="curve"/>
    </contour>
  </outline>
</glyph>
<glyph name="d" format="2">
  <advance width="1149"/>
  <unicode hex="0064"/>
  <anchor x="483" y="1120" name="top"/>
  <anchor x="1044" y="222" name="hook"/>
  <anchor x="889" y="1238" name="bar"/>
  <anchor x="817" y="1525" name="Top"/>
  <anchor x="601" y="-70" name="bottom"/>
  <outline>
    <contour>
      <point x="1044" y="0" type="line"/>
      <point x="1044" y="1500" type="line"/>
      <point x="734" y="1500" type="line"/>
      <point x="734" y="170" type="line"/>
      <point x="744" y="154" type="line"/>
      <point x="776" y="54" type="line" smooth="yes"/>
      <point x="788" y="18"/>
      <point x="814" y="0"/>
      <point x="852" y="0" type="curve" smooth="yes"/>
    </contour>
    <contour>
      <point x="796" y="914" type="line"/>
      <point x="720" y="998"/>
      <point x="644" y="1060"/>
      <point x="498" y="1060" type="curve" smooth="yes"/>
      <point x="234" y="1060"/>
      <point x="54" y="828"/>
      <point x="54" y="516" type="curve" smooth="yes"/>
      <point x="54" y="182"/>
      <point x="214" y="-16"/>
      <point x="430" y="-16" type="curve" smooth="yes" name="hr01"/>
      <point x="604" y="-16"/>
      <point x="712" y="74"/>
      <point x="804" y="192" type="curve"/>
      <point x="768" y="368" type="line"/>
      <point x="700" y="280"/>
      <point x="648" y="232"/>
      <point x="538" y="232" type="curve" smooth="yes"/>
      <point x="440" y="232"/>
      <point x="374" y="302"/>
      <point x="374" y="516" type="curve" smooth="yes"/>
      <point x="374" y="742"/>
      <point x="458" y="822"/>
      <point x="572" y="822" type="curve" smooth="yes"/>
      <point x="636" y="822"/>
      <point x="696" y="802"/>
      <point x="746" y="744" type="curve"/>
    </contour>
  </outline>
</glyph>
<glyph name="e" format="2">
  <advance width="1078"/>
  <unicode hex="0065"/>
  <anchor x="570" y="1120" name="top"/>
  <anchor x="575" y="-70" name="bottom"/>
  <anchor x="1022" y="222" name="hook"/>
  <outline>
    <contour>
      <point x="562" y="1056" type="curve" smooth="yes"/>
      <point x="246" y="1056"/>
      <point x="50" y="820"/>
      <point x="50" y="542" type="curve" smooth="yes"/>
      <point x="50" y="174"/>
      <point x="286" y="-16"/>
      <point x="576" y="-16" type="curve" smooth="yes"/>
      <point x="718" y="-16"/>
      <point x="894" y="14"/>
      <point x="1022" y="164" type="curve"/>
      <point x="932" y="280" type="line"/>
      <point x="920" y="298"/>
      <point x="900" y="308"/>
      <point x="876" y="308" type="curve" smooth="yes"/>
      <point x="802" y="308"/>
      <point x="748" y="226"/>
      <point x="604" y="226" type="curve" smooth="yes"/>
      <point x="450" y="226"/>
      <point x="356" y="318"/>
      <point x="356" y="542" type="curve" smooth="yes"/>
      <point x="356" y="728"/>
      <point x="422" y="832"/>
      <point x="568" y="832" type="curve" smooth="yes"/>
      <point x="702" y="832"/>
      <point x="750" y="736"/>
      <point x="750" y="646" type="curve"/>
      <point x="294" y="646" type="line"/>
      <point x="298" y="458" type="line"/>
      <point x="958" y="458" type="line" smooth="yes"/>
      <point x="1014" y="458"/>
      <point x="1028" y="482"/>
      <point x="1028" y="578" type="curve" smooth="yes"/>
      <point x="1028" y="880"/>
      <point x="836" y="1056"/>
    </contour>
  </outline>
</glyph>
<glyph name="f" format="2">
  <advance width="732"/>
  <unicode hex="0066"/>
  <anchor x="492" y="222" name="hook"/>
  <anchor x="526" y="1518" name="top"/>
  <anchor x="337" y="473" name="bar"/>
  <anchor x="457" y="1525" name="Top"/>
  <anchor x="337" y="-70" name="bottom"/>
  <outline>
    <contour>
      <point x="492" y="0" type="line"/>
      <point x="492" y="942" type="line"/>
      <point x="482" y="974" type="line"/>
      <point x="482" y="1084" type="line" smooth="yes"/>
      <point x="482" y="1216"/>
      <point x="542" y="1252"/>
      <point x="652" y="1252" type="curve" smooth="yes"/>
      <point x="686" y="1252"/>
      <point x="727" y="1268"/>
      <point x="729" y="1312" type="curve" smooth="yes"/>
      <point x="735" y="1470" type="line"/>
      <point x="689" y="1482"/>
      <point x="648" y="1488"/>
      <point x="598" y="1488" type="curve" smooth="yes"/>
      <point x="338" y="1488"/>
      <point x="182" y="1332"/>
      <point x="182" y="1094" type="curve" smooth="yes"/>
      <point x="182" y="0" type="line"/>
    </contour>
    <contour>
      <point x="725" y="818" type="line"/>
      <point x="725" y="1040" type="line"/>
      <point x="36" y="1040" type="line"/>
      <point x="36" y="912" type="line" smooth="yes"/>
      <point x="36" y="866"/>
      <point x="68" y="844"/>
      <point x="114" y="834" type="curve" smooth="yes"/>
      <point x="238" y="808" type="line"/>
      <point x="278" y="818" type="line"/>
    </contour>
  </outline>
</glyph>
<glyph name="g" format="2">
  <advance width="1071"/>
  <unicode hex="0067"/>
  <guideline x="553"/>
  <anchor x="524" y="1120" name="top"/>
  <anchor x="577" y="-421" name="bottom"/>
  <outline>
    <contour>
      <point x="500" y="1058" type="curve" smooth="yes"/>
      <point x="258" y="1058"/>
      <point x="72" y="930"/>
      <point x="72" y="720" type="curve" smooth="yes"/>
      <point x="72" y="512"/>
      <point x="258" y="382"/>
      <point x="500" y="382" type="curve" smooth="yes"/>
      <point x="736" y="382"/>
      <point x="920" y="512"/>
      <point x="920" y="720" type="curve" smooth="yes" name="hr01"/>
      <point x="920" y="930"/>
      <point x="736" y="1058"/>
    </contour>
    <contour>
      <point x="500" y="582" type="curve" smooth="yes"/>
      <point x="398" y="582"/>
      <point x="354" y="638"/>
      <point x="354" y="712" type="curve" smooth="yes"/>
      <point x="354" y="792"/>
      <point x="398" y="840"/>
      <point x="500" y="840" type="curve" smooth="yes"/>
      <point x="602" y="840"/>
      <point x="646" y="792"/>
      <point x="646" y="712" type="curve" smooth="yes"/>
      <point x="646" y="636"/>
      <point x="602" y="582"/>
    </contour>
    <contour>
      <point x="282" y="456" type="line"/>
      <point x="162" y="414"/>
      <point x="108" y="326"/>
      <point x="108" y="256" type="curve" smooth="yes"/>
      <point x="108" y="-78"/>
      <point x="740" y="134"/>
      <point x="740" y="-36" type="curve" smooth="yes"/>
      <point x="740" y="-92"/>
      <point x="694" y="-134"/>
      <point x="516" y="-134" type="curve" smooth="yes" name="hr02"/>
      <point x="350" y="-134"/>
      <point x="306" y="-96"/>
      <point x="306" y="-42" type="curve" smooth="yes" name="hr03"/>
      <point x="306" y="24"/>
      <point x="380" y="70"/>
      <point x="462" y="96" type="curve"/>
      <point x="254" y="124" type="line"/>
      <point x="122" y="92"/>
      <point x="38" y="26"/>
      <point x="38" y="-84" type="curve" smooth="yes"/>
      <point x="38" y="-224"/>
      <point x="186" y="-356"/>
      <point x="510" y="-356" type="curve" smooth="yes"/>
      <point x="840" y="-356"/>
      <point x="1026" y="-170"/>
      <point x="1026" y="18" type="curve" smooth="yes"/>
      <point x="1026" y="422"/>
      <point x="374" y="212"/>
      <point x="374" y="346" type="curve" smooth="yes"/>
      <point x="374" y="370"/>
      <point x="396" y="390"/>
      <point x="456" y="410" type="curve"/>
    </contour>
    <contour>
      <point x="778" y="776" type="line" name="hr04"/>
      <point x="982" y="824" type="line"/>
      <point x="1028" y="834"/>
      <point x="1046" y="854"/>
      <point x="1046" y="890" type="curve" smooth="yes"/>
      <point x="1046" y="1008" type="line"/>
      <point x="644" y="1008" type="line"/>
    </contour>
  </outline>
</glyph>
<glyph name="h" format="2">
  <advance width="1140"/>
  <unicode hex="0068"/>
  <anchor x="594" y="728" name="Slash"/>
  <anchor x="336" y="1525" name="Top"/>
  <anchor x="336" y="1525" name="top"/>
  <anchor x="575" y="-70" name="bottom"/>
  <outline>
    <contour>
      <point x="415" y="0" type="line"/>
      <point x="415" y="1500" type="line"/>
      <point x="105" y="1500" type="line"/>
      <point x="105" y="0" type="line"/>
    </contour>
    <contour>
      <point x="1045" y="0" type="line"/>
      <point x="1045" y="660" type="line"/>
      <point x="735" y="660" type="line"/>
      <point x="735" y="0" type="line"/>
    </contour>
    <contour>
      <point x="1045" y="660" type="line"/>
      <point x="1045" y="888"/>
      <point x="919" y="1056"/>
      <point x="693" y="1056" type="curve" smooth="yes"/>
      <point x="519" y="1056"/>
      <point x="423" y="968"/>
      <point x="321" y="856" type="curve"/>
      <point x="357" y="676" type="line"/>
      <point x="427" y="756"/>
      <point x="505" y="812"/>
      <point x="597" y="812" type="curve" smooth="yes"/>
      <point x="687" y="812"/>
      <point x="735" y="756"/>
      <point x="735" y="660" type="curve"/>
    </contour>
  </outline>
</glyph>
<glyph name="i" format="2">
  <advance width="534"/>
  <unicode hex="0069"/>
  <anchor x="422" y="222" name="hook"/>
  <anchor x="267" y="1525" name="Top"/>
  <anchor x="267" y="1525" name="top"/>
  <anchor x="267" y="-70" name="bottom"/>
  <outline>
    <contour>
      <point x="112" y="1040" type="line"/>
      <point x="112" y="0" type="line"/>
      <point x="422" y="0" type="line"/>
      <point x="422" y="1040" type="line"/>
    </contour>
    <contour>
      <point x="454" y="1320" type="curve" smooth="yes"/>
      <point x="454" y="1424"/>
      <point x="368" y="1508"/>
      <point x="264" y="1508" type="curve" smooth="yes"/>
      <point x="164" y="1508"/>
      <point x="80" y="1424"/>
      <point x="80" y="1320" type="curve" smooth="yes"/>
      <point x="80" y="1218"/>
      <point x="164" y="1134"/>
      <point x="264" y="1134" type="curve" smooth="yes"/>
      <point x="368" y="1134"/>
      <point x="454" y="1218"/>
    </contour>
  </outline>
  <guideline angle="90" x="276" y="0"/>
</glyph>
<glyph name="l" format="2">
  <advance width="520"/>
  <unicode hex="006C"/>
  <anchor x="264" y="1525" name="Top"/>
  <anchor x="415" y="222" name="hook"/>
  <anchor x="263" y="-70" name="bottom"/>
  <anchor x="270" y="756" name="bar"/>
  <anchor x="264" y="1525" name="top"/>
  <outline>
    <contour>
      <point x="105" y="1500" type="line"/>
      <point x="105" y="0" type="line"/>
      <point x="415" y="0" type="line"/>
      <point x="415" y="1500" type="line"/>
    </contour>
  </outline>
</glyph>
<glyph name="m" format="2">
  <advance width="1702"/>
  <unicode hex="006D"/>
  <anchor x="863" y="-70" name="bottom"/>
  <anchor x="887" y="1120" name="top"/>
  <anchor x="1607" y="222" name="hook"/>
  <outline>
    <contour>
      <point x="415" y="0" type="line"/>
      <point x="415" y="870" type="line"/>
      <point x="405" y="886" type="line"/>
      <point x="373" y="986" type="line" smooth="yes"/>
      <point x="361" y="1022"/>
      <point x="335" y="1040"/>
      <point x="297" y="1040" type="curve" smooth="yes"/>
      <point x="105" y="1040" type="line"/>
      <point x="105" y="0" type="line"/>
    </contour>
    <contour>
      <point x="1013" y="0" type="line"/>
      <point x="1013" y="660" type="line"/>
      <point x="703" y="660" type="line"/>
      <point x="703" y="0" type="line"/>
    </contour>
    <contour>
      <point x="943" y="660" type="line"/>
      <point x="943" y="878"/>
      <point x="855" y="1056"/>
      <point x="657" y="1056" type="curve" smooth="yes" name="hr01"/>
      <point x="497" y="1056"/>
      <point x="413" y="962"/>
      <point x="321" y="858" type="curve"/>
      <point x="357" y="676" type="line"/>
      <point x="413" y="756"/>
      <point x="483" y="812"/>
      <point x="565" y="812" type="curve" smooth="yes"/>
      <point x="655" y="812"/>
      <point x="703" y="774"/>
      <point x="703" y="660" type="curve"/>
    </contour>
    <contour>
      <point x="1607" y="0" type="line"/>
      <point x="1607" y="660" type="line"/>
      <point x="1297" y="660" type="line"/>
      <point x="1297" y="0" type="line"/>
    </contour>
    <contour>
      <point x="1607" y="660" type="line"/>
      <point x="1607" y="910"/>
      <point x="1477" y="1056"/>
      <point x="1239" y="1056" type="curve" smooth="yes"/>
      <point x="1053" y="1056"/>
      <point x="857" y="952"/>
      <point x="857" y="660" type="curve"/>
      <point x="1013" y="660" type="line"/>
      <point x="1013" y="758"/>
      <point x="1075" y="812"/>
      <point x="1159" y="812" type="curve" smooth="yes"/>
      <point x="1251" y="812"/>
      <point x="1297" y="762"/>
      <point x="1297" y="660" type="curve"/>
    </contour>
  </outline>
</glyph>
<glyph name="n" format="2">
  <advance width="1140"/>
  <unicode hex="006E"/>
  <anchor x="583" y="1120" name="top"/>
  <anchor x="1045" y="222" name="hook"/>
  <anchor x="575" y="-70" name="bottom"/>
  <outline>
    <contour>
      <point x="415" y="0" type="line"/>
      <point x="415" y="870" type="line"/>
      <point x="405" y="886" type="line"/>
      <point x="373" y="986" type="line" smooth="yes"/>
      <point x="361" y="1022"/>
      <point x="335" y="1040"/>
      <point x="297" y="1040" type="curve" smooth="yes"/>
      <point x="105" y="1040" type="line"/>
      <point x="105" y="0" type="line"/>
    </contour>
    <contour>
      <point x="1045" y="0" type="line"/>
      <point x="1045" y="660" type="line"/>
      <point x="735" y="660" type="line"/>
      <point x="735" y="0" type="line"/>
    </contour>
    <contour>
      <point x="1045" y="660" type="line"/>
      <point x="1045" y="888"/>
      <point x="919" y="1056"/>
      <point x="693" y="1056" type="curve" smooth="yes" name="hr01"/>
      <point x="519" y="1056"/>
      <point x="423" y="968"/>
      <point x="321" y="856" type="curve"/>
      <point x="357" y="676" type="line"/>
      <point x="427" y="756"/>
      <point x="505" y="812"/>
      <point x="597" y="812" type="curve" smooth="yes"/>
      <point x="687" y="812"/>
      <point x="735" y="756"/>
      <point x="735" y="660" type="curve"/>
      <point x="735" y="620" type="line"/>
      <point x="1045" y="620" type="line"/>
    </contour>
  </outline>
  <guideline angle="90" x="-1350" y="0"/>
</glyph>
<glyph name="p" format="2">
  <advance width="1150"/>
  <unicode hex="0070"/>
  <anchor x="846" y="222" name="hook"/>
  <anchor x="263" y="-138" name="bar"/>
  <anchor x="733" y="139" name="tick"/>
  <anchor x="553" y="1120" name="top"/>
  <anchor x="724" y="-70" name="bottom"/>
  <outline>
    <contour>
      <point x="415" y="-328" type="line"/>
      <point x="415" y="870" type="line"/>
      <point x="405" y="886" type="line"/>
      <point x="373" y="986" type="line" smooth="yes"/>
      <point x="361" y="1022"/>
      <point x="335" y="1040"/>
      <point x="297" y="1040" type="curve" smooth="yes"/>
      <point x="105" y="1040" type="line"/>
      <point x="105" y="-328" type="line"/>
    </contour>
    <contour>
      <point x="1095" y="528" type="curve" smooth="yes"/>
      <point x="1095" y="862"/>
      <point x="935" y="1060"/>
      <point x="719" y="1060" type="curve" smooth="yes" name="hr01"/>
      <point x="545" y="1060"/>
      <point x="437" y="970"/>
      <point x="345" y="852" type="curve"/>
      <point x="381" y="676" type="line"/>
      <point x="449" y="764"/>
      <point x="501" y="812"/>
      <point x="611" y="812" type="curve" smooth="yes"/>
      <point x="709" y="812"/>
      <point x="775" y="742"/>
      <point x="775" y="528" type="curve" smooth="yes"/>
      <point x="775" y="302"/>
      <point x="691" y="222"/>
      <point x="577" y="222" type="curve" smooth="yes"/>
      <point x="513" y="222"/>
      <point x="453" y="242"/>
      <point x="403" y="300" type="curve"/>
      <point x="353" y="130" type="line"/>
      <point x="429" y="46"/>
      <point x="505" y="-16"/>
      <point x="651" y="-16" type="curve" smooth="yes"/>
      <point x="915" y="-16"/>
      <point x="1095" y="216"/>
    </contour>
  </outline>
</glyph>
<glyph name="r" format="2">
  <advance width="763"/>
  <unicode hex="0072"/>
  <anchor x="423" y="1120" name="top"/>
  <anchor x="265" y="-70" name="bottom"/>
  <anchor x="415" y="222" name="hook"/>
  <anchor x="267" y="473" name="bar"/>
  <outline>
    <contour>
      <point x="763" y="1026" type="line"/>
      <point x="735" y="1048"/>
      <point x="697" y="1060"/>
      <point x="649" y="1060" type="curve" smooth="yes"/>
      <point x="487" y="1060"/>
      <point x="383" y="902"/>
      <point x="309" y="682" type="curve"/>
      <point x="375" y="516" type="line"/>
      <point x="423" y="660"/>
      <point x="467" y="756"/>
      <point x="592" y="756" type="curve" smooth="yes"/>
      <point x="623" y="756"/>
      <point x="673" y="748"/>
      <point x="695" y="748" type="curve" smooth="yes" name="hr01"/>
      <point x="721" y="748"/>
      <point x="737" y="758"/>
      <point x="743" y="788" type="curve"/>
    </contour>
    <contour>
      <point x="415" y="0" type="line"/>
      <point x="415" y="810" type="line"/>
      <point x="405" y="826" type="line"/>
      <point x="379" y="964" type="line" smooth="yes"/>
      <point x="369" y="1020"/>
      <point x="351" y="1040"/>
      <point x="289" y="1040" type="curve" smooth="yes"/>
      <point x="105" y="1040" type="line"/>
      <point x="105" y="0" type="line"/>
    </contour>
  </outline>
</glyph>
<glyph name="s" format="2">
  <advance width="891"/>
  <unicode hex="0073"/>
  <anchor x="462" y="1120" name="top"/>
  <anchor x="426" y="-70" name="bottom"/>
  <anchor x="819" y="222" name="hook"/>
  <outline>
    <contour>
      <point x="834" y="920" type="line"/>
      <point x="758" y="998"/>
      <point x="626" y="1056"/>
      <point x="476" y="1056" type="curve" smooth="yes"/>
      <point x="202" y="1056"/>
      <point x="66" y="902"/>
      <point x="66" y="724" type="curve" smooth="yes"/>
      <point x="66" y="342"/>
      <point x="550" y="442"/>
      <point x="550" y="284" type="curve" smooth="yes"/>
      <point x="550" y="244"/>
      <point x="516" y="202"/>
      <point x="420" y="202" type="curve" smooth="yes"/>
      <point x="284" y="202"/>
      <point x="254" y="276"/>
      <point x="182" y="276" type="curve" smooth="yes"/>
      <point x="144" y="276"/>
      <point x="120" y="260"/>
      <point x="104" y="232" type="curve" smooth="yes"/>
      <point x="32" y="112" type="line"/>
      <point x="112" y="40"/>
      <point x="264" y="-16"/>
      <point x="404" y="-16" type="curve" smooth="yes"/>
      <point x="688" y="-16"/>
      <point x="840" y="132"/>
      <point x="840" y="340" type="curve" smooth="yes"/>
      <point x="840" y="676"/>
      <point x="360" y="604"/>
      <point x="360" y="750" type="curve" smooth="yes"/>
      <point x="360" y="800"/>
      <point x="404" y="828"/>
      <point x="482" y="828" type="curve" smooth="yes"/>
      <point x="592" y="828"/>
      <point x="646" y="770"/>
      <point x="704" y="770" type="curve" smooth="yes"/>
      <point x="732" y="770"/>
      <point x="748" y="780"/>
      <point x="764" y="806" type="curve" smooth="yes"/>
    </contour>
  </outline>
</glyph>
<glyph name="t" format="2">
  <advance width="768"/>
  <unicode hex="0074"/>
  <anchor x="467" y="-70" name="bottom"/>
  <anchor x="438" y="728" name="Slash"/>
  <anchor x="330" y="473" name="bar"/>
  <anchor x="371" y="1457" name="top"/>
  <outline>
    <contour>
      <point x="172" y="962" type="line"/>
      <point x="172" y="292" type="line" smooth="yes"/>
      <point x="172" y="106"/>
      <point x="280" y="-16"/>
      <point x="476" y="-16" type="curve" smooth="yes"/>
      <point x="582" y="-16"/>
      <point x="686" y="14"/>
      <point x="766" y="74" type="curve"/>
      <point x="672" y="228" type="line" smooth="yes"/>
      <point x="660" y="248"/>
      <point x="650" y="256"/>
      <point x="632" y="256" type="curve" smooth="yes"/>
      <point x="606" y="256"/>
      <point x="596" y="236"/>
      <point x="550" y="236" type="curve" smooth="yes"/>
      <point x="506" y="236"/>
      <point x="482" y="270"/>
      <point x="482" y="314" type="curve" smooth="yes"/>
      <point x="482" y="1338" type="line"/>
      <point x="320" y="1338" type="line" smooth="yes"/>
      <point x="284" y="1338"/>
      <point x="260" y="1320"/>
      <point x="252" y="1288" type="curve" smooth="yes"/>
    </contour>
    <contour>
      <point x="268" y="1040" type="line"/>
      <point x="228" y="1050" type="line"/>
      <point x="26" y="1008" type="line"/>
      <point x="26" y="882" type="line" smooth="yes"/>
      <point x="26" y="840"/>
      <point x="52" y="818"/>
      <point x="84" y="818" type="curve" smooth="yes"/>
      <point x="739" y="818" type="line"/>
      <point x="739" y="1040" type="line"/>
    </contour>
  </outline>
</glyph>
<glyph name="u" format="2">
  <advance width="1140"/>
  <unicode hex="0075"/>
  <anchor x="570" y="1120" name="top"/>
  <anchor x="1035" y="222" name="hook"/>
  <anchor x="599" y="-70" name="bottom"/>
  <outline>
    <contour>
      <point x="725" y="1040" type="line"/>
      <point x="725" y="170" type="line"/>
      <point x="735" y="154" type="line"/>
      <point x="767" y="54" type="line" smooth="yes"/>
      <point x="779" y="18"/>
      <point x="805" y="0"/>
      <point x="843" y="0" type="curve" smooth="yes"/>
      <point x="1035" y="0" type="line"/>
      <point x="1035" y="1040" type="line"/>
    </contour>
    <contour>
      <point x="95" y="1040" type="line"/>
      <point x="95" y="380" type="line"/>
      <point x="405" y="380" type="line"/>
      <point x="405" y="1040" type="line"/>
    </contour>
    <contour>
      <point x="95" y="380" type="line"/>
      <point x="95" y="152"/>
      <point x="221" y="-16"/>
      <point x="447" y="-16" type="curve" smooth="yes" name="hr01"/>
      <point x="621" y="-16"/>
      <point x="717" y="72"/>
      <point x="819" y="184" type="curve"/>
      <point x="783" y="364" type="line"/>
      <point x="713" y="284"/>
      <point x="635" y="228"/>
      <point x="543" y="228" type="curve" smooth="yes"/>
      <point x="453" y="228"/>
      <point x="405" y="284"/>
      <point x="405" y="380" type="curve"/>
    </contour>
  </outline>
</glyph>
<glyph name="v" format="2">
  <advance width="1078"/>
  <unicode hex="0076"/>
  <anchor x="767" y="222" name="hook"/>
  <anchor x="539" y="1120" name="top"/>
  <anchor x="539" y="-70" name="bottom"/>
  <outline>
    <contour>
      <point x="398" y="0" type="line"/>
      <point x="590" y="0" type="line"/>
      <point x="566" y="188"/>
      <point x="544" y="356"/>
      <point x="484" y="540" type="curve" smooth="yes"/>
      <point x="340" y="984" type="line" smooth="yes"/>
      <point x="330" y="1016"/>
      <point x="298" y="1040"/>
      <point x="254" y="1040" type="curve" smooth="yes"/>
      <point x="-4" y="1040" type="line"/>
    </contour>
    <contour>
      <point x="1082" y="1040" type="line"/>
      <point x="836" y="1040" type="line" smooth="yes"/>
      <point x="796" y="1040"/>
      <point x="764" y="1016"/>
      <point x="754" y="984" type="curve"/>
      <point x="604" y="540" type="line" smooth="yes"/>
      <point x="542" y="354"/>
      <point x="518" y="188"/>
      <point x="496" y="0" type="curve"/>
      <point x="680" y="0" type="line"/>
    </contour>
  </outline>
</glyph>
<glyph name="w" format="2">
  <advance width="1636"/>
  <unicode hex="0077"/>
  <anchor x="819" y="1120" name="top"/>
  <anchor x="818" y="-70" name="bottom"/>
  <outline>
    <contour>
      <point x="327" y="0" type="line"/>
      <point x="567" y="0" type="line" smooth="yes"/>
      <point x="601" y="0"/>
      <point x="623" y="18"/>
      <point x="633" y="54" type="curve"/>
      <point x="783" y="550" type="line" smooth="yes"/>
      <point x="821" y="676"/>
      <point x="837" y="802"/>
      <point x="849" y="928" type="curve"/>
      <point x="787" y="928" type="line"/>
      <point x="799" y="802"/>
      <point x="815" y="678"/>
      <point x="853" y="552" type="curve" smooth="yes"/>
      <point x="1001" y="54" type="line"/>
      <point x="1011" y="16"/>
      <point x="1031" y="0"/>
      <point x="1057" y="0" type="curve" smooth="yes"/>
      <point x="1309" y="0" type="line"/>
      <point x="1631" y="1040" type="line"/>
      <point x="1395" y="1040" type="line" smooth="yes"/>
      <point x="1355" y="1040"/>
      <point x="1323" y="1016"/>
      <point x="1313" y="984" type="curve"/>
      <point x="1203" y="540" type="line"/>
      <point x="1155" y="350"/>
      <point x="1137" y="188"/>
      <point x="1125" y="0" type="curve"/>
      <point x="1209" y="0" type="line"/>
      <point x="1199" y="188"/>
      <point x="1155" y="354"/>
      <point x="1103" y="540" type="curve" smooth="yes"/>
      <point x="979" y="984" type="line"/>
      <point x="969" y="1016"/>
      <point x="937" y="1040"/>
      <point x="893" y="1040" type="curve" smooth="yes"/>
      <point x="755" y="1040" type="line" smooth="yes"/>
      <point x="715" y="1040"/>
      <point x="683" y="1016"/>
      <point x="673" y="984" type="curve" smooth="yes"/>
      <point x="543" y="540" type="line"/>
      <point x="487" y="352"/>
      <point x="443" y="188"/>
      <point x="421" y="0" type="curve"/>
      <point x="519" y="0" type="line"/>
      <point x="505" y="188"/>
      <point x="487" y="352"/>
      <point x="443" y="540" type="curve" smooth="yes"/>
      <point x="339" y="984" type="line"/>
      <point x="329" y="1016"/>
      <point x="297" y="1040"/>
      <point x="253" y="1040" type="curve" smooth="yes"/>
      <point x="5" y="1040" type="line"/>
    </contour>
  </outline>
</glyph>
<glyph name="x" format="2">
  <advance width="1088"/>
  <unicode hex="0078"/>
  <anchor x="947" y="222" name="hook"/>
  <anchor x="542" y="1120" name="top"/>
  <anchor x="545" y="-70" name="bottom"/>
  <outline>
    <contour>
      <point x="363" y="500" type="line"/>
      <point x="681" y="500" type="line"/>
      <point x="379" y="1002" type="line" smooth="yes"/>
      <point x="363" y="1030"/>
      <point x="347" y="1040"/>
      <point x="303" y="1040" type="curve" smooth="yes"/>
      <point x="5" y="1040" type="line"/>
    </contour>
    <contour>
      <point x="1083" y="1040" type="line"/>
      <point x="799" y="1040" type="line" smooth="yes"/>
      <point x="769" y="1040"/>
      <point x="749" y="1026"/>
      <point x="731" y="996" type="curve" smooth="yes"/>
      <point x="599" y="776" type="line"/>
      <point x="545" y="688"/>
      <point x="543" y="608"/>
      <point x="541" y="500" type="curve"/>
      <point x="715" y="500" type="line"/>
    </contour>
    <contour>
      <point x="725" y="592" type="line"/>
      <point x="403" y="592" type="line"/>
      <point x="713" y="56" type="line"/>
      <point x="729" y="26"/>
      <point x="755" y="0"/>
      <point x="799" y="0" type="curve" smooth="yes"/>
      <point x="1097" y="0" type="line"/>
    </contour>
    <contour>
      <point x="-9" y="0" type="line"/>
      <point x="267" y="0" type="line" smooth="yes"/>
      <point x="307" y="0"/>
      <point x="331" y="28"/>
      <point x="349" y="56" type="curve" smooth="yes"/>
      <point x="501" y="304" type="line" smooth="yes"/>
      <point x="543" y="372"/>
      <point x="553" y="484"/>
      <point x="555" y="592" type="curve"/>
      <point x="373" y="592" type="line"/>
    </contour>
  </outline>
</glyph>
<glyph name="y" format="2">
  <advance width="1076"/>
  <unicode hex="0079"/>
  <anchor x="562" y="1120" name="top"/>
  <anchor x="858" y="-70" name="bottom"/>
  <outline>
    <contour>
      <point x="446" y="0" type="line"/>
      <point x="614" y="0" type="line"/>
      <point x="602" y="190"/>
      <point x="586" y="380"/>
      <point x="520" y="558" type="curve"/>
      <point x="350" y="984" type="line" smooth="yes"/>
      <point x="338" y="1014"/>
      <point x="314" y="1040"/>
      <point x="266" y="1040" type="curve" smooth="yes"/>
      <point x="-8" y="1040" type="line"/>
    </contour>
    <contour>
      <point x="1090" y="1040" type="line"/>
      <point x="840" y="1040" type="line" smooth="yes"/>
      <point x="804" y="1040"/>
      <point x="770" y="1016"/>
      <point x="758" y="984" type="curve" smooth="yes"/>
      <point x="604" y="560" type="line"/>
      <point x="566" y="460"/>
      <point x="534" y="354"/>
      <point x="520" y="250" type="curve"/>
      <point x="450" y="192" type="line"/>
      <point x="206" y="-328" type="line"/>
      <point x="438" y="-328" type="line" smooth="yes"/>
      <point x="496" y="-328"/>
      <point x="518" y="-308"/>
      <point x="536" y="-266" type="curve" smooth="yes"/>
    </contour>
  </outline>
</glyph>
<glyph name="z" format="2">
  <advance width="932"/>
  <unicode hex="007A"/>
  <anchor x="490" y="1120" name="top"/>
  <anchor x="462" y="-70" name="bottom"/>
  <anchor x="786" y="222" name="hook"/>
  <outline>
    <contour>
      <point x="876" y="1040" type="line"/>
      <point x="74" y="1040" type="line"/>
      <point x="74" y="800" type="line"/>
      <point x="600" y="800" type="line"/>
      <point x="542" y="826" type="line"/>
      <point x="86" y="238" type="line" smooth="yes"/>
      <point x="60" y="204"/>
      <point x="46" y="158"/>
      <point x="46" y="132" type="curve" smooth="yes"/>
      <point x="46" y="0" type="line"/>
      <point x="866" y="0" type="line"/>
      <point x="866" y="240" type="line"/>
      <point x="338" y="240" type="line"/>
      <point x="380" y="208" type="line"/>
      <point x="836" y="794" type="line"/>
      <point x="860" y="820"/>
      <point x="876" y="866"/>
      <point x="876" y="910" type="curve" smooth="yes"/>
    </contour>
  </outline>
</glyph>
<glyph name="braceleft" format="2">
  <advance width="621"/>
  <unicode hex="007B"/>
  <guideline y="630"/>
  <outline>
    <contour>
      <point x="152" y="838" type="curve" smooth="yes"/>
      <point x="152" y="760"/>
      <point x="126" y="706"/>
      <point x="46" y="706" type="curve"/>
      <point x="46" y="526" type="line"/>
      <point x="172" y="604" type="line"/>
      <point x="330" y="604"/>
      <point x="414" y="718"/>
      <point x="414" y="842" type="curve" smooth="yes"/>
      <point x="414" y="960"/>
      <point x="386" y="1070"/>
      <point x="386" y="1216" type="curve" smooth="yes" name="hr01"/>
      <point x="386" y="1304"/>
      <point x="424" y="1358"/>
      <point x="508" y="1358" type="curve"/>
      <point x="508" y="1358" type="line"/>
      <point x="530" y="1358"/>
      <point x="572" y="1376"/>
      <point x="572" y="1420" type="curve" smooth="yes"/>
      <point x="572" y="1560" type="line"/>
      <point x="520" y="1560" type="line" smooth="yes"/>
      <point x="238" y="1560"/>
      <point x="116" y="1416"/>
      <point x="116" y="1196" type="curve" smooth="yes"/>
      <point x="116" y="1074"/>
      <point x="152" y="954"/>
    </contour>
    <contour>
      <point x="152" y="394" type="curve" smooth="yes" name="hr02"/>
      <point x="152" y="278"/>
      <point x="116" y="158"/>
      <point x="116" y="36" type="curve" smooth="yes"/>
      <point x="116" y="-184"/>
      <point x="238" y="-328"/>
      <point x="520" y="-328" type="curve" smooth="yes" name="hr03"/>
      <point x="572" y="-328" type="line"/>
      <point x="572" y="-188" type="line" smooth="yes"/>
      <point x="572" y="-144"/>
      <point x="530" y="-126"/>
      <point x="508" y="-126" type="curve"/>
      <point x="508" y="-126" type="line"/>
      <point x="424" y="-126"/>
      <point x="386" y="-72"/>
      <point x="386" y="16" type="curve" smooth="yes"/>
      <point x="386" y="162"/>
      <point x="414" y="272"/>
      <point x="414" y="390" type="curve" smooth="yes"/>
      <point x="414" y="514"/>
      <point x="330" y="628"/>
      <point x="172" y="628" type="curve" name="hr04"/>
      <point x="46" y="706" type="line"/>
      <point x="46" y="526" type="line"/>
      <point x="126" y="526"/>
      <point x="152" y="472"/>
    </contour>
  </outline>
</glyph>
<glyph name="bar" format="2">
  <advance width="540"/>
  <unicode hex="007C"/>
  <outline>
    <contour>
      <point x="150" y="-339" type="line"/>
      <point x="390" y="-339" type="line"/>
      <point x="390" y="1560" type="line"/>
      <point x="150" y="1560" type="line"/>
    </contour>
  </outline>
</glyph>
<glyph name="braceright" format="2">
  <advance width="621"/>
  <unicode hex="007D"/>
  <guideline y="630"/>
  <outline>
    <contour>
      <point x="469" y="838" type="curve" smooth="yes"/>
      <point x="469" y="954"/>
      <point x="505" y="1074"/>
      <point x="505" y="1196" type="curve" smooth="yes" name="hr01"/>
      <point x="505" y="1416"/>
      <point x="383" y="1560"/>
      <point x="101" y="1560" type="curve" smooth="yes"/>
      <point x="49" y="1560" type="line"/>
      <point x="49" y="1420" type="line" smooth="yes"/>
      <point x="49" y="1376"/>
      <point x="91" y="1358"/>
      <point x="113" y="1358" type="curve"/>
      <point x="113" y="1358" type="line"/>
      <point x="197" y="1358"/>
      <point x="235" y="1304"/>
      <point x="235" y="1216" type="curve" smooth="yes"/>
      <point x="235" y="1070"/>
      <point x="207" y="960"/>
      <point x="207" y="842" type="curve" smooth="yes" name="hr02"/>
      <point x="207" y="718"/>
      <point x="291" y="604"/>
      <point x="449" y="604" type="curve"/>
      <point x="575" y="526" type="line"/>
      <point x="575" y="706" type="line"/>
      <point x="495" y="706"/>
      <point x="469" y="760"/>
    </contour>
    <contour>
      <point x="469" y="394" type="curve" smooth="yes"/>
      <point x="469" y="472"/>
      <point x="495" y="526"/>
      <point x="575" y="526" type="curve"/>
      <point x="575" y="706" type="line"/>
      <point x="449" y="628" type="line"/>
      <point x="291" y="628"/>
      <point x="207" y="514"/>
      <point x="207" y="390" type="curve" smooth="yes"/>
      <point x="207" y="272"/>
      <point x="235" y="162"/>
      <point x="235" y="16" type="curve" smooth="yes"/>
      <point x="235" y="-72"/>
      <point x="197" y="-126"/>
      <point x="113" y="-126" type="curve" name="hr03"/>
      <point x="113" y="-126" type="line"/>
      <point x="91" y="-126"/>
      <point x="49" y="-144"/>
      <point x="49" y="-188" type="curve" smooth="yes"/>
      <point x="49" y="-328" type="line"/>
      <point x="101" y="-328" type="line" smooth="yes"/>
      <point x="383" y="-328"/>
      <point x="505" y="-184"/>
      <point x="505" y="36" type="curve" smooth="yes"/>
      <point x="505" y="158"/>
      <point x="469" y="278"/>
    </contour>
  </outline>
</glyph>
<glyph name="asciitilde" format="2">
  <advance width="1160"/>
  <unicode hex="007E"/>
  <outline>
    <contour>
      <point x="733" y="684" type="curve"/>
      <point x="661" y="684"/>
      <point x="555" y="756"/>
      <point x="413" y="756" type="curve" name="hr01"/>
      <point x="205" y="756"/>
      <point x="83" y="614"/>
      <point x="83" y="382" type="curve"/>
      <point x="333" y="382" type="line"/>
      <point x="333" y="460"/>
      <point x="369" y="500"/>
      <point x="433" y="500" type="curve" smooth="yes"/>
      <point x="505" y="500"/>
      <point x="611" y="428"/>
      <point x="753" y="428" type="curve" name="hr02"/>
      <point x="961" y="428"/>
      <point x="1083" y="570"/>
      <point x="1083" y="802" type="curve"/>
      <point x="833" y="802" type="line"/>
      <point x="833" y="724"/>
      <point x="797" y="684"/>
    </contour>
  </outline>
</glyph>
<glyph name="exclamdown" format="2">
  <advance width="573"/>
  <unicode hex="00A1"/>
  <guideline x="386"/>
  <outline>
    <contour>
      <point x="433" y="-328" type="line"/>
      <point x="433" y="198" type="line" smooth="yes"/>
      <point x="433" y="320"/>
      <point x="417" y="444"/>
      <point x="393" y="566" type="curve"/>
      <point x="183" y="566" type="line"/>
      <point x="159" y="444"/>
      <point x="143" y="320"/>
      <point x="143" y="198" type="curve" smooth="yes"/>
      <point x="143" y="-328" type="line"/>
    </contour>
    <contour>
      <point x="109" y="880" type="curve" smooth="yes" name="hr01"/>
      <point x="109" y="782"/>
      <point x="185" y="704"/>
      <point x="285" y="704" type="curve" smooth="yes"/>
      <point x="383" y="704"/>
      <point x="461" y="782"/>
      <point x="461" y="880" type="curve" smooth="yes"/>
      <point x="461" y="980"/>
      <point x="383" y="1056"/>
      <point x="285" y="1056" type="curve" smooth="yes"/>
      <point x="185" y="1056"/>
      <point x="109" y="980"/>
    </contour>
  </outline>
</glyph>
<glyph name="cent" format="2">
  <advance width="1160"/>
  <unicode hex="00A2"/>
  <outline>
    <contour>
      <point x="1059" y="900" type="line"/>
      <point x="955" y="1000"/>
      <point x="827" y="1054"/>
      <point x="655" y="1054" type="curve" smooth="yes"/>
      <point x="295" y="1054"/>
      <point x="99" y="820"/>
      <point x="99" y="520" type="curve" smooth="yes"/>
      <point x="99" y="180"/>
      <point x="335" y="-16"/>
      <point x="613" y="-16" type="curve" smooth="yes"/>
      <point x="771" y="-16"/>
      <point x="941" y="16"/>
      <point x="1069" y="162" type="curve"/>
      <point x="983" y="274" type="line" smooth="yes"/>
      <point x="971" y="290"/>
      <point x="951" y="300"/>
      <point x="927" y="300" type="curve" smooth="yes"/>
      <point x="855" y="300"/>
      <point x="827" y="218"/>
      <point x="659" y="218" type="curve" smooth="yes"/>
      <point x="497" y="218"/>
      <point x="405" y="324"/>
      <point x="405" y="520" type="curve" smooth="yes"/>
      <point x="405" y="710"/>
      <point x="483" y="820"/>
      <point x="665" y="820" type="curve" smooth="yes"/>
      <point x="809" y="820"/>
      <point x="859" y="754"/>
      <point x="917" y="754" type="curve" smooth="yes"/>
      <point x="949" y="754"/>
      <point x="963" y="766"/>
      <point x="979" y="790" type="curve"/>
    </contour>
    <contour>
      <point x="489" y="-208" type="line"/>
      <point x="603" y="-208" type="line" smooth="yes"/>
      <point x="649" y="-208"/>
      <point x="681" y="-170"/>
      <point x="685" y="-132" type="curve" smooth="yes"/>
      <point x="827" y="1264" type="line"/>
      <point x="713" y="1264" type="line" smooth="yes"/>
      <point x="667" y="1264"/>
      <point x="635" y="1226"/>
      <point x="631" y="1188" type="curve" smooth="yes"/>
    </contour>
  </outline>
</glyph>
<glyph name="sterling" format="2">
  <advance width="1160"/>
  <unicode hex="00A3"/>
  <outline>
    <contour>
      <point x="1131" y="266" type="line"/>
      <point x="629" y="266" type="line" smooth="yes"/>
      <point x="485" y="266"/>
      <point x="347" y="220"/>
      <point x="213" y="164" type="curve"/>
      <point x="45" y="194" type="line"/>
      <point x="45" y="0" type="line"/>
      <point x="999" y="0" type="line" smooth="yes"/>
      <point x="1079" y="0"/>
      <point x="1131" y="72"/>
      <point x="1131" y="134" type="curve" smooth="yes"/>
    </contour>
    <contour>
      <point x="315" y="126" type="line"/>
      <point x="439" y="216"/>
      <point x="531" y="304"/>
      <point x="531" y="440" type="curve" smooth="yes"/>
      <point x="531" y="1002" type="line" smooth="yes"/>
      <point x="531" y="1138"/>
      <point x="583" y="1212"/>
      <point x="691" y="1212" type="curve" smooth="yes"/>
      <point x="749" y="1212"/>
      <point x="785" y="1190"/>
      <point x="835" y="1140" type="curve"/>
      <point x="879" y="1092"/>
      <point x="933" y="1092"/>
      <point x="989" y="1122" type="curve"/>
      <point x="1113" y="1204" type="line"/>
      <point x="1037" y="1358"/>
      <point x="907" y="1476"/>
      <point x="691" y="1476" type="curve" smooth="yes"/>
      <point x="367" y="1476"/>
      <point x="213" y="1254"/>
      <point x="213" y="1000" type="curve" smooth="yes"/>
      <point x="213" y="354" type="line" smooth="yes"/>
      <point x="213" y="258"/>
      <point x="133" y="210"/>
      <point x="45" y="194" type="curve"/>
    </contour>
    <contour>
      <point x="27" y="586" type="line"/>
      <point x="825" y="586" type="line" smooth="yes"/>
      <point x="875" y="586"/>
      <point x="911" y="626"/>
      <point x="911" y="666" type="curve" smooth="yes"/>
      <point x="911" y="790" type="line"/>
      <point x="129" y="790" type="line" smooth="yes"/>
      <point x="61" y="790"/>
      <point x="27" y="742"/>
      <point x="27" y="686" type="curve" smooth="yes"/>
    </contour>
  </outline>
</glyph>
<glyph name="currency" format="2">
  <advance width="1160"/>
  <unicode hex="00A4"/>
  <outline>
    <contour>
      <point x="200" y="674" type="curve" smooth="yes"/>
      <point x="200" y="462"/>
      <point x="368" y="294"/>
      <point x="580" y="294" type="curve" smooth="yes"/>
      <point x="790" y="294"/>
      <point x="960" y="462"/>
      <point x="960" y="674" type="curve" smooth="yes"/>
      <point x="960" y="886"/>
      <point x="790" y="1054"/>
      <point x="580" y="1054" type="curve" smooth="yes"/>
      <point x="368" y="1054"/>
      <point x="200" y="886"/>
    </contour>
    <contour>
      <point x="428" y="674" type="curve"/>
      <point x="428" y="760"/>
      <point x="496" y="828"/>
      <point x="580" y="828" type="curve" smooth="yes"/>
      <point x="666" y="828"/>
      <point x="734" y="760"/>
      <point x="734" y="674" type="curve" smooth="yes"/>
      <point x="734" y="592"/>
      <point x="666" y="522"/>
      <point x="580" y="522" type="curve" smooth="yes"/>
      <point x="496" y="522"/>
      <point x="428" y="592"/>
    </contour>
    <contour>
      <point x="316" y="778" type="line"/>
      <point x="472" y="932" type="line"/>
      <point x="246" y="1158" type="line"/>
      <point x="90" y="1004" type="line"/>
    </contour>
    <contour>
      <point x="684" y="938" type="line"/>
      <point x="838" y="782" type="line"/>
      <point x="1064" y="1008" type="line"/>
      <point x="910" y="1164" type="line"/>
    </contour>
    <contour>
      <point x="478" y="410" type="line"/>
      <point x="322" y="566" type="line"/>
      <point x="96" y="340" type="line"/>
      <point x="250" y="184" type="line"/>
    </contour>
    <contour>
      <point x="844" y="572" type="line"/>
      <point x="688" y="416" type="line"/>
      <point x="914" y="190" type="line"/>
      <point x="1070" y="346" type="line"/>
    </contour>
  </outline>
</glyph>
<glyph name="yen" format="2">
  <advance width="1160"/>
  <unicode hex="00A5"/>
  <outline>
    <contour>
      <point x="1177" y="1460" type="line"/>
      <point x="917" y="1460" type="line" smooth="yes"/>
      <point x="861" y="1460"/>
      <point x="823" y="1422"/>
      <point x="807" y="1384" type="curve"/>
      <point x="643" y="974" type="line" smooth="yes"/>
      <point x="577" y="808"/>
      <point x="563" y="698"/>
      <point x="557" y="524" type="curve"/>
      <point x="733" y="524" type="line"/>
    </contour>
    <contour>
      <point x="427" y="524" type="line"/>
      <point x="611" y="524" type="line"/>
      <point x="607" y="700"/>
      <point x="587" y="806"/>
      <point x="519" y="974" type="curve" smooth="yes"/>
      <point x="353" y="1384" type="line" smooth="yes"/>
      <point x="335" y="1430"/>
      <point x="299" y="1460"/>
      <point x="241" y="1460" type="curve" smooth="yes"/>
      <point x="-17" y="1460" type="line"/>
    </contour>
    <contour>
      <point x="735" y="610" type="line"/>
      <point x="425" y="610" type="line"/>
      <point x="425" y="0" type="line"/>
      <point x="735" y="0" type="line"/>
    </contour>
    <contour>
      <point x="125" y="210" type="line"/>
      <point x="1035" y="210" type="line"/>
      <point x="1035" y="382" type="line"/>
      <point x="125" y="382" type="line"/>
    </contour>
    <contour>
      <point x="125" y="468" type="line"/>
      <point x="1035" y="468" type="line"/>
      <point x="1035" y="640" type="line"/>
      <point x="125" y="640" type="line"/>
    </contour>
  </outline>
</glyph>
<glyph name="brokenbar" format="2">
  <advance width="546"/>
  <unicode hex="00A6"/>
  <outline>
    <contour>
      <point x="153" y="738" type="line"/>
      <point x="393" y="738" type="line"/>
      <point x="393" y="1560" type="line"/>
      <point x="153" y="1560" type="line"/>
    </contour>
    <contour>
      <point x="153" y="-328" type="line"/>
      <point x="393" y="-328" type="line"/>
      <point x="393" y="494" type="line"/>
      <point x="153" y="494" type="line"/>
    </contour>
  </outline>
</glyph>
<glyph name="section" format="2">
  <advance width="1023"/>
  <unicode hex="00A7"/>
  <outline>
    <contour>
      <point x="487" y="966" type="line"/>
      <point x="213" y="966"/>
      <point x="77" y="844"/>
      <point x="77" y="672" type="curve" smooth="yes"/>
      <point x="77" y="308"/>
      <point x="621" y="378"/>
      <point x="621" y="188" type="curve" smooth="yes"/>
      <point x="621" y="130"/>
      <point x="569" y="102"/>
      <point x="483" y="102" type="curve" smooth="yes"/>
      <point x="335" y="102"/>
      <point x="305" y="176"/>
      <point x="233" y="176" type="curve" smooth="yes"/>
      <point x="195" y="176"/>
      <point x="171" y="160"/>
      <point x="155" y="132" type="curve" smooth="yes"/>
      <point x="83" y="12" type="line"/>
      <point x="163" y="-60"/>
      <point x="315" y="-116"/>
      <point x="455" y="-116" type="curve" smooth="yes"/>
      <point x="739" y="-116"/>
      <point x="891" y="32"/>
      <point x="891" y="240" type="curve" smooth="yes"/>
      <point x="891" y="576"/>
      <point x="351" y="546"/>
      <point x="351" y="724" type="curve" smooth="yes"/>
      <point x="351" y="778"/>
      <point x="387" y="812"/>
      <point x="477" y="842" type="curve"/>
    </contour>
    <contour>
      <point x="905" y="1338" type="line"/>
      <point x="829" y="1416"/>
      <point x="697" y="1474"/>
      <point x="547" y="1474" type="curve" smooth="yes"/>
      <point x="273" y="1474"/>
      <point x="137" y="1320"/>
      <point x="137" y="1142" type="curve" smooth="yes" name="hr01"/>
      <point x="137" y="760"/>
      <point x="681" y="810"/>
      <point x="681" y="626" type="curve" smooth="yes"/>
      <point x="681" y="570"/>
      <point x="641" y="524"/>
      <point x="537" y="510" type="curve"/>
      <point x="515" y="382" type="line"/>
      <point x="829" y="382"/>
      <point x="951" y="524"/>
      <point x="951" y="698" type="curve" smooth="yes"/>
      <point x="951" y="1014"/>
      <point x="411" y="1022"/>
      <point x="411" y="1156" type="curve" smooth="yes"/>
      <point x="411" y="1208"/>
      <point x="457" y="1246"/>
      <point x="553" y="1246" type="curve" smooth="yes"/>
      <point x="663" y="1246"/>
      <point x="717" y="1188"/>
      <point x="775" y="1188" type="curve" smooth="yes"/>
      <point x="803" y="1188"/>
      <point x="819" y="1198"/>
      <point x="835" y="1224" type="curve" smooth="yes"/>
    </contour>
  </outline>
</glyph>
<glyph name="dieresis" format="2">
  <advance width="800"/>
  <unicode hex="00A8"/>
  <anchor x="400" y="1120" name="_top"/>
  <anchor x="400" y="1457" name="top"/>
  <outline>
    <contour>
      <point x="348" y="1296" type="curve"/>
      <point x="348" y="1386"/>
      <point x="274" y="1460"/>
      <point x="184" y="1460" type="curve" smooth="yes"/>
      <point x="100" y="1460"/>
      <point x="26" y="1386"/>
      <point x="26" y="1296" type="curve" smooth="yes"/>
      <point x="26" y="1208"/>
      <point x="100" y="1138"/>
      <point x="184" y="1138" type="curve" smooth="yes"/>
      <point x="274" y="1138"/>
      <point x="348" y="1208"/>
    </contour>
    <contour>
      <point x="774" y="1296" type="curve" smooth="yes"/>
      <point x="774" y="1386"/>
      <point x="702" y="1460"/>
      <point x="612" y="1460" type="curve" smooth="yes"/>
      <point x="524" y="1460"/>
      <point x="452" y="1386"/>
      <point x="452" y="1296" type="curve" smooth="yes"/>
      <point x="452" y="1208"/>
      <point x="524" y="1138"/>
      <point x="612" y="1138" type="curve" smooth="yes"/>
      <point x="702" y="1138"/>
      <point x="774" y="1208"/>
    </contour>
  </outline>
</glyph>
<glyph name="copyright" format="2">
  <advance width="1634"/>
  <unicode hex="00A9"/>
  <outline>
    <contour>
      <point x="1016" y="550" type="curve" smooth="yes"/>
      <point x="964" y="550"/>
      <point x="958" y="496"/>
      <point x="832" y="496" type="curve" smooth="yes"/>
      <point x="726" y="496"/>
      <point x="650" y="578"/>
      <point x="650" y="734" type="curve" smooth="yes"/>
      <point x="650" y="880"/>
      <point x="720" y="972"/>
      <point x="854" y="972" type="curve" smooth="yes"/>
      <point x="972" y="972"/>
      <point x="982" y="916"/>
      <point x="1036" y="916" type="curve" smooth="yes"/>
      <point x="1062" y="916"/>
      <point x="1078" y="934"/>
      <point x="1088" y="946" type="curve"/>
      <point x="1170" y="1060" type="line"/>
      <point x="1102" y="1140"/>
      <point x="990" y="1202"/>
      <point x="838" y="1202" type="curve" smooth="yes"/>
      <point x="580" y="1202"/>
      <point x="376" y="1006"/>
      <point x="376" y="734" type="curve" smooth="yes"/>
      <point x="376" y="474"/>
      <point x="546" y="264"/>
      <point x="816" y="264" type="curve" smooth="yes"/>
      <point x="968" y="264"/>
      <point x="1088" y="316"/>
      <point x="1160" y="418" type="curve"/>
      <point x="1058" y="528" type="line"/>
      <point x="1048" y="540"/>
      <point x="1032" y="550"/>
    </contour>
    <contour>
      <point x="72" y="730" type="curve" smooth="yes"/>
      <point x="72" y="320"/>
      <point x="406" y="-14"/>
      <point x="816" y="-14" type="curve" smooth="yes"/>
      <point x="1228" y="-14"/>
      <point x="1562" y="320"/>
      <point x="1562" y="730" type="curve" smooth="yes"/>
      <point x="1562" y="1142"/>
      <point x="1228" y="1476"/>
      <point x="816" y="1476" type="curve" smooth="yes"/>
      <point x="406" y="1476"/>
      <point x="72" y="1142"/>
    </contour>
    <contour>
      <point x="238" y="730" type="curve" smooth="yes"/>
      <point x="238" y="1068"/>
      <point x="490" y="1334"/>
      <point x="816" y="1334" type="curve" smooth="yes"/>
      <point x="1144" y="1334"/>
      <point x="1400" y="1068"/>
      <point x="1400" y="730" type="curve" smooth="yes"/>
      <point x="1400" y="394"/>
      <point x="1144" y="132"/>
      <point x="816" y="132" type="curve" smooth="yes"/>
      <point x="490" y="132"/>
      <point x="238" y="394"/>
    </contour>
  </outline>
</glyph>
<glyph name="ordfeminine" format="2">
  <advance width="734"/>
  <unicode hex="00AA"/>
  <anchor x="367" y="-70" name="bottom"/>
  <outline>
    <contour>
      <point x="639" y="1230" type="curve"/>
      <point x="639" y="1372"/>
      <point x="537" y="1482"/>
      <point x="379" y="1482" type="curve" smooth="yes"/>
      <point x="269" y="1482"/>
      <point x="171" y="1452"/>
      <point x="93" y="1382" type="curve"/>
      <point x="131" y="1310" type="line"/>
      <point x="145" y="1290"/>
      <point x="165" y="1268"/>
      <point x="195" y="1268" type="curve" smooth="yes"/>
      <point x="261" y="1268"/>
      <point x="271" y="1304"/>
      <point x="351" y="1304" type="curve" smooth="yes"/>
      <point x="395" y="1304"/>
      <point x="423" y="1288"/>
      <point x="423" y="1230" type="curve"/>
      <point x="423" y="1230"/>
      <point x="639" y="1230"/>
    </contour>
    <contour>
      <point x="639" y="842" type="line"/>
      <point x="639" y="1230" type="line"/>
      <point x="423" y="1230" type="line"/>
      <point x="423" y="974" type="line"/>
      <point x="461" y="886" type="line"/>
      <point x="479" y="850"/>
      <point x="495" y="842"/>
      <point x="535" y="842" type="curve" smooth="yes"/>
    </contour>
    <contour>
      <point x="475" y="932" type="curve"/>
      <point x="475" y="932"/>
      <point x="451" y="1054"/>
      <point x="451" y="1054" type="curve"/>
      <point x="405" y="1002"/>
      <point x="375" y="986"/>
      <point x="329" y="986" type="curve" smooth="yes"/>
      <point x="289" y="986"/>
      <point x="275" y="994"/>
      <point x="275" y="1022" type="curve" smooth="yes"/>
      <point x="275" y="1052"/>
      <point x="301" y="1082"/>
      <point x="455" y="1082" type="curve"/>
      <point x="425" y="1216" type="line"/>
      <point x="133" y="1210"/>
      <point x="63" y="1096"/>
      <point x="63" y="1012" type="curve" smooth="yes"/>
      <point x="63" y="900"/>
      <point x="137" y="834"/>
      <point x="257" y="834" type="curve" smooth="yes"/>
      <point x="353" y="834"/>
      <point x="399" y="866"/>
    </contour>
  </outline>
</glyph>
<glyph name="logicalnot" format="2">
  <advance width="1160"/>
  <unicode hex="00AC"/>
  <outline>
    <contour>
      <point x="118" y="556" type="line"/>
      <point x="1028" y="556" type="line"/>
      <point x="1028" y="788" type="line"/>
      <point x="118" y="788" type="line"/>
    </contour>
    <contour>
      <point x="766" y="278" type="line"/>
      <point x="1028" y="278" type="line"/>
      <point x="1028" y="788" type="line"/>
      <point x="766" y="788" type="line"/>
    </contour>
  </outline>
</glyph>
<glyph name="registered" format="2">
  <advance width="1634"/>
  <unicode hex="00AE"/>
  <outline>
    <contour>
      <point x="766" y="578" type="line" smooth="yes"/>
      <point x="798" y="578"/>
      <point x="812" y="568"/>
      <point x="826" y="546" type="curve"/>
      <point x="918" y="322" type="line"/>
      <point x="932" y="296"/>
      <point x="958" y="282"/>
      <point x="994" y="282" type="curve" smooth="yes"/>
      <point x="1252" y="282" type="line"/>
      <point x="1114" y="562" type="line" smooth="yes"/>
      <point x="1076" y="640"/>
      <point x="1030" y="684"/>
      <point x="910" y="684" type="curve"/>
      <point x="796" y="628" type="line"/>
      <point x="838" y="628" type="line" smooth="yes"/>
      <point x="1096" y="628"/>
      <point x="1200" y="752"/>
      <point x="1200" y="914" type="curve" smooth="yes"/>
      <point x="1200" y="1086"/>
      <point x="1086" y="1184"/>
      <point x="818" y="1184" type="curve" smooth="yes"/>
      <point x="466" y="1184" type="line"/>
      <point x="466" y="282" type="line"/>
      <point x="734" y="282" type="line"/>
      <point x="734" y="980" type="line"/>
      <point x="818" y="980" type="line" smooth="yes"/>
      <point x="926" y="980"/>
      <point x="936" y="944"/>
      <point x="936" y="878" type="curve" smooth="yes"/>
      <point x="936" y="808"/>
      <point x="926" y="770"/>
      <point x="798" y="770" type="curve" smooth="yes"/>
      <point x="664" y="770" type="line"/>
      <point x="656" y="578" type="line"/>
    </contour>
    <contour>
      <point x="72" y="730" type="curve" smooth="yes"/>
      <point x="72" y="320"/>
      <point x="406" y="-14"/>
      <point x="816" y="-14" type="curve" smooth="yes"/>
      <point x="1228" y="-14"/>
      <point x="1562" y="320"/>
      <point x="1562" y="730" type="curve" smooth="yes"/>
      <point x="1562" y="1142"/>
      <point x="1228" y="1476"/>
      <point x="816" y="1476" type="curve" smooth="yes"/>
      <point x="406" y="1476"/>
      <point x="72" y="1142"/>
    </contour>
    <contour>
      <point x="238" y="730" type="curve" smooth="yes"/>
      <point x="238" y="1068"/>
      <point x="490" y="1334"/>
      <point x="816" y="1334" type="curve" smooth="yes"/>
      <point x="1144" y="1334"/>
      <point x="1400" y="1068"/>
      <point x="1400" y="730" type="curve" smooth="yes"/>
      <point x="1400" y="394"/>
      <point x="1144" y="132"/>
      <point x="816" y="132" type="curve" smooth="yes"/>
      <point x="490" y="132"/>
      <point x="238" y="394"/>
    </contour>
  </outline>
</glyph>
<glyph name="degree" format="2">
  <advance width="832"/>
  <unicode hex="00B0"/>
  <outline>
    <contour>
      <point x="51" y="1118" type="curve" smooth="yes"/>
      <point x="51" y="924"/>
      <point x="209" y="760"/>
      <point x="415" y="760" type="curve" smooth="yes"/>
      <point x="621" y="760"/>
      <point x="781" y="924"/>
      <point x="781" y="1118" type="curve" smooth="yes"/>
      <point x="781" y="1318"/>
      <point x="621" y="1478"/>
      <point x="415" y="1478" type="curve" smooth="yes"/>
      <point x="209" y="1478"/>
      <point x="51" y="1318"/>
    </contour>
    <contour>
      <point x="265" y="1116" type="curve" smooth="yes"/>
      <point x="265" y="1204"/>
      <point x="327" y="1272"/>
      <point x="415" y="1272" type="curve" smooth="yes"/>
      <point x="503" y="1272"/>
      <point x="565" y="1204"/>
      <point x="565" y="1116" type="curve" smooth="yes"/>
      <point x="565" y="1030"/>
      <point x="503" y="964"/>
      <point x="415" y="964" type="curve" smooth="yes"/>
      <point x="327" y="964"/>
      <point x="265" y="1030"/>
    </contour>
  </outline>
</glyph>
<glyph name="plusminus" format="2">
  <advance width="1160"/>
  <unicode hex="00B1"/>
  <outline>
    <contour>
      <point x="85" y="716" type="line"/>
      <point x="1075" y="716" type="line"/>
      <point x="1075" y="948" type="line"/>
      <point x="85" y="948" type="line"/>
    </contour>
    <contour>
      <point x="453" y="1280" type="line"/>
      <point x="453" y="402" type="line"/>
      <point x="705" y="402" type="line"/>
      <point x="705" y="1280" type="line"/>
    </contour>
    <contour>
      <point x="85" y="80" type="line"/>
      <point x="1075" y="80" type="line"/>
      <point x="1075" y="312" type="line"/>
      <point x="85" y="312" type="line"/>
    </contour>
  </outline>
</glyph>
<glyph name="acute" format="2">
  <advance width="800"/>
  <unicode hex="00B4"/>
  <anchor x="400" y="1120" name="_top"/>
  <outline>
    <contour>
      <point x="496" y="1476" type="line" smooth="yes"/>
      <point x="434" y="1476"/>
      <point x="408" y="1454"/>
      <point x="386" y="1414" type="curve" smooth="yes"/>
      <point x="250" y="1168" type="line"/>
      <point x="436" y="1168" type="line" smooth="yes"/>
      <point x="482" y="1168"/>
      <point x="506" y="1180"/>
      <point x="536" y="1212" type="curve"/>
      <point x="796" y="1476" type="line"/>
    </contour>
  </outline>
</glyph>
<glyph name="micro" format="2">
  <advance width="1340"/>
  <unicode hex="00B5"/>
  <anchor x="621" y="1120" name="top"/>
  <anchor x="697" y="-421" name="bottom"/>
  <outline>
    <contour>
      <point x="150" y="1040" type="line"/>
      <point x="150" y="-198" type="line" smooth="yes"/>
      <point x="150" y="-282"/>
      <point x="200" y="-328"/>
      <point x="286" y="-328" type="curve" smooth="yes"/>
      <point x="440" y="-328" type="line"/>
      <point x="440" y="-126" type="line" smooth="yes"/>
      <point x="440" y="-42"/>
      <point x="428" y="72"/>
      <point x="382" y="136" type="curve"/>
      <point x="460" y="182" type="line"/>
      <point x="460" y="1040" type="line"/>
    </contour>
    <contour>
      <point x="280" y="440" type="line"/>
      <point x="280" y="180"/>
      <point x="371" y="24"/>
      <point x="578" y="24" type="curve" smooth="yes"/>
      <point x="722" y="24"/>
      <point x="818" y="130"/>
      <point x="893" y="307" type="curve"/>
      <point x="799" y="475" type="line"/>
      <point x="771" y="353"/>
      <point x="707" y="278"/>
      <point x="598" y="278" type="curve" smooth="yes"/>
      <point x="508" y="278"/>
      <point x="460" y="344"/>
      <point x="460" y="440" type="curve"/>
    </contour>
    <contour>
      <point x="781" y="343" type="line"/>
      <point x="811" y="332" type="line"/>
      <point x="813" y="98"/>
      <point x="939" y="-11"/>
      <point x="1087" y="-11" type="curve" smooth="yes" name="hr01"/>
      <point x="1202" y="-11"/>
      <point x="1273" y="41"/>
      <point x="1273" y="94" type="curve" smooth="yes"/>
      <point x="1273" y="218" type="line"/>
      <point x="1188" y="218" type="line" smooth="yes"/>
      <point x="1127" y="218"/>
      <point x="1091" y="255"/>
      <point x="1091" y="331" type="curve" smooth="yes"/>
      <point x="1091" y="1040" type="line"/>
      <point x="781" y="1040" type="line"/>
    </contour>
  </outline>
</glyph>
<glyph name="paragraph" format="2">
  <advance width="1540"/>
  <unicode hex="00B6"/>
  <outline>
    <contour>
      <point x="792" y="1460" type="line"/>
      <point x="522" y="1460" type="line"/>
      <point x="522" y="-218" type="line"/>
      <point x="792" y="-218" type="line"/>
    </contour>
    <contour>
      <point x="522" y="1460" type="line"/>
      <point x="244" y="1460"/>
      <point x="60" y="1280"/>
      <point x="60" y="1026" type="curve" smooth="yes" name="hr01"/>
      <point x="60" y="796"/>
      <point x="244" y="600"/>
      <point x="522" y="600" type="curve" name="hr02"/>
      <point x="580" y="1198" type="line"/>
      <point x="1468" y="1198" type="line"/>
      <point x="1468" y="1460" type="line"/>
    </contour>
    <contour>
      <point x="1258" y="1460" type="line"/>
      <point x="988" y="1460" type="line"/>
      <point x="988" y="-218" type="line"/>
      <point x="1258" y="-218" type="line"/>
    </contour>
  </outline>
</glyph>
<glyph name="periodcentered" format="2">
  <advance width="576"/>
  <unicode hex="00B7"/>
  <unicode hex="2219"/>
  <outline>
    <contour>
      <point x="63" y="596" type="curve" smooth="yes"/>
      <point x="63" y="472"/>
      <point x="163" y="372"/>
      <point x="287" y="372" type="curve" smooth="yes"/>
      <point x="413" y="372"/>
      <point x="513" y="472"/>
      <point x="513" y="596" type="curve" smooth="yes"/>
      <point x="513" y="722"/>
      <point x="413" y="822"/>
      <point x="287" y="822" type="curve" smooth="yes"/>
      <point x="163" y="822"/>
      <point x="63" y="722"/>
    </contour>
  </outline>
</glyph>
<glyph name="cedilla" format="2">
  <advance width="800"/>
  <unicode hex="00B8"/>
  <anchor x="400" y="-70" name="_bottom"/>
  <outline>
    <contour>
      <point x="279" y="-216" type="curve" smooth="yes"/>
      <point x="259" y="-216"/>
      <point x="249" y="-226"/>
      <point x="245" y="-244" type="curve"/>
      <point x="217" y="-342" type="line"/>
      <point x="267" y="-352"/>
      <point x="311" y="-356"/>
      <point x="365" y="-356" type="curve" smooth="yes"/>
      <point x="525" y="-356"/>
      <point x="633" y="-296"/>
      <point x="633" y="-202" type="curve" smooth="yes"/>
      <point x="633" y="-124"/>
      <point x="581" y="-58"/>
      <point x="389" y="-32" type="curve"/>
      <point x="457" y="-92" type="line"/>
      <point x="494" y="46" type="line"/>
      <point x="322" y="46" type="line"/>
      <point x="257" y="-146" type="line"/>
      <point x="355" y="-160"/>
      <point x="391" y="-170"/>
      <point x="391" y="-196" type="curve" smooth="yes"/>
      <point x="391" y="-208"/>
      <point x="377" y="-222"/>
      <point x="343" y="-222" type="curve" smooth="yes"/>
      <point x="315" y="-222"/>
      <point x="299" y="-216"/>
    </contour>
  </outline>
</glyph>
<glyph name="ordmasculine" format="2">
  <advance width="798"/>
  <unicode hex="00BA"/>
  <anchor x="399" y="-70" name="bottom"/>
  <outline>
    <contour>
      <point x="401" y="1480" type="curve" smooth="yes"/>
      <point x="199" y="1480"/>
      <point x="55" y="1358"/>
      <point x="55" y="1158" type="curve" smooth="yes"/>
      <point x="55" y="954"/>
      <point x="199" y="830"/>
      <point x="401" y="830" type="curve" smooth="yes"/>
      <point x="601" y="830"/>
      <point x="743" y="954"/>
      <point x="743" y="1158" type="curve" smooth="yes"/>
      <point x="743" y="1358"/>
      <point x="601" y="1480"/>
    </contour>
    <contour>
      <point x="401" y="1012" type="curve" smooth="yes"/>
      <point x="327" y="1012"/>
      <point x="297" y="1052"/>
      <point x="297" y="1156" type="curve" smooth="yes"/>
      <point x="297" y="1260"/>
      <point x="327" y="1298"/>
      <point x="401" y="1298" type="curve" smooth="yes"/>
      <point x="469" y="1298"/>
      <point x="501" y="1260"/>
      <point x="501" y="1156" type="curve" smooth="yes"/>
      <point x="501" y="1052"/>
      <point x="469" y="1012"/>
    </contour>
  </outline>
</glyph>
<glyph name="questiondown" format="2">
  <advance width="938"/>
  <unicode hex="00BF"/>
  <outline>
    <component base="period" xOffset="280" yOffset="718"/>
    <contour>
      <point x="801" y="-62" type="line"/>
      <point x="787" y="-36"/>
      <point x="765" y="-24"/>
      <point x="737" y="-24" type="curve"/>
      <point x="687" y="-24"/>
      <point x="645" y="-92"/>
      <point x="505" y="-92" type="curve" smooth="yes"/>
      <point x="413" y="-92"/>
      <point x="357" y="-42"/>
      <point x="357" y="32" type="curve"/>
      <point x="357" y="226"/>
      <point x="671" y="188"/>
      <point x="641" y="406" type="curve" smooth="yes"/>
      <point x="619" y="566" type="line"/>
      <point x="407" y="566" type="line"/>
      <point x="379" y="428" type="line"/>
      <point x="351" y="304"/>
      <point x="69" y="310"/>
      <point x="69" y="4" type="curve" smooth="yes"/>
      <point x="69" y="-212"/>
      <point x="227" y="-344"/>
      <point x="477" y="-344" type="curve" smooth="yes"/>
      <point x="655" y="-344"/>
      <point x="783" y="-278"/>
      <point x="883" y="-194" type="curve"/>
    </contour>
  </outline>
</glyph>
<glyph name="AE" format="2">
  <advance width="1870"/>
  <unicode hex="00C6"/>
  <anchor x="1231" y="1525" name="Top"/>
  <anchor x="1231" y="1525" name="top"/>
  <anchor x="918" y="-70" name="bottom"/>
  <outline>
    <contour>
      <point x="-33" y="0" type="line"/>
      <point x="223" y="0" type="line" smooth="yes"/>
      <point x="283" y="0"/>
      <point x="328" y="31"/>
      <point x="349" y="76" type="curve"/>
      <point x="757" y="990" type="line" smooth="yes"/>
      <point x="809" y="1106"/>
      <point x="865" y="1266"/>
      <point x="899" y="1460" type="curve"/>
      <point x="683" y="1460" type="line"/>
    </contour>
    <contour>
      <point x="305" y="320" type="line"/>
      <point x="1181" y="320" type="line"/>
      <point x="1181" y="560" type="line"/>
      <point x="305" y="560" type="line"/>
    </contour>
    <contour>
      <point x="1127" y="1460" type="line"/>
      <point x="807" y="1460" type="line"/>
      <point x="983" y="0" type="line"/>
      <point x="1303" y="0" type="line"/>
    </contour>
    <contour>
      <point x="1173" y="864" type="line"/>
      <point x="1173" y="602" type="line"/>
      <point x="1663" y="602" type="line"/>
      <point x="1663" y="864" type="line"/>
    </contour>
    <contour>
      <point x="1061" y="1460" type="line"/>
      <point x="1061" y="1188" type="line"/>
      <point x="1803" y="1188" type="line"/>
      <point x="1803" y="1460" type="line"/>
    </contour>
    <contour>
      <point x="1173" y="272" type="line"/>
      <point x="1173" y="0" type="line"/>
      <point x="1803" y="0" type="line"/>
      <point x="1803" y="272" type="line"/>
    </contour>
  </outline>
</glyph>
<glyph name="Eth" format="2">
  <advance width="1543"/>
  <unicode hex="00D0"/>
  <anchor x="705" y="1525" name="Top"/>
  <anchor x="705" y="1525" name="top"/>
  <anchor x="671" y="-70" name="bottom"/>
  <outline>
    <contour>
      <point x="1484" y="730" type="curve" smooth="yes"/>
      <point x="1484" y="1148"/>
      <point x="1182" y="1460"/>
      <point x="728" y="1460" type="curve"/>
      <point x="162" y="1460" type="line"/>
      <point x="162" y="0" type="line"/>
      <point x="728" y="0" type="line"/>
      <point x="1182" y="0"/>
      <point x="1484" y="310"/>
    </contour>
    <contour>
      <point x="1138" y="730" type="curve" smooth="yes"/>
      <point x="1138" y="446"/>
      <point x="986" y="272"/>
      <point x="728" y="272" type="curve"/>
      <point x="502" y="272" type="line"/>
      <point x="502" y="1188" type="line"/>
      <point x="728" y="1188" type="line"/>
      <point x="986" y="1188"/>
      <point x="1138" y="1012"/>
    </contour>
    <contour>
      <point x="-4" y="636" type="line"/>
      <point x="746" y="636" type="line"/>
      <point x="746" y="828" type="line"/>
      <point x="-4" y="828" type="line"/>
    </contour>
  </outline>
</glyph>
<glyph name="multiply" format="2">
  <advance width="1160"/>
  <unicode hex="00D7"/>
  <outline>
    <contour>
      <point x="110" y="980" type="line"/>
      <point x="908" y="182" type="line"/>
      <point x="1072" y="346" type="line"/>
      <point x="272" y="1144" type="line"/>
    </contour>
    <contour>
      <point x="888" y="1142" type="line"/>
      <point x="90" y="344" type="line"/>
      <point x="254" y="180" type="line"/>
      <point x="1052" y="978" type="line"/>
    </contour>
  </outline>
</glyph>
<glyph name="Oslash" format="2">
  <advance width="1629"/>
  <unicode hex="00D8"/>
  <anchor x="823" y="1525" name="Top"/>
  <anchor x="823" y="1525" name="top"/>
  <anchor x="771" y="-70" name="bottom"/>
  <outline>
    <contour>
      <point x="1537" y="1526" type="line"/>
      <point x="1365" y="1526" type="line" smooth="yes"/>
      <point x="1293" y="1526"/>
      <point x="1271" y="1504"/>
      <point x="1227" y="1444" type="curve" smooth="yes"/>
      <point x="105" y="-114" type="line"/>
      <point x="237" y="-114" type="line" smooth="yes"/>
      <point x="301" y="-114"/>
      <point x="373" y="-90"/>
      <point x="421" y="-24" type="curve" smooth="yes"/>
    </contour>
    <contour>
      <point x="1571" y="730" type="curve" smooth="yes"/>
      <point x="1571" y="1148"/>
      <point x="1269" y="1476"/>
      <point x="815" y="1476" type="curve" smooth="yes"/>
      <point x="361" y="1476"/>
      <point x="57" y="1150"/>
      <point x="57" y="730" type="curve" smooth="yes"/>
      <point x="57" y="310"/>
      <point x="361" y="-16"/>
      <point x="815" y="-16" type="curve" smooth="yes"/>
      <point x="1269" y="-16"/>
      <point x="1571" y="310"/>
    </contour>
    <contour>
      <point x="1225" y="730" type="curve" smooth="yes"/>
      <point x="1225" y="446"/>
      <point x="1073" y="276"/>
      <point x="815" y="276" type="curve" smooth="yes"/>
      <point x="555" y="276"/>
      <point x="403" y="446"/>
      <point x="403" y="730" type="curve" smooth="yes"/>
      <point x="403" y="1012"/>
      <point x="555" y="1184"/>
      <point x="815" y="1184" type="curve" smooth="yes"/>
      <point x="1073" y="1184"/>
      <point x="1225" y="1012"/>
    </contour>
  </outline>
</glyph>
<glyph name="Thorn" format="2">
  <advance width="1263"/>
  <unicode hex="00DE"/>
  <anchor x="425" y="1525" name="Top"/>
  <anchor x="425" y="1525" name="top"/>
  <anchor x="310" y="-70" name="bottom"/>
  <outline>
    <contour>
      <point x="337" y="250" type="line"/>
      <point x="655" y="250" type="line" smooth="yes"/>
      <point x="1057" y="250"/>
      <point x="1241" y="454"/>
      <point x="1241" y="748" type="curve" smooth="yes"/>
      <point x="1241" y="1018"/>
      <point x="1065" y="1228"/>
      <point x="655" y="1228" type="curve" smooth="yes"/>
      <point x="479" y="1228" type="line"/>
      <point x="479" y="1460" type="line"/>
      <point x="141" y="1460" type="line"/>
      <point x="141" y="0" type="line"/>
      <point x="479" y="0" type="line"/>
      <point x="479" y="964" type="line"/>
      <point x="655" y="964" type="line" smooth="yes"/>
      <point x="825" y="964"/>
      <point x="903" y="876"/>
      <point x="903" y="748" type="curve" smooth="yes"/>
      <point x="903" y="600"/>
      <point x="831" y="516"/>
      <point x="655" y="516" type="curve" smooth="yes"/>
      <point x="365" y="516" type="line"/>
    </contour>
  </outline>
</glyph>
<glyph name="germandbls" format="2">
  <advance width="1246"/>
  <unicode hex="00DF"/>
  <anchor x="633" y="1525" name="Top"/>
  <anchor x="633" y="1525" name="top"/>
  <anchor x="618" y="-70" name="bottom"/>
  <outline>
    <contour>
      <point x="662" y="1488" type="curve" smooth="yes"/>
      <point x="310" y="1488"/>
      <point x="104" y="1264"/>
      <point x="104" y="976" type="curve" smooth="yes"/>
      <point x="104" y="0" type="line"/>
      <point x="414" y="0" type="line"/>
      <point x="414" y="966" type="line" smooth="yes"/>
      <point x="414" y="1150"/>
      <point x="480" y="1262"/>
      <point x="648" y="1262" type="curve" smooth="yes"/>
      <point x="774" y="1262"/>
      <point x="830" y="1212"/>
      <point x="830" y="1122" type="curve" smooth="yes"/>
      <point x="830" y="978"/>
      <point x="564" y="970"/>
      <point x="564" y="726" type="curve" smooth="yes" name="hr01"/>
      <point x="564" y="442"/>
      <point x="914" y="452"/>
      <point x="914" y="298" type="curve" smooth="yes"/>
      <point x="914" y="240"/>
      <point x="870" y="202"/>
      <point x="818" y="202" type="curve" smooth="yes"/>
      <point x="718" y="202"/>
      <point x="682" y="276"/>
      <point x="610" y="276" type="curve" smooth="yes"/>
      <point x="572" y="276"/>
      <point x="548" y="260"/>
      <point x="532" y="232" type="curve" smooth="yes"/>
      <point x="460" y="112" type="line"/>
      <point x="540" y="40"/>
      <point x="672" y="-16"/>
      <point x="790" y="-16" type="curve" smooth="yes"/>
      <point x="1006" y="-16"/>
      <point x="1204" y="102"/>
      <point x="1204" y="348" type="curve" smooth="yes"/>
      <point x="1204" y="652"/>
      <point x="890" y="682"/>
      <point x="890" y="790" type="curve"/>
      <point x="890" y="890"/>
      <point x="1132" y="902"/>
      <point x="1132" y="1124" type="curve" smooth="yes" name="hr02"/>
      <point x="1132" y="1260"/>
      <point x="1010" y="1488"/>
    </contour>
  </outline>
</glyph>
<glyph name="ae" format="2">
  <advance width="1628"/>
  <unicode hex="00E6"/>
  <anchor x="814" y="1120" name="top"/>
  <anchor x="797" y="-70" name="bottom"/>
  <outline>
    <contour>
      <point x="1146" y="1056" type="curve" smooth="yes"/>
      <point x="844" y="1056"/>
      <point x="684" y="820"/>
      <point x="684" y="542" type="curve" smooth="yes"/>
      <point x="684" y="144"/>
      <point x="906" y="-16"/>
      <point x="1138" y="-16" type="curve" smooth="yes"/>
      <point x="1276" y="-16"/>
      <point x="1446" y="14"/>
      <point x="1574" y="164" type="curve"/>
      <point x="1490" y="272" type="line"/>
      <point x="1478" y="290"/>
      <point x="1458" y="300"/>
      <point x="1428" y="300" type="curve" smooth="yes"/>
      <point x="1360" y="300"/>
      <point x="1346" y="226"/>
      <point x="1168" y="226" type="curve" smooth="yes"/>
      <point x="1022" y="226"/>
      <point x="932" y="318"/>
      <point x="932" y="542" type="curve" smooth="yes"/>
      <point x="932" y="728"/>
      <point x="994" y="832"/>
      <point x="1132" y="832" type="curve" smooth="yes"/>
      <point x="1258" y="832"/>
      <point x="1300" y="716"/>
      <point x="1300" y="626" type="curve"/>
      <point x="870" y="626" type="line"/>
      <point x="876" y="438" type="line"/>
      <point x="1508" y="438" type="line" smooth="yes"/>
      <point x="1564" y="438"/>
      <point x="1576" y="462"/>
      <point x="1576" y="558" type="curve" smooth="yes"/>
      <point x="1576" y="860"/>
      <point x="1392" y="1056"/>
    </contour>
    <contour>
      <point x="852" y="430" type="line"/>
      <point x="872" y="648" type="line"/>
      <point x="872" y="886"/>
      <point x="770" y="1060"/>
      <point x="504" y="1060" type="curve" smooth="yes"/>
      <point x="342" y="1060"/>
      <point x="208" y="1006"/>
      <point x="84" y="896" type="curve"/>
      <point x="140" y="794" type="line"/>
      <point x="158" y="764"/>
      <point x="188" y="738"/>
      <point x="230" y="738" type="curve" smooth="yes"/>
      <point x="326" y="738"/>
      <point x="352" y="822"/>
      <point x="498" y="822" type="curve" smooth="yes"/>
      <point x="590" y="822"/>
      <point x="642" y="764"/>
      <point x="642" y="648" type="curve" smooth="yes"/>
      <point x="642" y="430" type="line"/>
    </contour>
    <contour>
      <point x="642" y="430" type="line"/>
      <point x="642" y="256"/>
      <point x="558" y="198"/>
      <point x="446" y="198" type="curve" smooth="yes"/>
      <point x="372" y="198"/>
      <point x="332" y="232"/>
      <point x="332" y="298" type="curve" smooth="yes" name="hr01"/>
      <point x="332" y="368"/>
      <point x="402" y="434"/>
      <point x="686" y="440" type="curve"/>
      <point x="646" y="628" type="line"/>
      <point x="168" y="618"/>
      <point x="36" y="430"/>
      <point x="36" y="282" type="curve" smooth="yes"/>
      <point x="36" y="96"/>
      <point x="158" y="-16"/>
      <point x="370" y="-16" type="curve" smooth="yes"/>
      <point x="628" y="-16"/>
      <point x="852" y="114"/>
      <point x="852" y="430" type="curve"/>
    </contour>
  </outline>
</glyph>
<glyph name="ccedilla" format="2">
  <advance width="975"/>
  <unicode hex="00E7"/>
  <anchor x="561" y="1120" name="top"/>
  <anchor x="547" y="-421" name="bottom"/>
  <outline>
    <contour>
      <point x="949" y="900" type="line"/>
      <point x="851" y="1002"/>
      <point x="731" y="1056"/>
      <point x="569" y="1056" type="curve" smooth="yes"/>
      <point x="231" y="1056"/>
      <point x="51" y="822"/>
      <point x="51" y="522" type="curve" smooth="yes"/>
      <point x="51" y="180"/>
      <point x="273" y="-16"/>
      <point x="527" y="-16" type="curve" smooth="yes"/>
      <point x="669" y="-16"/>
      <point x="829" y="14"/>
      <point x="957" y="164" type="curve"/>
      <point x="867" y="280" type="line"/>
      <point x="855" y="298"/>
      <point x="835" y="308"/>
      <point x="811" y="308" type="curve" smooth="yes"/>
      <point x="737" y="308"/>
      <point x="729" y="222"/>
      <point x="585" y="222" type="curve" smooth="yes"/>
      <point x="451" y="222"/>
      <point x="369" y="330"/>
      <point x="369" y="522" type="curve" smooth="yes"/>
      <point x="369" y="706"/>
      <point x="437" y="818"/>
      <point x="589" y="818" type="curve" smooth="yes"/>
      <point x="713" y="818"/>
      <point x="743" y="748"/>
      <point x="803" y="748" type="curve" smooth="yes"/>
      <point x="835" y="748"/>
      <point x="849" y="762"/>
      <point x="867" y="786" type="curve" smooth="yes"/>
    </contour>
    <contour>
      <point x="416" y="-216" type="curve" smooth="yes"/>
      <point x="396" y="-216"/>
      <point x="386" y="-226"/>
      <point x="382" y="-244" type="curve"/>
      <point x="354" y="-342" type="line"/>
      <point x="404" y="-352"/>
      <point x="448" y="-356"/>
      <point x="502" y="-356" type="curve" smooth="yes"/>
      <point x="662" y="-356"/>
      <point x="770" y="-296"/>
      <point x="770" y="-202" type="curve" smooth="yes"/>
      <point x="770" y="-124"/>
      <point x="718" y="-58"/>
      <point x="526" y="-32" type="curve"/>
      <point x="594" y="-92" type="line"/>
      <point x="631" y="46" type="line"/>
      <point x="459" y="46" type="line"/>
      <point x="394" y="-146" type="line"/>
      <point x="492" y="-160"/>
      <point x="528" y="-170"/>
      <point x="528" y="-196" type="curve" smooth="yes"/>
      <point x="528" y="-208"/>
      <point x="514" y="-222"/>
      <point x="480" y="-222" type="curve" smooth="yes"/>
      <point x="452" y="-222"/>
      <point x="436" y="-216"/>
    </contour>
  </outline>
</glyph>
<glyph name="eth" format="2">
  <advance width="1149"/>
  <unicode hex="00F0"/>
  <guideline y="1406"/>
  <anchor x="636" y="1525" name="Top"/>
  <anchor x="636" y="1525" name="top"/>
  <anchor x="556" y="-70" name="bottom"/>
  <outline>
    <contour>
      <point x="317" y="1450" type="curve"/>
      <point x="281" y="1342" type="line"/>
      <point x="251" y="1260"/>
      <point x="287" y="1212"/>
      <point x="341" y="1196" type="curve" smooth="yes"/>
      <point x="737" y="1082"/>
      <point x="823" y="924"/>
      <point x="823" y="602" type="curve"/>
      <point x="799" y="598" type="line"/>
      <point x="799" y="298"/>
      <point x="689" y="222"/>
      <point x="563" y="222" type="curve" smooth="yes"/>
      <point x="445" y="222"/>
      <point x="355" y="310"/>
      <point x="355" y="480" type="curve" smooth="yes"/>
      <point x="355" y="600"/>
      <point x="433" y="698"/>
      <point x="577" y="698" type="curve" smooth="yes"/>
      <point x="709" y="698"/>
      <point x="779" y="620"/>
      <point x="815" y="518" type="curve"/>
      <point x="951" y="592" type="line"/>
      <point x="871" y="804"/>
      <point x="733" y="936"/>
      <point x="513" y="936" type="curve" smooth="yes"/>
      <point x="235" y="936"/>
      <point x="47" y="722"/>
      <point x="47" y="482" type="curve" smooth="yes"/>
      <point x="47" y="168"/>
      <point x="265" y="-16"/>
      <point x="555" y="-16" type="curve" smooth="yes"/>
      <point x="897" y="-16"/>
      <point x="1091" y="210"/>
      <point x="1091" y="612" type="curve" smooth="yes"/>
      <point x="1091" y="1122"/>
      <point x="747" y="1380"/>
    </contour>
    <contour>
      <point x="407" y="958" type="line"/>
      <point x="681" y="1118" type="line"/>
      <point x="707" y="1122" type="line"/>
      <point x="923" y="1228" type="line"/>
      <point x="957" y="1248"/>
      <point x="969" y="1286"/>
      <point x="947" y="1322" type="curve" smooth="yes"/>
      <point x="885" y="1424" type="line"/>
      <point x="607" y="1262" type="line"/>
      <point x="583" y="1258" type="line"/>
      <point x="377" y="1158" type="line"/>
      <point x="337" y="1136"/>
      <point x="325" y="1098"/>
      <point x="349" y="1058" type="curve" smooth="yes"/>
    </contour>
  </outline>
</glyph>
<glyph name="divide" format="2">
  <advance width="1160"/>
  <unicode hex="00F7"/>
  <outline>
    <contour>
      <point x="85" y="556" type="line"/>
      <point x="1075" y="556" type="line"/>
      <point x="1075" y="788" type="line"/>
      <point x="85" y="788" type="line"/>
    </contour>
    <contour>
      <point x="403" y="1028" type="curve" smooth="yes"/>
      <point x="403" y="928"/>
      <point x="479" y="852"/>
      <point x="579" y="852" type="curve" smooth="yes"/>
      <point x="677" y="852"/>
      <point x="755" y="928"/>
      <point x="755" y="1028" type="curve" smooth="yes"/>
      <point x="755" y="1126"/>
      <point x="677" y="1204"/>
      <point x="579" y="1204" type="curve" smooth="yes"/>
      <point x="479" y="1204"/>
      <point x="403" y="1126"/>
    </contour>
    <contour>
      <point x="403" y="316" type="curve" smooth="yes"/>
      <point x="403" y="216"/>
      <point x="479" y="140"/>
      <point x="579" y="140" type="curve" smooth="yes"/>
      <point x="677" y="140"/>
      <point x="755" y="216"/>
      <point x="755" y="316" type="curve" smooth="yes"/>
      <point x="755" y="414"/>
      <point x="677" y="492"/>
      <point x="579" y="492" type="curve" smooth="yes"/>
      <point x="479" y="492"/>
      <point x="403" y="414"/>
    </contour>
  </outline>
</glyph>
<glyph name="oslash" format="2">
  <advance width="1162"/>
  <unicode hex="00F8"/>
  <anchor x="582" y="1120" name="top"/>
  <anchor x="559" y="-70" name="bottom"/>
  <outline>
    <contour>
      <point x="583" y="1056" type="curve" smooth="yes"/>
      <point x="267" y="1056"/>
      <point x="51" y="852"/>
      <point x="51" y="522" type="curve" smooth="yes"/>
      <point x="51" y="190"/>
      <point x="267" y="-16"/>
      <point x="583" y="-16" type="curve" smooth="yes"/>
      <point x="897" y="-16"/>
      <point x="1111" y="190"/>
      <point x="1111" y="522" type="curve" smooth="yes"/>
      <point x="1111" y="852"/>
      <point x="897" y="1056"/>
    </contour>
    <contour>
      <point x="583" y="214" type="curve" smooth="yes"/>
      <point x="437" y="214"/>
      <point x="351" y="300"/>
      <point x="351" y="520" type="curve" smooth="yes"/>
      <point x="351" y="720"/>
      <point x="437" y="826"/>
      <point x="583" y="826" type="curve" smooth="yes"/>
      <point x="725" y="826"/>
      <point x="811" y="740"/>
      <point x="811" y="520" type="curve" smooth="yes"/>
      <point x="811" y="320"/>
      <point x="725" y="214"/>
    </contour>
    <contour>
      <point x="1157" y="1152" type="line"/>
      <point x="1005" y="1152" type="line" smooth="yes"/>
      <point x="933" y="1152"/>
      <point x="907" y="1132"/>
      <point x="867" y="1070" type="curve"/>
      <point x="25" y="-78" type="line"/>
      <point x="137" y="-78" type="line" smooth="yes"/>
      <point x="201" y="-78"/>
      <point x="277" y="-56"/>
      <point x="321" y="12" type="curve"/>
    </contour>
  </outline>
</glyph>
<glyph name="thorn" format="2">
  <advance width="1150"/>
  <unicode hex="00FE"/>
  <anchor x="338" y="1525" name="Top"/>
  <anchor x="338" y="1525" name="top"/>
  <anchor x="534" y="-421" name="bottom"/>
  <outline>
    <contour>
      <point x="415" y="-328" type="line"/>
      <point x="415" y="1500" type="line"/>
      <point x="105" y="1500" type="line"/>
      <point x="105" y="-328" type="line"/>
    </contour>
    <contour>
      <point x="377" y="128" type="line"/>
      <point x="447" y="46"/>
      <point x="517" y="-16"/>
      <point x="651" y="-16" type="curve" smooth="yes"/>
      <point x="915" y="-16"/>
      <point x="1095" y="216"/>
      <point x="1095" y="528" type="curve" smooth="yes"/>
      <point x="1095" y="862"/>
      <point x="935" y="1056"/>
      <point x="719" y="1056" type="curve" smooth="yes"/>
      <point x="545" y="1056"/>
      <point x="437" y="970"/>
      <point x="345" y="852" type="curve"/>
      <point x="381" y="676" type="line"/>
      <point x="449" y="764"/>
      <point x="501" y="812"/>
      <point x="611" y="812" type="curve" smooth="yes"/>
      <point x="709" y="812"/>
      <point x="775" y="742"/>
      <point x="775" y="528" type="curve" smooth="yes"/>
      <point x="775" y="302"/>
      <point x="691" y="222"/>
      <point x="577" y="222" type="curve" smooth="yes"/>
      <point x="513" y="222"/>
      <point x="453" y="242"/>
      <point x="403" y="300" type="curve"/>
    </contour>
  </outline>
</glyph>
<glyph name="dcroat" format="2">
  <advance width="1150"/>
  <unicode hex="0111"/>
  <anchor x="835" y="1525" name="Top"/>
  <anchor x="835" y="1525" name="top"/>
  <anchor x="599" y="-70" name="bottom"/>
  <outline>
    <contour>
      <point x="518" y="1120" type="line"/>
      <point x="1186" y="1120" type="line"/>
      <point x="1186" y="1312" type="line"/>
      <point x="518" y="1312" type="line"/>
    </contour>
    <contour>
      <point x="1046" y="0" type="line"/>
      <point x="1046" y="1500" type="line"/>
      <point x="736" y="1500" type="line"/>
      <point x="736" y="170" type="line"/>
      <point x="746" y="154" type="line"/>
      <point x="778" y="54" type="line" smooth="yes"/>
      <point x="790" y="18"/>
      <point x="816" y="0"/>
      <point x="854" y="0" type="curve"/>
    </contour>
    <contour>
      <point x="798" y="874" type="line"/>
      <point x="722" y="958"/>
      <point x="646" y="1020"/>
      <point x="500" y="1020" type="curve" smooth="yes"/>
      <point x="236" y="1020"/>
      <point x="56" y="808"/>
      <point x="56" y="496" type="curve" smooth="yes"/>
      <point x="56" y="162"/>
      <point x="216" y="-16"/>
      <point x="432" y="-16" type="curve" smooth="yes" name="hr01"/>
      <point x="606" y="-16"/>
      <point x="714" y="74"/>
      <point x="806" y="192" type="curve"/>
      <point x="770" y="368" type="line"/>
      <point x="702" y="280"/>
      <point x="650" y="232"/>
      <point x="540" y="232" type="curve" smooth="yes"/>
      <point x="442" y="232"/>
      <point x="376" y="282"/>
      <point x="376" y="496" type="curve" smooth="yes"/>
      <point x="376" y="722"/>
      <point x="460" y="782"/>
      <point x="574" y="782" type="curve" smooth="yes"/>
      <point x="638" y="782"/>
      <point x="698" y="762"/>
      <point x="748" y="704" type="curve"/>
    </contour>
  </outline>
</glyph>
<glyph name="Hbar" format="2">
  <advance width="1578"/>
  <unicode hex="0126"/>
  <anchor x="789" y="1525" name="Top"/>
  <anchor x="789" y="1525" name="top"/>
  <anchor x="791" y="-70" name="bottom"/>
  <anchor x="-107" y="1120" name="onRight"/>
  <outline>
    <component base="H" xOffset="12"/>
    <contour>
      <point x="13" y="1034" type="line"/>
      <point x="1565" y="1034" type="line"/>
      <point x="1565" y="1232" type="line"/>
      <point x="13" y="1232" type="line"/>
    </contour>
  </outline>
</glyph>
<glyph name="idotless" format="2">
  <advance width="536"/>
  <unicode hex="0131"/>
  <anchor x="277" y="1120" name="top"/>
  <anchor x="268" y="-70" name="bottom"/>
  <outline>
    <contour>
      <point x="113" y="1040" type="line"/>
      <point x="113" y="0" type="line"/>
      <point x="423" y="0" type="line"/>
      <point x="423" y="1040" type="line"/>
    </contour>
  </outline>
</glyph>
<glyph name="Lslash" format="2">
  <advance width="1085"/>
  <unicode hex="0141"/>
  <anchor x="369" y="1525" name="Top"/>
  <anchor x="369" y="1525" name="top"/>
  <anchor x="590" y="-70" name="bottom"/>
  <anchor x="348" y="728" name="Bar"/>
  <outline>
    <component base="L" xOffset="35"/>
    <contour>
      <point x="2" y="416" type="line"/>
      <point x="388" y="608" type="line"/>
      <point x="396" y="590" type="line"/>
      <point x="808" y="802" type="line"/>
      <point x="834" y="812"/>
      <point x="848" y="834"/>
      <point x="848" y="866" type="curve" smooth="yes"/>
      <point x="848" y="1098" type="line"/>
      <point x="396" y="876" type="line"/>
      <point x="390" y="894" type="line"/>
      <point x="38" y="710" type="line"/>
      <point x="14" y="700"/>
      <point x="2" y="680"/>
      <point x="2" y="654" type="curve" smooth="yes"/>
    </contour>
  </outline>
</glyph>
<glyph name="lslash" format="2">
  <advance width="698"/>
  <unicode hex="0142"/>
  <anchor x="350" y="1525" name="Top"/>
  <anchor x="350" y="1525" name="top"/>
  <anchor x="349" y="-70" name="bottom"/>
  <anchor x="501" y="222" name="hook"/>
  <anchor x="356" y="756" name="bar"/>
  <outline>
    <contour>
      <point x="35" y="593" type="line"/>
      <point x="350" y="718" type="line"/>
      <point x="358" y="700" type="line"/>
      <point x="630" y="811" type="line" smooth="yes"/>
      <point x="656" y="821"/>
      <point x="670" y="843"/>
      <point x="670" y="875" type="curve" smooth="yes"/>
      <point x="670" y="1057" type="line"/>
      <point x="358" y="936" type="line"/>
      <point x="352" y="954" type="line"/>
      <point x="71" y="837" type="line" smooth="yes"/>
      <point x="47" y="827"/>
      <point x="35" y="807"/>
      <point x="35" y="781" type="curve" smooth="yes"/>
    </contour>
    <component base="l" xOffset="86"/>
  </outline>
</glyph>
<glyph name="Eng" format="2">
  <advance width="1554"/>
  <unicode hex="014A"/>
  <anchor x="785" y="1525" name="Top"/>
  <anchor x="785" y="1525" name="top"/>
  <anchor x="777" y="-421" name="bottom"/>
  <outline>
    <contour>
      <point x="1165" y="500" type="line"/>
      <point x="431" y="1406" type="line"/>
      <point x="395" y="1452"/>
      <point x="377" y="1460"/>
      <point x="319" y="1460" type="curve" smooth="yes"/>
      <point x="141" y="1460" type="line"/>
      <point x="141" y="0" type="line"/>
      <point x="439" y="0" type="line"/>
      <point x="439" y="754" type="line" smooth="yes"/>
      <point x="439" y="846"/>
      <point x="429" y="978"/>
      <point x="407" y="1070" type="curve"/>
      <point x="389" y="960" type="line"/>
      <point x="1119" y="58" type="line" smooth="yes"/>
      <point x="1153" y="16"/>
      <point x="1185" y="0"/>
      <point x="1237" y="0" type="curve"/>
      <point x="1413" y="87" type="line"/>
      <point x="1413" y="1460" type="line"/>
      <point x="1115" y="1460" type="line"/>
      <point x="1115" y="716" type="line" smooth="yes"/>
      <point x="1115" y="614"/>
      <point x="1129" y="472"/>
      <point x="1151" y="370" type="curve"/>
    </contour>
    <contour>
      <point x="1413" y="366" type="line"/>
      <point x="1114" y="366" type="line"/>
      <point x="1114" y="35" type="line" smooth="yes"/>
      <point x="1114" y="-75"/>
      <point x="1072" y="-125"/>
      <point x="984" y="-125" type="curve" smooth="yes"/>
      <point x="947" y="-125"/>
      <point x="934" y="-116"/>
      <point x="911" y="-116" type="curve" smooth="yes"/>
      <point x="882" y="-116"/>
      <point x="857" y="-127"/>
      <point x="844" y="-175" type="curve"/>
      <point x="810" y="-312" type="line"/>
      <point x="881" y="-343"/>
      <point x="935" y="-356"/>
      <point x="1013" y="-356" type="curve" smooth="yes"/>
      <point x="1305" y="-356"/>
      <point x="1413" y="-173"/>
      <point x="1413" y="72" type="curve"/>
    </contour>
  </outline>
</glyph>
<glyph name="eng" format="2">
  <advance width="1140"/>
  <unicode hex="014B"/>
  <anchor x="575" y="1120" name="top"/>
  <anchor x="575" y="-421" name="bottom"/>
  <outline>
    <contour>
      <point x="415" y="0" type="line"/>
      <point x="415" y="870" type="line"/>
      <point x="405" y="886" type="line"/>
      <point x="373" y="986" type="line" smooth="yes"/>
      <point x="361" y="1022"/>
      <point x="335" y="1040"/>
      <point x="297" y="1040" type="curve" smooth="yes"/>
      <point x="105" y="1040" type="line"/>
      <point x="105" y="0" type="line"/>
    </contour>
    <contour>
      <point x="1045" y="660" type="line" smooth="yes"/>
      <point x="1045" y="888"/>
      <point x="919" y="1056"/>
      <point x="693" y="1056" type="curve" smooth="yes" name="hr01"/>
      <point x="519" y="1056"/>
      <point x="423" y="968"/>
      <point x="321" y="856" type="curve"/>
      <point x="357" y="676" type="line"/>
      <point x="427" y="756"/>
      <point x="505" y="812"/>
      <point x="597" y="812" type="curve" smooth="yes"/>
      <point x="687" y="812"/>
      <point x="735" y="756"/>
      <point x="735" y="660" type="curve"/>
      <point x="735" y="660" type="line"/>
      <point x="735" y="35" type="line" smooth="yes"/>
      <point x="735" y="-75"/>
      <point x="693" y="-125"/>
      <point x="605" y="-125" type="curve" smooth="yes"/>
      <point x="568" y="-125"/>
      <point x="555" y="-116"/>
      <point x="532" y="-116" type="curve" smooth="yes"/>
      <point x="503" y="-116"/>
      <point x="478" y="-127"/>
      <point x="465" y="-175" type="curve"/>
      <point x="431" y="-312" type="line"/>
      <point x="502" y="-343"/>
      <point x="556" y="-356"/>
      <point x="634" y="-356" type="curve" smooth="yes"/>
      <point x="926" y="-356"/>
      <point x="1045" y="-173"/>
      <point x="1045" y="72" type="curve"/>
    </contour>
  </outline>
</glyph>
<glyph name="OE" format="2">
  <advance width="2147"/>
  <unicode hex="0152"/>
  <anchor x="1071" y="1525" name="Top"/>
  <anchor x="1071" y="1525" name="top"/>
  <anchor x="1199" y="-70" name="bottom"/>
  <outline>
    <contour>
      <point x="1418" y="730" type="curve" smooth="yes"/>
      <point x="1418" y="1148"/>
      <point x="1148" y="1476"/>
      <point x="742" y="1476" type="curve" smooth="yes"/>
      <point x="332" y="1476"/>
      <point x="60" y="1150"/>
      <point x="60" y="730" type="curve" smooth="yes"/>
      <point x="60" y="310"/>
      <point x="332" y="-16"/>
      <point x="742" y="-16" type="curve" smooth="yes"/>
      <point x="1148" y="-16"/>
      <point x="1418" y="310"/>
    </contour>
    <contour>
      <point x="1482" y="1460" type="line"/>
      <point x="1182" y="1460" type="line" name="hr01"/>
      <point x="1182" y="0" type="line"/>
      <point x="1482" y="0" type="line"/>
    </contour>
    <contour>
      <point x="1450" y="864" type="line"/>
      <point x="1450" y="602" type="line"/>
      <point x="1940" y="602" type="line"/>
      <point x="1940" y="864" type="line"/>
    </contour>
    <contour>
      <point x="1450" y="1460" type="line"/>
      <point x="1450" y="1188" type="line"/>
      <point x="2080" y="1188" type="line"/>
      <point x="2080" y="1460" type="line"/>
    </contour>
    <contour>
      <point x="1450" y="272" type="line"/>
      <point x="1450" y="0" type="line"/>
      <point x="2080" y="0" type="line"/>
      <point x="2080" y="272" type="line"/>
    </contour>
    <contour>
      <point x="1142" y="730" type="curve" smooth="yes"/>
      <point x="1142" y="446"/>
      <point x="1008" y="266"/>
      <point x="776" y="266" type="curve" smooth="yes"/>
      <point x="540" y="266"/>
      <point x="406" y="446"/>
      <point x="406" y="730" type="curve" smooth="yes"/>
      <point x="406" y="1012"/>
      <point x="540" y="1194"/>
      <point x="776" y="1194" type="curve" smooth="yes"/>
      <point x="1008" y="1194"/>
      <point x="1142" y="1012"/>
    </contour>
  </outline>
</glyph>
<glyph name="oe" format="2">
  <advance width="1757"/>
  <unicode hex="0153"/>
  <anchor x="890" y="1120" name="top"/>
  <anchor x="919" y="-70" name="bottom"/>
  <outline>
    <contour>
      <point x="547" y="1056" type="curve" smooth="yes"/>
      <point x="261" y="1056"/>
      <point x="51" y="852"/>
      <point x="51" y="522" type="curve" smooth="yes"/>
      <point x="51" y="190"/>
      <point x="261" y="-16"/>
      <point x="535" y="-16" type="curve" smooth="yes"/>
      <point x="829" y="-16"/>
      <point x="1017" y="190"/>
      <point x="1017" y="522" type="curve" smooth="yes"/>
      <point x="1017" y="852"/>
      <point x="829" y="1056"/>
    </contour>
    <contour>
      <point x="565" y="224" type="curve" smooth="yes"/>
      <point x="431" y="224"/>
      <point x="371" y="320"/>
      <point x="371" y="520" type="curve" smooth="yes"/>
      <point x="371" y="720"/>
      <point x="431" y="816"/>
      <point x="565" y="816" type="curve" smooth="yes"/>
      <point x="697" y="816"/>
      <point x="757" y="720"/>
      <point x="757" y="520" type="curve" smooth="yes"/>
      <point x="757" y="320"/>
      <point x="697" y="224"/>
    </contour>
    <contour>
      <point x="1275" y="1056" type="curve" smooth="yes"/>
      <point x="973" y="1056"/>
      <point x="813" y="820"/>
      <point x="813" y="542" type="curve" smooth="yes"/>
      <point x="813" y="144"/>
      <point x="1035" y="-16"/>
      <point x="1267" y="-16" type="curve" smooth="yes"/>
      <point x="1405" y="-16"/>
      <point x="1575" y="14"/>
      <point x="1703" y="164" type="curve"/>
      <point x="1611" y="280" type="line"/>
      <point x="1599" y="298"/>
      <point x="1579" y="308"/>
      <point x="1557" y="308" type="curve" smooth="yes"/>
      <point x="1481" y="308"/>
      <point x="1433" y="226"/>
      <point x="1297" y="226" type="curve" smooth="yes"/>
      <point x="1151" y="226"/>
      <point x="1061" y="318"/>
      <point x="1061" y="542" type="curve" smooth="yes"/>
      <point x="1061" y="728"/>
      <point x="1123" y="832"/>
      <point x="1261" y="832" type="curve" smooth="yes"/>
      <point x="1387" y="832"/>
      <point x="1429" y="716"/>
      <point x="1429" y="626" type="curve"/>
      <point x="999" y="626" type="line"/>
      <point x="1005" y="438" type="line"/>
      <point x="1637" y="438" type="line" smooth="yes"/>
      <point x="1693" y="438"/>
      <point x="1705" y="462"/>
      <point x="1705" y="558" type="curve" smooth="yes"/>
      <point x="1705" y="860"/>
      <point x="1521" y="1056"/>
    </contour>
  </outline>
</glyph>
<glyph name="Tbar" format="2">
  <advance width="1238"/>
  <unicode hex="0166"/>
  <anchor x="623" y="1525" name="Top"/>
  <anchor x="623" y="1525" name="top"/>
  <anchor x="623" y="-70" name="bottom"/>
  <anchor x="662" y="728" name="Slash"/>
  <outline>
    <component base="T" xOffset="10"/>
    <contour>
      <point x="150" y="662" type="line"/>
      <point x="1088" y="662" type="line"/>
      <point x="1088" y="854" type="line"/>
      <point x="150" y="854" type="line"/>
    </contour>
  </outline>
</glyph>
<glyph name="tbar" format="2">
  <advance width="777"/>
  <unicode hex="0167"/>
  <anchor x="373" y="1457" name="top"/>
  <anchor x="469" y="-70" name="bottom"/>
  <anchor x="440" y="728" name="Slash"/>
  <anchor x="332" y="473" name="bar"/>
  <outline>
    <component base="t" xOffset="2"/>
    <contour>
      <point x="54" y="504" type="line"/>
      <point x="752" y="504" type="line"/>
      <point x="752" y="696" type="line"/>
      <point x="54" y="696" type="line"/>
    </contour>
  </outline>
</glyph>
<glyph name="longs" format="2">
  <advance width="636"/>
  <unicode hex="017F"/>
  <anchor x="553" y="1518" name="top"/>
  <anchor x="418" y="1525" name="Top"/>
  <anchor x="337" y="-70" name="bottom"/>
  <outline>
    <contour>
      <point x="492" y="0" type="line"/>
      <point x="492" y="1084" type="line" smooth="yes"/>
      <point x="492" y="1216"/>
      <point x="542" y="1262"/>
      <point x="652" y="1262" type="curve" smooth="yes"/>
      <point x="686" y="1262"/>
      <point x="724" y="1272"/>
      <point x="726" y="1306" type="curve" smooth="yes"/>
      <point x="736" y="1470" type="line"/>
      <point x="690" y="1482"/>
      <point x="648" y="1488"/>
      <point x="598" y="1488" type="curve" smooth="yes"/>
      <point x="338" y="1488"/>
      <point x="182" y="1332"/>
      <point x="182" y="1094" type="curve" smooth="yes"/>
      <point x="182" y="0" type="line"/>
    </contour>
    <contour>
      <point x="414" y="818" type="line"/>
      <point x="414" y="1040" type="line"/>
      <point x="36" y="1040" type="line"/>
      <point x="36" y="912" type="line"/>
      <point x="36" y="866"/>
      <point x="68" y="844"/>
      <point x="114" y="834" type="curve" smooth="yes"/>
      <point x="238" y="808" type="line"/>
      <point x="278" y="818" type="line"/>
    </contour>
  </outline>
</glyph>
<glyph name="bstroke" format="2">
  <advance width="1150"/>
  <unicode hex="0180"/>
  <anchor x="322" y="1525" name="Top"/>
  <anchor x="322" y="1525" name="top"/>
  <anchor x="537" y="-70" name="bottom"/>
  <outline>
    <contour>
      <point x="310" y="0" type="line" smooth="yes"/>
      <point x="350" y="0"/>
      <point x="374" y="14"/>
      <point x="384" y="58" type="curve" smooth="yes"/>
      <point x="404" y="150" type="line"/>
      <point x="414" y="168" type="line"/>
      <point x="414" y="1500" type="line"/>
      <point x="104" y="1500" type="line"/>
      <point x="104" y="0" type="line"/>
    </contour>
    <contour>
      <point x="376" y="128" type="line"/>
      <point x="446" y="46"/>
      <point x="516" y="-16"/>
      <point x="650" y="-16" type="curve" smooth="yes" name="hr01"/>
      <point x="914" y="-16"/>
      <point x="1094" y="196"/>
      <point x="1094" y="508" type="curve" smooth="yes"/>
      <point x="1094" y="842"/>
      <point x="934" y="1016"/>
      <point x="718" y="1016" type="curve" smooth="yes"/>
      <point x="544" y="1016"/>
      <point x="436" y="930"/>
      <point x="344" y="812" type="curve"/>
      <point x="380" y="636" type="line"/>
      <point x="448" y="724"/>
      <point x="500" y="772"/>
      <point x="610" y="772" type="curve" smooth="yes"/>
      <point x="708" y="772"/>
      <point x="774" y="722"/>
      <point x="774" y="508" type="curve" smooth="yes"/>
      <point x="774" y="282"/>
      <point x="690" y="222"/>
      <point x="576" y="222" type="curve" smooth="yes"/>
      <point x="512" y="222"/>
      <point x="452" y="242"/>
      <point x="402" y="300" type="curve"/>
    </contour>
    <contour>
      <point x="-36" y="1120" type="line"/>
      <point x="632" y="1120" type="line"/>
      <point x="632" y="1312" type="line"/>
      <point x="-36" y="1312" type="line"/>
    </contour>
  </outline>
</glyph>
<glyph name="Bhook" format="2">
  <advance width="1690"/>
  <unicode hex="0181"/>
  <anchor x="800" y="1525" name="Top"/>
  <anchor x="800" y="1525" name="top"/>
  <anchor x="985" y="-70" name="bottom"/>
  <outline>
    <contour>
      <point x="1074" y="0" type="line" smooth="yes"/>
      <point x="1424" y="0"/>
      <point x="1620" y="194"/>
      <point x="1620" y="442" type="curve" smooth="yes"/>
      <point x="1620" y="674"/>
      <point x="1440" y="786"/>
      <point x="1050" y="786" type="curve"/>
      <point x="964" y="700" type="line"/>
      <point x="1418" y="700"/>
      <point x="1586" y="862"/>
      <point x="1586" y="1064" type="curve" smooth="yes" name="hr01"/>
      <point x="1586" y="1304"/>
      <point x="1430" y="1460"/>
      <point x="1028" y="1460" type="curve" smooth="yes"/>
      <point x="492" y="1460" type="line"/>
      <point x="492" y="0" type="line"/>
      <point x="830" y="0" type="line"/>
      <point x="830" y="1196" type="line"/>
      <point x="1028" y="1196" type="line" smooth="yes"/>
      <point x="1180" y="1196"/>
      <point x="1248" y="1156"/>
      <point x="1248" y="1022" type="curve" smooth="yes"/>
      <point x="1248" y="880"/>
      <point x="1156" y="850"/>
      <point x="1006" y="850" type="curve"/>
      <point x="800" y="850" type="line"/>
      <point x="800" y="614" type="line"/>
      <point x="1066" y="614" type="line" smooth="yes"/>
      <point x="1236" y="614"/>
      <point x="1286" y="552"/>
      <point x="1286" y="450" type="curve" smooth="yes" name="hr02"/>
      <point x="1286" y="364"/>
      <point x="1248" y="266"/>
      <point x="1068" y="266" type="curve" smooth="yes"/>
      <point x="788" y="266" type="line"/>
      <point x="626" y="0" type="line"/>
    </contour>
    <contour>
      <point x="522" y="1213" type="line"/>
      <point x="522" y="1213"/>
      <point x="522" y="1460"/>
      <point x="522" y="1460" type="curve"/>
      <point x="488" y="1460" type="line" smooth="yes"/>
      <point x="189" y="1460"/>
      <point x="21" y="1306"/>
      <point x="21" y="1069" type="curve" smooth="yes"/>
      <point x="21" y="984"/>
      <point x="37" y="924"/>
      <point x="65" y="851" type="curve"/>
      <point x="262" y="895" type="line"/>
      <point x="323" y="911"/>
      <point x="328" y="953"/>
      <point x="318" y="992" type="curve" smooth="yes"/>
      <point x="316" y="1000"/>
      <point x="307" y="1031"/>
      <point x="307" y="1066" type="curve" smooth="yes"/>
      <point x="307" y="1164"/>
      <point x="350" y="1213"/>
      <point x="488" y="1213" type="curve" smooth="yes"/>
    </contour>
  </outline>
</glyph>
<glyph name="Btopbar" format="2">
  <advance width="1277"/>
  <unicode hex="0182"/>
  <anchor x="541" y="1525" name="Top"/>
  <anchor x="541" y="1525" name="top"/>
  <anchor x="611" y="-70" name="bottom"/>
  <outline>
    <contour>
      <point x="1173" y="1460" type="line"/>
      <point x="141" y="1460" type="line"/>
      <point x="141" y="0" type="line"/>
      <point x="479" y="0" type="line"/>
      <point x="479" y="1196" type="line"/>
      <point x="1173" y="1196" type="line"/>
    </contour>
    <contour>
      <point x="469" y="880" type="line"/>
      <point x="469" y="614" type="line"/>
      <point x="675" y="614" type="line" smooth="yes"/>
      <point x="855" y="614"/>
      <point x="895" y="540"/>
      <point x="895" y="438" type="curve" smooth="yes"/>
      <point x="895" y="352"/>
      <point x="855" y="266"/>
      <point x="675" y="266" type="curve" smooth="yes"/>
      <point x="437" y="266" type="line"/>
      <point x="275" y="0" type="line"/>
      <point x="675" y="0" type="line" smooth="yes"/>
      <point x="1025" y="0"/>
      <point x="1229" y="190"/>
      <point x="1229" y="473" type="curve" smooth="yes"/>
      <point x="1229" y="688"/>
      <point x="1077" y="880"/>
      <point x="675" y="880" type="curve"/>
    </contour>
  </outline>
</glyph>
<glyph name="btopbar" format="2">
  <advance width="1149"/>
  <unicode hex="0183"/>
  <anchor x="533" y="1525" name="Top"/>
  <anchor x="533" y="1525" name="top"/>
  <anchor x="534" y="-70" name="bottom"/>
  <outline>
    <contour>
      <point x="311" y="0" type="line" smooth="yes"/>
      <point x="351" y="0"/>
      <point x="375" y="14"/>
      <point x="385" y="58" type="curve" smooth="yes"/>
      <point x="405" y="150" type="line"/>
      <point x="415" y="168" type="line"/>
      <point x="415" y="1500" type="line"/>
      <point x="105" y="1500" type="line"/>
      <point x="105" y="0" type="line"/>
    </contour>
    <contour>
      <point x="377" y="128" type="line"/>
      <point x="447" y="46"/>
      <point x="517" y="-16"/>
      <point x="651" y="-16" type="curve" smooth="yes" name="hr01"/>
      <point x="915" y="-16"/>
      <point x="1095" y="216"/>
      <point x="1095" y="528" type="curve" smooth="yes"/>
      <point x="1095" y="862"/>
      <point x="935" y="1056"/>
      <point x="719" y="1056" type="curve" smooth="yes"/>
      <point x="545" y="1056"/>
      <point x="437" y="970"/>
      <point x="345" y="852" type="curve"/>
      <point x="381" y="676" type="line"/>
      <point x="449" y="764"/>
      <point x="501" y="812"/>
      <point x="611" y="812" type="curve" smooth="yes"/>
      <point x="709" y="812"/>
      <point x="775" y="742"/>
      <point x="775" y="528" type="curve" smooth="yes"/>
      <point x="775" y="302"/>
      <point x="691" y="222"/>
      <point x="577" y="222" type="curve" smooth="yes"/>
      <point x="513" y="222"/>
      <point x="453" y="242"/>
      <point x="403" y="300" type="curve"/>
    </contour>
    <contour>
      <point x="105" y="1278" type="line"/>
      <point x="998" y="1278" type="line"/>
      <point x="998" y="1500" type="line"/>
      <point x="105" y="1500" type="line"/>
    </contour>
  </outline>
</glyph>
<glyph name="Tonesix" format="2">
  <advance width="1455"/>
  <unicode hex="0184"/>
  <anchor x="405" y="1525" name="Top"/>
  <anchor x="405" y="1525" name="top"/>
  <anchor x="778" y="-70" name="bottom"/>
  <outline>
    <contour>
      <point x="590" y="980" type="line"/>
      <point x="590" y="714" type="line"/>
      <point x="876" y="714" type="line" smooth="yes"/>
      <point x="1046" y="714"/>
      <point x="1096" y="602"/>
      <point x="1096" y="500" type="curve" smooth="yes"/>
      <point x="1096" y="414"/>
      <point x="1058" y="266"/>
      <point x="878" y="266" type="curve" smooth="yes"/>
      <point x="620" y="266" type="line"/>
      <point x="620" y="266" type="line"/>
      <point x="619" y="1460" type="line"/>
      <point x="372" y="1460" type="line"/>
      <point x="282" y="1303" type="line"/>
      <point x="282" y="0" type="line"/>
      <point x="884" y="0" type="line" smooth="yes"/>
      <point x="1234" y="0"/>
      <point x="1430" y="214"/>
      <point x="1430" y="492" type="curve" smooth="yes"/>
      <point x="1430" y="754"/>
      <point x="1250" y="980"/>
      <point x="860" y="980" type="curve"/>
    </contour>
    <contour>
      <point x="292" y="817" type="line"/>
      <point x="292" y="817"/>
      <point x="382" y="1460"/>
      <point x="382" y="1460" type="curve"/>
      <point x="372" y="1460" type="line"/>
      <point x="3" y="1013" type="line"/>
      <point x="282" y="817" type="line"/>
    </contour>
  </outline>
</glyph>
<glyph name="tonesix" format="2">
  <advance width="1204"/>
  <unicode hex="0185"/>
  <anchor x="360" y="1525" name="Top"/>
  <anchor x="360" y="1525" name="top"/>
  <anchor x="589" y="-70" name="bottom"/>
  <outline>
    <contour>
      <point x="366" y="0" type="line" smooth="yes"/>
      <point x="406" y="0"/>
      <point x="430" y="14"/>
      <point x="440" y="58" type="curve" smooth="yes"/>
      <point x="460" y="150" type="line"/>
      <point x="470" y="168" type="line"/>
      <point x="470" y="1500" type="line"/>
      <point x="239" y="1500" type="line"/>
      <point x="160" y="1374" type="line"/>
      <point x="160" y="0" type="line"/>
    </contour>
    <contour>
      <point x="432" y="128" type="line"/>
      <point x="502" y="46"/>
      <point x="572" y="-16"/>
      <point x="706" y="-16" type="curve" smooth="yes" name="hr01"/>
      <point x="970" y="-16"/>
      <point x="1150" y="216"/>
      <point x="1150" y="528" type="curve" smooth="yes"/>
      <point x="1150" y="862"/>
      <point x="990" y="1056"/>
      <point x="774" y="1056" type="curve" smooth="yes"/>
      <point x="600" y="1056"/>
      <point x="492" y="970"/>
      <point x="400" y="852" type="curve"/>
      <point x="436" y="676" type="line"/>
      <point x="504" y="764"/>
      <point x="556" y="812"/>
      <point x="666" y="812" type="curve" smooth="yes"/>
      <point x="764" y="812"/>
      <point x="830" y="742"/>
      <point x="830" y="528" type="curve" smooth="yes"/>
      <point x="830" y="302"/>
      <point x="746" y="222"/>
      <point x="632" y="222" type="curve" smooth="yes"/>
      <point x="568" y="222"/>
      <point x="508" y="242"/>
      <point x="458" y="300" type="curve"/>
    </contour>
    <contour>
      <point x="168" y="931" type="line"/>
      <point x="168" y="931"/>
      <point x="248" y="1500"/>
      <point x="248" y="1500" type="curve"/>
      <point x="239" y="1500" type="line"/>
      <point x="-87" y="1104" type="line"/>
      <point x="160" y="931" type="line"/>
    </contour>
  </outline>
</glyph>
<glyph name="Oopen" format="2">
  <advance width="1313"/>
  <unicode hex="0186"/>
  <anchor x="560" y="1525" name="Top"/>
  <anchor x="560" y="1525" name="top"/>
  <anchor x="544" y="-70" name="bottom"/>
  <outline>
    <contour>
      <point x="190" y="386" type="curve" smooth="yes"/>
      <point x="174" y="386"/>
      <point x="157" y="380"/>
      <point x="143" y="365" type="curve" smooth="yes"/>
      <point x="9" y="218" type="line"/>
      <point x="125" y="64"/>
      <point x="303" y="-16"/>
      <point x="543" y="-16" type="curve" smooth="yes"/>
      <point x="985" y="-16"/>
      <point x="1253" y="304"/>
      <point x="1253" y="730" type="curve" smooth="yes"/>
      <point x="1253" y="1166"/>
      <point x="956" y="1476"/>
      <point x="526" y="1476" type="curve" smooth="yes"/>
      <point x="308" y="1476"/>
      <point x="136" y="1394"/>
      <point x="26" y="1280" type="curve"/>
      <point x="140" y="1120" type="line" smooth="yes"/>
      <point x="154" y="1100"/>
      <point x="172" y="1082"/>
      <point x="208" y="1082" type="curve" smooth="yes"/>
      <point x="280" y="1082"/>
      <point x="316" y="1184"/>
      <point x="528" y="1184" type="curve" smooth="yes"/>
      <point x="752" y="1184"/>
      <point x="907" y="1020"/>
      <point x="907" y="730" type="curve" smooth="yes"/>
      <point x="907" y="438"/>
      <point x="733" y="274"/>
      <point x="521" y="274" type="curve" smooth="yes"/>
      <point x="397" y="274"/>
      <point x="324" y="293"/>
      <point x="245" y="362" type="curve" smooth="yes"/>
      <point x="229" y="376"/>
      <point x="210" y="386"/>
    </contour>
  </outline>
</glyph>
<glyph name="Chook" format="2">
  <advance width="1323"/>
  <unicode hex="0187"/>
  <anchor x="812" y="1525" name="Top"/>
  <anchor x="812" y="1525" name="top"/>
  <anchor x="771" y="-70" name="bottom"/>
  <outline>
    <contour>
      <point x="1125" y="386" type="curve" smooth="yes"/>
      <point x="1105" y="386"/>
      <point x="1086" y="376"/>
      <point x="1070" y="362" type="curve" smooth="yes"/>
      <point x="991" y="293"/>
      <point x="918" y="274"/>
      <point x="794" y="274" type="curve" smooth="yes"/>
      <point x="582" y="274"/>
      <point x="408" y="438"/>
      <point x="408" y="730" type="curve" smooth="yes"/>
      <point x="408" y="1020"/>
      <point x="563" y="1184"/>
      <point x="787" y="1184" type="curve" smooth="yes"/>
      <point x="999" y="1184"/>
      <point x="1035" y="1082"/>
      <point x="1107" y="1082" type="curve" smooth="yes"/>
      <point x="1143" y="1082"/>
      <point x="1161" y="1100"/>
      <point x="1175" y="1120" type="curve" smooth="yes"/>
      <point x="1289" y="1280" type="line"/>
      <point x="1179" y="1394"/>
      <point x="1007" y="1476"/>
      <point x="789" y="1476" type="curve" smooth="yes"/>
      <point x="359" y="1476"/>
      <point x="62" y="1166"/>
      <point x="62" y="730" type="curve" smooth="yes"/>
      <point x="62" y="304"/>
      <point x="330" y="-16"/>
      <point x="772" y="-16" type="curve" smooth="yes"/>
      <point x="1012" y="-16"/>
      <point x="1190" y="64"/>
      <point x="1306" y="218" type="curve"/>
      <point x="1172" y="365" type="line" smooth="yes"/>
      <point x="1158" y="380"/>
      <point x="1141" y="386"/>
    </contour>
    <contour>
      <point x="1289" y="1376" type="line" smooth="yes"/>
      <point x="1289" y="1481"/>
      <point x="1320" y="1533"/>
      <point x="1399" y="1533" type="curve" smooth="yes"/>
      <point x="1423" y="1533"/>
      <point x="1447" y="1530"/>
      <point x="1462" y="1527" type="curve" smooth="yes"/>
      <point x="1501" y="1519"/>
      <point x="1543" y="1522"/>
      <point x="1559" y="1583" type="curve" smooth="yes"/>
      <point x="1603" y="1760" type="line"/>
      <point x="1530" y="1788"/>
      <point x="1470" y="1804"/>
      <point x="1365" y="1804" type="curve" smooth="yes"/>
      <point x="1088" y="1804"/>
      <point x="1011" y="1621"/>
      <point x="1011" y="1455" type="curve" smooth="yes"/>
      <point x="1011" y="1377"/>
      <point x="1020" y="1334"/>
      <point x="1038" y="1280" type="curve"/>
      <point x="1038" y="1280"/>
      <point x="1289" y="1280"/>
      <point x="1289" y="1280" type="curve"/>
    </contour>
  </outline>
</glyph>
<glyph name="chook" format="2">
  <advance width="984"/>
  <unicode hex="0188"/>
  <anchor x="544" y="1120" name="top"/>
  <anchor x="465" y="-70" name="bottom"/>
  <outline>
    <contour>
      <point x="950" y="900" type="line"/>
      <point x="852" y="1002"/>
      <point x="732" y="1056"/>
      <point x="570" y="1056" type="curve" smooth="yes"/>
      <point x="232" y="1056"/>
      <point x="52" y="822"/>
      <point x="52" y="522" type="curve" smooth="yes"/>
      <point x="52" y="180"/>
      <point x="274" y="-16"/>
      <point x="528" y="-16" type="curve" smooth="yes"/>
      <point x="670" y="-16"/>
      <point x="830" y="14"/>
      <point x="958" y="164" type="curve"/>
      <point x="868" y="280" type="line"/>
      <point x="856" y="298"/>
      <point x="836" y="308"/>
      <point x="812" y="308" type="curve" smooth="yes"/>
      <point x="738" y="308"/>
      <point x="730" y="222"/>
      <point x="586" y="222" type="curve" smooth="yes"/>
      <point x="452" y="222"/>
      <point x="370" y="330"/>
      <point x="370" y="522" type="curve" smooth="yes"/>
      <point x="370" y="706"/>
      <point x="438" y="818"/>
      <point x="590" y="818" type="curve" smooth="yes"/>
      <point x="714" y="818"/>
      <point x="744" y="748"/>
      <point x="804" y="748" type="curve" smooth="yes"/>
      <point x="836" y="748"/>
      <point x="850" y="762"/>
      <point x="868" y="786" type="curve" smooth="yes"/>
    </contour>
    <contour>
      <point x="950" y="1134" type="line" smooth="yes"/>
      <point x="950" y="1209"/>
      <point x="968" y="1245"/>
      <point x="1025" y="1245" type="curve" smooth="yes"/>
      <point x="1057" y="1245"/>
      <point x="1080" y="1236"/>
      <point x="1103" y="1236" type="curve" smooth="yes"/>
      <point x="1127" y="1236"/>
      <point x="1157" y="1247"/>
      <point x="1170" y="1295" type="curve"/>
      <point x="1204" y="1432" type="line"/>
      <point x="1133" y="1463"/>
      <point x="1069" y="1476"/>
      <point x="1006" y="1476" type="curve" smooth="yes"/>
      <point x="769" y="1476"/>
      <point x="680" y="1293"/>
      <point x="680" y="1119" type="curve" smooth="yes"/>
      <point x="680" y="863" type="line"/>
      <point x="680" y="863"/>
      <point x="950" y="900"/>
      <point x="950" y="900" type="curve"/>
    </contour>
  </outline>
  <guideline angle="0" x="0" y="1406"/>
</glyph>
<glyph name="Dhook" format="2">
  <advance width="1873"/>
  <unicode hex="018A"/>
  <anchor x="838" y="1525" name="Top"/>
  <anchor x="838" y="1525" name="top"/>
  <anchor x="1001" y="-70" name="bottom"/>
  <outline>
    <contour>
      <point x="1814" y="730" type="curve" smooth="yes"/>
      <point x="1814" y="1148"/>
      <point x="1512" y="1460"/>
      <point x="1058" y="1460" type="curve"/>
      <point x="492" y="1460" type="line"/>
      <point x="492" y="0" type="line"/>
      <point x="1058" y="0" type="line"/>
      <point x="1512" y="0"/>
      <point x="1814" y="310"/>
    </contour>
    <contour>
      <point x="1468" y="730" type="curve" smooth="yes"/>
      <point x="1468" y="446"/>
      <point x="1316" y="272"/>
      <point x="1058" y="272" type="curve"/>
      <point x="832" y="272" type="line"/>
      <point x="832" y="1188" type="line"/>
      <point x="1058" y="1188" type="line"/>
      <point x="1316" y="1188"/>
      <point x="1468" y="1012"/>
    </contour>
    <contour>
      <point x="522" y="1213" type="line"/>
      <point x="522" y="1460" type="line"/>
      <point x="488" y="1460" type="line" smooth="yes"/>
      <point x="189" y="1460"/>
      <point x="21" y="1306"/>
      <point x="21" y="1069" type="curve" smooth="yes"/>
      <point x="21" y="984"/>
      <point x="37" y="924"/>
      <point x="65" y="851" type="curve"/>
      <point x="262" y="895" type="line"/>
      <point x="323" y="911"/>
      <point x="328" y="953"/>
      <point x="318" y="992" type="curve" smooth="yes"/>
      <point x="316" y="1000"/>
      <point x="307" y="1031"/>
      <point x="307" y="1066" type="curve" smooth="yes"/>
      <point x="307" y="1164"/>
      <point x="350" y="1213"/>
      <point x="488" y="1213" type="curve" smooth="yes"/>
    </contour>
  </outline>
</glyph>
<glyph name="Dtopbar" format="2">
  <advance width="1277"/>
  <unicode hex="018B"/>
  <anchor x="735" y="1525" name="Top"/>
  <anchor x="735" y="1525" name="top"/>
  <anchor x="666" y="-70" name="bottom"/>
  <outline>
    <contour>
      <point x="104" y="1196" type="line"/>
      <point x="798" y="1196" type="line"/>
      <point x="798" y="0" type="line"/>
      <point x="1136" y="0" type="line"/>
      <point x="1136" y="1460" type="line"/>
      <point x="104" y="1460" type="line"/>
    </contour>
    <contour>
      <point x="602" y="880" type="line"/>
      <point x="200" y="880"/>
      <point x="48" y="688"/>
      <point x="48" y="473" type="curve" smooth="yes"/>
      <point x="48" y="190"/>
      <point x="252" y="0"/>
      <point x="602" y="0" type="curve" smooth="yes"/>
      <point x="1002" y="0" type="line"/>
      <point x="840" y="266" type="line"/>
      <point x="602" y="266" type="line" smooth="yes"/>
      <point x="422" y="266"/>
      <point x="382" y="352"/>
      <point x="382" y="438" type="curve" smooth="yes"/>
      <point x="382" y="540"/>
      <point x="422" y="614"/>
      <point x="602" y="614" type="curve" smooth="yes"/>
      <point x="808" y="614" type="line"/>
      <point x="808" y="880" type="line"/>
    </contour>
  </outline>
</glyph>
<glyph name="dtopbar" format="2">
  <advance width="1149"/>
  <unicode hex="018C"/>
  <anchor x="623" y="1525" name="Top"/>
  <anchor x="623" y="1525" name="top"/>
  <anchor x="601" y="-70" name="bottom"/>
  <outline>
    <contour>
      <point x="1044" y="0" type="line"/>
      <point x="1044" y="1500" type="line"/>
      <point x="734" y="1500" type="line"/>
      <point x="734" y="170" type="line"/>
      <point x="744" y="154" type="line"/>
      <point x="776" y="54" type="line" smooth="yes"/>
      <point x="788" y="18"/>
      <point x="814" y="0"/>
      <point x="852" y="0" type="curve" smooth="yes"/>
    </contour>
    <contour>
      <point x="796" y="914" type="line"/>
      <point x="720" y="998"/>
      <point x="644" y="1060"/>
      <point x="498" y="1060" type="curve" smooth="yes"/>
      <point x="234" y="1060"/>
      <point x="54" y="828"/>
      <point x="54" y="516" type="curve" smooth="yes"/>
      <point x="54" y="182"/>
      <point x="214" y="-16"/>
      <point x="430" y="-16" type="curve" smooth="yes" name="hr01"/>
      <point x="604" y="-16"/>
      <point x="712" y="74"/>
      <point x="804" y="192" type="curve"/>
      <point x="768" y="368" type="line"/>
      <point x="700" y="280"/>
      <point x="648" y="232"/>
      <point x="538" y="232" type="curve" smooth="yes"/>
      <point x="440" y="232"/>
      <point x="374" y="302"/>
      <point x="374" y="516" type="curve" smooth="yes"/>
      <point x="374" y="742"/>
      <point x="458" y="822"/>
      <point x="572" y="822" type="curve" smooth="yes"/>
      <point x="636" y="822"/>
      <point x="696" y="802"/>
      <point x="746" y="744" type="curve"/>
    </contour>
    <contour>
      <point x="151" y="1278" type="line"/>
      <point x="1044" y="1278" type="line"/>
      <point x="1044" y="1500" type="line"/>
      <point x="151" y="1500" type="line"/>
    </contour>
  </outline>
</glyph>
<glyph name="deltaturned" format="2">
  <advance width="1083"/>
  <unicode hex="018D"/>
  <anchor x="538" y="1525" name="Top"/>
  <anchor x="538" y="1525" name="top"/>
  <anchor x="515" y="-70" name="bottom"/>
  <outline>
    <contour>
      <point x="129" y="33" type="line"/>
      <point x="244" y="7"/>
      <point x="423" y="-13"/>
      <point x="533" y="-13" type="curve" smooth="yes"/>
      <point x="794" y="-13"/>
      <point x="929" y="101"/>
      <point x="929" y="272" type="curve" smooth="yes"/>
      <point x="929" y="634"/>
      <point x="329" y="570"/>
      <point x="329" y="986" type="curve" smooth="yes"/>
      <point x="329" y="1141"/>
      <point x="413" y="1235"/>
      <point x="537" y="1235" type="curve" smooth="yes"/>
      <point x="674" y="1235"/>
      <point x="736" y="1119"/>
      <point x="736" y="973" type="curve" smooth="yes" name="hr01"/>
      <point x="736" y="725"/>
      <point x="556" y="646"/>
      <point x="427" y="619" type="curve"/>
      <point x="467" y="467" type="line"/>
      <point x="867" y="519"/>
      <point x="1056" y="703"/>
      <point x="1056" y="984" type="curve" smooth="yes"/>
      <point x="1056" y="1271"/>
      <point x="858" y="1470"/>
      <point x="537" y="1470" type="curve" smooth="yes"/>
      <point x="205" y="1470"/>
      <point x="20" y="1258"/>
      <point x="20" y="980" type="curve" smooth="yes"/>
      <point x="20" y="473"/>
      <point x="638" y="398"/>
      <point x="638" y="273" type="curve" smooth="yes" name="hr02"/>
      <point x="638" y="248"/>
      <point x="613" y="230"/>
      <point x="556" y="230" type="curve" smooth="yes"/>
      <point x="450" y="230"/>
      <point x="287" y="291"/>
      <point x="231" y="291" type="curve" smooth="yes"/>
      <point x="183" y="291"/>
      <point x="161" y="277"/>
      <point x="154" y="226" type="curve"/>
    </contour>
  </outline>
</glyph>
<glyph name="Ereversed" format="2">
  <advance width="1138"/>
  <unicode hex="018E"/>
  <anchor x="593" y="1525" name="Top"/>
  <anchor x="593" y="1525" name="top"/>
  <anchor x="528" y="-70" name="bottom"/>
  <outline>
    <contour>
      <point x="657" y="0" type="line"/>
      <point x="997" y="0" type="line"/>
      <point x="997" y="1460" type="line"/>
      <point x="657" y="1460" type="line"/>
    </contour>
    <contour>
      <point x="199" y="864" type="line"/>
      <point x="199" y="602" type="line"/>
      <point x="689" y="602" type="line"/>
      <point x="689" y="864" type="line"/>
    </contour>
    <contour>
      <point x="59" y="1460" type="line"/>
      <point x="59" y="1188" type="line"/>
      <point x="689" y="1188" type="line"/>
      <point x="689" y="1460" type="line"/>
    </contour>
    <contour>
      <point x="59" y="272" type="line"/>
      <point x="59" y="0" type="line"/>
      <point x="689" y="0" type="line"/>
      <point x="689" y="272" type="line"/>
    </contour>
  </outline>
</glyph>
<glyph name="Eopen" format="2">
  <advance width="1190"/>
  <unicode hex="0190"/>
  <anchor x="479" y="1120" name="top"/>
  <anchor x="535" y="1525" name="Top"/>
  <anchor x="638" y="-70" name="bottom"/>
  <outline>
    <contour>
      <point x="1143" y="1308" type="line"/>
      <point x="1028" y="1412"/>
      <point x="876" y="1478"/>
      <point x="659" y="1478" type="curve" smooth="yes"/>
      <point x="300" y="1478"/>
      <point x="92" y="1279"/>
      <point x="92" y="1071" type="curve" smooth="yes"/>
      <point x="92" y="912"/>
      <point x="201" y="742"/>
      <point x="571" y="742" type="curve"/>
      <point x="571" y="847" type="line"/>
      <point x="312" y="847"/>
      <point x="69" y="692"/>
      <point x="69" y="440" type="curve" smooth="yes" name="hr01"/>
      <point x="69" y="129"/>
      <point x="355" y="-14"/>
      <point x="589" y="-14" type="curve" smooth="yes"/>
      <point x="801" y="-14"/>
      <point x="1008" y="26"/>
      <point x="1180" y="235" type="curve"/>
      <point x="1056" y="382" type="line"/>
      <point x="1042" y="397"/>
      <point x="1025" y="403"/>
      <point x="1009" y="403" type="curve" smooth="yes"/>
      <point x="989" y="403"/>
      <point x="970" y="393"/>
      <point x="954" y="379" type="curve" smooth="yes"/>
      <point x="888" y="323"/>
      <point x="834" y="272"/>
      <point x="680" y="272" type="curve" smooth="yes"/>
      <point x="500" y="272"/>
      <point x="415" y="364"/>
      <point x="415" y="472" type="curve" smooth="yes"/>
      <point x="415" y="549"/>
      <point x="477" y="649"/>
      <point x="645" y="649" type="curve" smooth="yes"/>
      <point x="919" y="649" type="line"/>
      <point x="919" y="892" type="line"/>
      <point x="675" y="892" type="line" smooth="yes"/>
      <point x="518" y="892"/>
      <point x="451" y="953"/>
      <point x="451" y="1054" type="curve" smooth="yes" name="hr02"/>
      <point x="451" y="1130"/>
      <point x="503" y="1198"/>
      <point x="650" y="1198" type="curve" smooth="yes"/>
      <point x="861" y="1198"/>
      <point x="918" y="1117"/>
      <point x="984" y="1117" type="curve" smooth="yes"/>
      <point x="1007" y="1117"/>
      <point x="1038" y="1122"/>
      <point x="1067" y="1174" type="curve" smooth="yes"/>
    </contour>
  </outline>
  <guideline angle="0" x="0" y="1406"/>
</glyph>
<glyph name="Fhook" format="2">
  <advance width="1133"/>
  <unicode hex="0191"/>
  <anchor x="510" y="1525" name="Top"/>
  <anchor x="510" y="1525" name="top"/>
  <anchor x="311" y="-421" name="bottom"/>
  <outline>
    <contour>
      <point x="481" y="1460" type="line"/>
      <point x="141" y="1460" type="line"/>
      <point x="141" y="102" type="line"/>
      <point x="481" y="102" type="line"/>
    </contour>
    <contour>
      <point x="449" y="834" type="line"/>
      <point x="449" y="562" type="line"/>
      <point x="979" y="562" type="line"/>
      <point x="979" y="834" type="line"/>
    </contour>
    <contour>
      <point x="449" y="1460" type="line"/>
      <point x="449" y="1188" type="line"/>
      <point x="1079" y="1188" type="line"/>
      <point x="1079" y="1460" type="line"/>
    </contour>
    <contour>
      <point x="141" y="73" type="line" smooth="yes"/>
      <point x="141" y="-32"/>
      <point x="110" y="-84"/>
      <point x="31" y="-84" type="curve" smooth="yes"/>
      <point x="7" y="-84"/>
      <point x="-17" y="-81"/>
      <point x="-32" y="-78" type="curve" smooth="yes"/>
      <point x="-71" y="-70"/>
      <point x="-113" y="-73"/>
      <point x="-129" y="-134" type="curve" smooth="yes"/>
      <point x="-173" y="-311" type="line"/>
      <point x="-100" y="-339"/>
      <point x="-40" y="-355"/>
      <point x="79" y="-355" type="curve" smooth="yes"/>
      <point x="362" y="-355"/>
      <point x="481" y="-172"/>
      <point x="481" y="73" type="curve" smooth="yes"/>
      <point x="481" y="129" type="line"/>
      <point x="481" y="129"/>
      <point x="141" y="129"/>
      <point x="141" y="129" type="curve"/>
    </contour>
  </outline>
</glyph>
<glyph name="florin" format="2">
  <advance width="724"/>
  <unicode hex="0192"/>
  <anchor x="441" y="1525" name="Top"/>
  <anchor x="441" y="1525" name="top"/>
  <anchor x="321" y="-421" name="bottom"/>
  <outline>
    <contour>
      <point x="476" y="89" type="line"/>
      <point x="476" y="942" type="line"/>
      <point x="466" y="974" type="line"/>
      <point x="466" y="1084" type="line" smooth="yes"/>
      <point x="466" y="1216"/>
      <point x="526" y="1252"/>
      <point x="636" y="1252" type="curve" smooth="yes"/>
      <point x="670" y="1252"/>
      <point x="711" y="1268"/>
      <point x="713" y="1312" type="curve" smooth="yes"/>
      <point x="719" y="1470" type="line"/>
      <point x="673" y="1482"/>
      <point x="632" y="1488"/>
      <point x="582" y="1488" type="curve" smooth="yes"/>
      <point x="322" y="1488"/>
      <point x="166" y="1332"/>
      <point x="166" y="1094" type="curve" smooth="yes"/>
      <point x="166" y="89" type="line"/>
    </contour>
    <contour>
      <point x="709" y="818" type="line"/>
      <point x="709" y="1040" type="line"/>
      <point x="20" y="1040" type="line"/>
      <point x="20" y="912" type="line" smooth="yes"/>
      <point x="20" y="866"/>
      <point x="52" y="844"/>
      <point x="98" y="834" type="curve" smooth="yes"/>
      <point x="222" y="808" type="line"/>
      <point x="262" y="818" type="line"/>
    </contour>
    <contour>
      <point x="166" y="-4" type="line" smooth="yes"/>
      <point x="166" y="-114"/>
      <point x="124" y="-164"/>
      <point x="36" y="-164" type="curve" smooth="yes"/>
      <point x="-1" y="-164"/>
      <point x="-14" y="-155"/>
      <point x="-37" y="-155" type="curve" smooth="yes" name="hr01"/>
      <point x="-66" y="-155"/>
      <point x="-91" y="-166"/>
      <point x="-104" y="-214" type="curve"/>
      <point x="-138" y="-351" type="line"/>
      <point x="-67" y="-382"/>
      <point x="-13" y="-395"/>
      <point x="65" y="-395" type="curve" smooth="yes"/>
      <point x="357" y="-395"/>
      <point x="476" y="-212"/>
      <point x="476" y="33" type="curve"/>
      <point x="476" y="102" type="line"/>
      <point x="476" y="102"/>
      <point x="166" y="102"/>
      <point x="166" y="102" type="curve"/>
    </contour>
  </outline>
</glyph>
